
<svg width="191px" height="59px" viewBox="0 0 191 59" version="1.1" xmlns="http://www.w3.org/2000/svg" xmlns:xlink="http://www.w3.org/1999/xlink">
    <!-- Generator: Sketch 54.1 (76490) - https://sketchapp.com -->
    <title>Group 4</title>
    <desc>Created with Sketch.</desc>
    <g id="Landing-Page" stroke="none" stroke-width="1" fill="none" fill-rule="evenodd">
        <g id="iPhone-8-Plus-Copy-7" transform="translate(-13.000000, -658.000000)">
            <g id="Group-4" transform="translate(13.000000, 658.000000)">
                <g id="Group-2">
                    <path d="M29.4973699,0 L161.50263,0 C177.793578,-2.99259852e-15 191,13.2064223 191,29.4973699 L191,29.4973699 C191,45.7883174 177.793578,58.9947398 161.50263,58.9947398 L29.4973699,58.9947398 C13.2064223,58.9947398 -4.56304999e-13,45.7883174 -4.58300065e-13,29.4973699 L-4.58300065e-13,29.4973699 C-4.6029513e-13,13.2064223 13.2064223,2.99259852e-15 29.4973699,0 Z" id="Rectangle-Copy-6" fill="#16A085"></path>
                    <circle id="Oval" fill="#FFFFFF" opacity="0.5" cx="30" cy="29.9973699" r="24"></circle>
                    <path d="M42.2660582,20 C43.2072832,20 43.9720284,20.7647453 44.0014417,21.7353835 L44.0014417,24.8531911 L16.0588266,24.8531911 L16.0588266,21.7059702 C16.0588266,20.7647453 16.8235718,20 17.7647967,20 L42.2660582,20 Z M16.0294133,38.0009268 L16,38.0009268 L16,27.8827588 L43.9426151,27.8827588 L43.9426151,38.0009268 C43.9426151,38.9421517 43.1778699,39.706897 42.236645,39.706897 L17.7353835,39.706897 C16.7941585,39.706897 16.0294133,38.9421517 16.0294133,38.0009268 Z M35.0598049,33.4124553 L35.0598049,35.8831707 C35.0598049,36.3243699 35.4127642,36.6773293 35.8539634,36.6773293 L40.1483021,36.6773293 C40.5895013,36.6773293 40.9424607,36.3243699 40.9424607,35.8831707 L40.9424607,33.4124553 C40.9424607,32.9712561 40.5895013,32.6182967 40.1483021,32.6182967 L35.8539634,32.6182967 C35.4127642,32.6182967 35.0598049,32.9712561 35.0598049,33.4124553 Z" id="Combined-Shape" fill="#FFFFFF" fill-rule="nonzero"></path>
                    <text id="Add-Money" font-family="Avenir-Black, Avenir" font-size="18" font-weight="700" fill="#FFFFFF">
                        <tspan x="67" y="34">Add Money</tspan>
                    </text>
                </g>
            </g>
        </g>
    </g>
</svg>
