
<svg width="159px" height="55px" viewBox="0 0 159 55" version="1.1" xmlns="http://www.w3.org/2000/svg" xmlns:xlink="http://www.w3.org/1999/xlink">
    <!-- Generator: Sketch 54.1 (76490) - https://sketchapp.com -->
    <title>Group 4</title>
    <desc>Created with Sketch.</desc>
    <g id="Landing-Page" stroke="none" stroke-width="1" fill="none" fill-rule="evenodd">
        <g id="iPhone-8-Plus-Copy-6" transform="translate(-231.000000, -34.000000)">
            <g id="Group-4" transform="translate(231.000000, 34.000000)">
                <path d="M12.819426,0.182663597 L145.542643,0.182663597 C150.000237,0.182663597 151.616668,0.646791653 153.246297,1.51832712 C154.875927,2.38986258 156.15487,3.66880545 157.026405,5.29843508 C157.897941,6.92806471 158.362069,8.5444959 158.362069,13.0020896 L158.362069,41.9979104 C158.362069,46.4555041 157.897941,48.0719353 157.026405,49.7015649 C156.15487,51.3311945 154.875927,52.6101374 153.246297,53.4816729 C151.616668,54.3532083 150.000237,54.8173364 145.542643,54.8173364 L12.819426,54.8173364 C8.3618323,54.8173364 6.74540111,54.3532083 5.11577148,53.4816729 C3.48614185,52.6101374 2.20719898,51.3311945 1.33566352,49.7015649 C0.464128056,48.0719353 2.00617683e-16,46.4555041 -3.45280103e-16,41.9979104 L3.45280103e-16,13.0020896 C-2.00617683e-16,8.5444959 0.464128056,6.92806471 1.33566352,5.29843508 C2.20719898,3.66880545 3.48614185,2.38986258 5.11577148,1.51832712 C6.74540111,0.646791653 8.3618323,0.182663597 12.819426,0.182663597 Z" id="Rectangle-Copy-6" fill="#16A085"></path>
                <path d="M43.9249871,15.1724138 C45.0572568,15.1724138 45.9772259,16.0923829 46.0126094,17.260036 L46.0126094,21.0106794 L12.3983531,21.0106794 L12.3983531,17.2246526 C12.3983531,16.0923829 13.3183222,15.1724138 14.4505919,15.1724138 L43.9249871,15.1724138 Z M12.3629696,36.8270715 L12.3275862,36.8270715 L12.3275862,24.6551724 L45.9418425,24.6551724 L45.9418425,36.8270715 C45.9418425,37.9593412 45.0218734,38.8793103 43.8896037,38.8793103 L14.4152084,38.8793103 C13.2829388,38.8793103 12.3629696,37.9593412 12.3629696,36.8270715 Z M35.2560473,31.3072568 L35.2560473,34.2794647 C35.2560473,34.8102162 35.6806485,35.2348173 36.2113999,35.2348173 L41.3773803,35.2348173 C41.9081318,35.2348173 42.3327329,34.8102162 42.3327329,34.2794647 L42.3327329,31.3072568 C42.3327329,30.7765054 41.9081318,30.3519043 41.3773803,30.3519043 L36.2113999,30.3519043 C35.6806485,30.3519043 35.2560473,30.7765054 35.2560473,31.3072568 Z" id="Combined-Shape" fill="#FFFFFF" fill-rule="nonzero"></path>
                <text id="Add-Card" font-family="Avenir-Black, Avenir" font-size="18" font-weight="700" fill="#FFFFFF">
                    <tspan x="65.4310345" y="34.3469828">Add Card</tspan>
                </text>
            </g>
        </g>
    </g>
</svg>
