
<svg width="31px" height="28px" viewBox="0 0 31 28" version="1.1" xmlns="http://www.w3.org/2000/svg" xmlns:xlink="http://www.w3.org/1999/xlink">
    <!-- Generator: Sketch 54.1 (76490) - https://sketchapp.com -->
    <title>Combined Shape</title>
    <desc>Created with Sketch.</desc>
    <g id="Landing-Page" stroke="none" stroke-width="1" fill="none" fill-rule="evenodd">
        <g id="iPhone-8-Plus-Copy-10" transform="translate(-31.000000, -658.000000)" fill="#4A90E2">
            <path d="M31.3902766,673.436792 C31.1404017,673.187823 31,672.849982 31,672.497691 C31,672.145399 31.1404017,671.807558 31.3902766,671.558589 L42.3086728,660.661028 L36.3205213,660.661028 C35.5855958,660.661028 34.989821,660.066753 34.989821,659.333676 C34.989821,658.6006 35.5855958,658.006324 36.3205213,658.006324 L45.5223141,658.006324 C45.608603,657.997892 45.6955116,657.997892 45.7818006,658.006324 L45.8949101,658.006324 L46.0346337,658.046145 L46.1543967,658.172243 L46.2608527,658.231974 C46.4056064,658.328587 46.5299382,658.452606 46.6267953,658.596996 C46.6267953,658.596996 46.6600628,658.663363 46.6800233,658.696547 C46.7309265,658.775684 46.7669971,658.863385 46.7864794,658.955381 C46.7864794,658.995201 46.7864794,659.028385 46.8197469,659.068206 C46.8282003,659.154278 46.8282003,659.240968 46.8197469,659.327039 L46.8197469,668.883975 C46.8197469,669.617051 46.223972,670.211327 45.4890465,670.211327 C44.7541211,670.211327 44.1583462,669.617051 44.1583462,668.883975 L44.1583462,662.539232 L33.2732176,673.436792 C33.0236205,673.686039 32.6849273,673.826087 32.3317471,673.826087 C31.978567,673.826087 31.6398738,673.686039 31.3902766,673.436792 Z M61.0419316,670.565507 C61.5545338,671.069689 61.5669779,671.856607 61.0705415,672.374691 L49.3404808,683.323257 L55.7777093,683.323257 C56.56775,683.323257 57.2082045,683.921042 57.2082045,684.658448 C57.2082045,685.395853 56.56775,685.993639 55.7777093,685.993639 L45.8500725,685.993639 C45.7573124,686.00212 45.6638861,686.00212 45.571126,685.993639 L45.4495339,685.960259 L45.3064844,685.920203 L45.1133675,685.873471 L45.0060804,685.820064 C44.850471,685.72288 44.7168151,685.598128 44.6126942,685.452886 C44.5554744,685.419506 44.5554744,685.352747 44.5554744,685.352747 C44.4974308,685.271604 44.4561887,685.181028 44.4338823,685.085709 C44.3981199,685.052329 44.3981199,685.012273 44.3981199,684.972217 C44.3890325,684.885637 44.3890325,684.798435 44.3981199,684.711855 L44.3981199,675.105156 C44.3981199,674.36775 45.0385744,673.769965 45.8286151,673.769965 C46.6186558,673.769965 47.2591103,674.36775 47.2591103,675.105156 L47.2591103,681.487369 L59.0177809,670.565507 C59.2860964,670.314789 59.6501896,670.173913 60.0298563,670.173913 C60.4095229,670.173913 60.7736161,670.314789 61.0419316,670.565507 Z" id="Combined-Shape"></path>
        </g>
    </g>
</svg>
