
<svg width="45px" height="45px" viewBox="0 0 45 45" version="1.1" xmlns="http://www.w3.org/2000/svg" xmlns:xlink="http://www.w3.org/1999/xlink">
    <!-- Generator: Sketch 54.1 (76490) - https://sketchapp.com -->
    <title>Group 9</title>
    <desc>Created with Sketch.</desc>
    <g id="Landing" stroke="none" stroke-width="1" fill="none" fill-rule="evenodd">
        <g id="iPhone-8-Plus" transform="translate(-341.000000, -671.000000)" fill="#FFFFFF">
            <g id="Add-to-Bag" transform="translate(24.000000, 666.000000)">
                <g id="Group-9" transform="translate(339.500000, 27.500000) scale(-1, 1) translate(-339.500000, -27.500000) translate(317.000000, 5.000000)">
                    <rect id="Rectangle" fill-rule="nonzero" opacity="0.300000012" x="0" y="0" width="44.5754717" height="44.5754717" rx="22.2877358"></rect>
                    <path d="M15.5607134,23.0552238 C15.386275,22.822227 15.2830189,22.532512 15.2830189,22.2169811 C15.2830189,21.9033136 15.3858082,21.6137406 15.5600401,21.3803391 C15.6253219,21.2248693 15.720062,21.078559 15.8444543,20.949747 L21.7641611,14.8197112 C22.3010786,14.2637168 23.1833139,14.2446357 23.7433493,14.7854555 C24.2995072,15.322531 24.3163547,16.2073447 23.7781872,16.7646336 L19.8647965,20.8170683 L30.8600666,20.8170683 C31.635521,20.8170683 32.2641509,21.4384403 32.2641509,22.2169811 C32.2641509,22.9901317 31.6396444,23.616894 30.8600666,23.616894 L19.8647965,23.616894 L23.7781872,27.6693287 C24.3163547,28.2266175 24.2995072,29.1114312 23.7433493,29.6485067 C23.1833139,30.1893266 22.3010786,30.1702454 21.7641611,29.6142511 L15.8444543,23.4842153 C15.720489,23.3558455 15.6259727,23.2100973 15.5607134,23.0552238 Z" id="Back-Arrow-(30x30)"></path>
                </g>
            </g>
        </g>
    </g>
</svg>
