
<svg width="191px" height="59px" viewBox="0 0 191 59" version="1.1" xmlns="http://www.w3.org/2000/svg" xmlns:xlink="http://www.w3.org/1999/xlink">
    <!-- Generator: Sketch 54.1 (76490) - https://sketchapp.com -->
    <title>Group 4 Copy</title>
    <desc>Created with Sketch.</desc>
    <g id="Landing-Page" stroke="none" stroke-width="1" fill="none" fill-rule="evenodd">
        <g id="iPhone-8-Plus-Copy-7" transform="translate(-215.000000, -658.000000)">
            <g id="Group-4-Copy" transform="translate(215.000000, 658.000000)">
                <g id="Group-2">
                    <path d="M29.4973699,-2.13162821e-14 L161.50263,-2.13162821e-14 C177.793578,-2.43088806e-14 191,13.2064223 191,29.4973699 L191,29.4973699 C191,45.7883174 177.793578,58.9947398 161.50263,58.9947398 L29.4973699,58.9947398 C13.2064223,58.9947398 -4.56304999e-13,45.7883174 -4.58300065e-13,29.4973699 L-4.58300065e-13,29.4973699 C-4.6029513e-13,13.2064223 13.2064223,-1.83236836e-14 29.4973699,-2.13162821e-14 Z" id="Rectangle-Copy-6" fill="#16A085"></path>
                    <circle id="Oval" fill="#FFFFFF" opacity="0.5" cx="30" cy="29.9973699" r="24"></circle>
                    <path d="M26.0766987,11.9973699 C29.1045525,11.9973699 31.5679788,15.0081668 31.5679788,18.7089919 C31.5679788,21.7508014 29.9015738,24.3227714 27.6273237,25.1430521 L27.6273237,35.7555298 L24.5260736,35.7555298 L24.5260736,25.1430521 C22.2513067,24.3227714 20.5849017,21.7508014 20.5849017,18.7089919 C20.5849017,15.0081668 23.048328,11.9973699 26.0766987,11.9973699 Z M26.0766987,22.3183301 C27.3719875,22.3183301 28.4667287,20.6653638 28.4667287,18.7089919 C28.4667287,16.7515862 27.3719875,15.09862 26.0766987,15.09862 C24.780893,15.09862 23.6861517,16.7521031 23.6861517,18.7089919 C23.6861517,20.6653638 24.780893,22.3183301 26.0766987,22.3183301 Z M40.4602965,29.4926896 C40.168779,29.7836903 39.7614815,29.9397865 39.3619371,29.945989 L36.608027,29.9403034 L36.608027,35.8311279 L33.506777,35.8311279 L33.506777,14.5885987 C33.506777,13.8318936 34.0531139,13.1857999 34.7999982,13.0596824 C35.4352376,12.9521724 36.4596839,13.127393 37.4246896,13.9430218 C39.7413234,15.9014612 40.9156634,20.7637044 40.9156634,28.3948471 C40.9151465,28.8073134 40.751814,29.2022059 40.4602965,29.4926896 Z M36.6075102,26.8390533 L37.7968396,26.8416377 C37.6929477,22.4828307 37.1600496,19.8865675 36.6075102,18.3514488 L36.6075102,26.8390533 Z M19,39.3531656 L20.5954778,39.3531656 L22.1660262,43.4748165 L23.7531942,39.3531656 L25.3320524,39.3531656 L25.3320524,45.2364899 L24.3348788,45.2364899 L24.3348788,40.3503392 L24.3182592,40.3503392 L22.5316565,45.2364899 L21.8003959,45.2364899 L20.0137932,40.3503392 L19.9971736,40.3503392 L19.9971736,45.2364899 L19,45.2364899 L19,39.3531656 Z M26.6699269,39.3531656 L30.5672137,39.3531656 L30.5672137,40.3004805 L27.7169592,40.3004805 L27.7169592,41.7463823 L30.4176377,41.7463823 L30.4176377,42.6936972 L27.7169592,42.6936972 L27.7169592,44.2891749 L30.7167898,44.2891749 L30.7167898,45.2364899 L26.6699269,45.2364899 L26.6699269,39.3531656 Z M31.7472025,39.3531656 L33.1349358,39.3531656 L35.9851903,43.7241099 L36.0018099,43.7241099 L36.0018099,39.3531656 L37.0488421,39.3531656 L37.0488421,45.2364899 L35.7192773,45.2364899 L32.8108543,40.7242793 L32.7942348,40.7242793 L32.7942348,45.2364899 L31.7472025,45.2364899 L31.7472025,39.3531656 Z M43.0734326,43.0759471 C43.0734326,43.4304994 43.0124949,43.7504228 42.8906175,44.0357266 C42.7687401,44.3210305 42.6025462,44.5633967 42.3920307,44.7628324 C42.1815152,44.9622681 41.9322243,45.1159975 41.6441505,45.2240252 C41.3560767,45.3320529 41.0430781,45.3860659 40.7051453,45.3860659 C40.3672126,45.3860659 40.054214,45.3320529 39.7661402,45.2240252 C39.4780664,45.1159975 39.2273905,44.9622681 39.0141051,44.7628324 C38.8008197,44.5633967 38.6346257,44.3210305 38.5155183,44.0357266 C38.3964109,43.7504228 38.336858,43.4304994 38.336858,43.0759471 L38.336858,39.3531656 L39.3838903,39.3531656 L39.3838903,43.0427079 C39.3838903,43.1867448 39.4060495,43.3377043 39.4503686,43.4955909 C39.4946876,43.6534776 39.5680899,43.7988972 39.6705777,43.9318544 C39.7730655,44.0648115 39.9087906,44.1742225 40.0777569,44.2600907 C40.2467233,44.3459589 40.4558507,44.3888923 40.7051453,44.3888923 C40.95444,44.3888923 41.1635674,44.3459589 41.3325337,44.2600907 C41.5015001,44.1742225 41.6372251,44.0648115 41.7397129,43.9318544 C41.8422007,43.7988972 41.9156031,43.6534776 41.9599221,43.4955909 C42.0042412,43.3377043 42.0264004,43.1867448 42.0264004,43.0427079 L42.0264004,39.3531656 L43.0734326,39.3531656 L43.0734326,43.0759471 Z" id="Combined-Shape" fill="#FFFFFF"></path>
                    <text id="Buy-Food" font-family="Avenir-Black, Avenir" font-size="18" font-weight="700" fill="#FFFFFF">
                        <tspan x="70" y="36">Buy Food</tspan>
                    </text>
                </g>
            </g>
        </g>
    </g>
</svg>
