
<svg width="34px" height="24px" viewBox="0 0 34 24" version="1.1" xmlns="http://www.w3.org/2000/svg" xmlns:xlink="http://www.w3.org/1999/xlink">
    <!-- Generator: Sketch 54.1 (76490) - https://sketchapp.com -->
    <title>Combined Shape</title>
    <desc>Created with Sketch.</desc>
    <g id="Landing-Page" stroke="none" stroke-width="1" fill="none" fill-rule="evenodd">
        <g id="iPhone-8-Plus-Copy-12" transform="translate(-50.000000, -405.000000)" fill="#FFFFFF" fill-rule="nonzero">
            <g id="Group-4" transform="translate(23.000000, 384.000000)">
                <path d="M58.5974015,21 C59.7296712,21 60.6496404,21.9199691 60.6850238,23.0876223 L60.6850238,26.8382657 L27.0707669,26.8382657 L27.0707669,23.0522388 C27.0707669,21.9199691 27.990736,21 29.1230057,21 L58.5974015,21 Z M27.0353834,42.6546582 L27,42.6546582 L27,30.4827588 L60.6142569,30.4827588 L60.6142569,42.6546582 C60.6142569,43.7869279 59.6942878,44.706897 58.5620181,44.706897 L29.0876223,44.706897 C27.9553526,44.706897 27.0353834,43.7869279 27.0353834,42.6546582 Z M49.9284616,37.1348433 L49.9284616,40.1070513 C49.9284616,40.6378027 50.3530627,41.0624039 50.8838141,41.0624039 L56.0497947,41.0624039 C56.5805461,41.0624039 57.0051472,40.6378027 57.0051472,40.1070513 L57.0051472,37.1348433 C57.0051472,36.6040919 56.5805461,36.1794908 56.0497947,36.1794908 L50.8838141,36.1794908 C50.3530627,36.1794908 49.9284616,36.6040919 49.9284616,37.1348433 Z" id="Combined-Shape"></path>
            </g>
        </g>
    </g>
</svg>
