
<svg width="36px" height="26px" viewBox="0 0 36 26" version="1.1" xmlns="http://www.w3.org/2000/svg" xmlns:xlink="http://www.w3.org/1999/xlink">
    <!-- Generator: Sketch 54.1 (76490) - https://sketchapp.com -->
    <title>Combined Shape</title>
    <desc>Created with Sketch.</desc>
    <g id="Landing-Page" stroke="none" stroke-width="1" fill="none" fill-rule="evenodd">
        <g id="iPhone-8-Plus-Copy" transform="translate(-99.000000, -197.000000)" fill="#FFFFFF" fill-rule="nonzero">
            <g id="My-Card" transform="translate(99.400000, 192.000000)">
                <path d="M33.3208955,5.5 C34.5149254,5.5 35.4850746,6.47014925 35.5223881,7.70149254 L35.5223881,11.6567164 L0.0746268657,11.6567164 L0.0746268657,7.6641791 C0.0746268657,6.47014925 1.04477612,5.5 2.23880597,5.5 L33.3208955,5.5 Z M0.0373134328,28.3358209 L-1.13686838e-13,28.3358209 L-1.13686838e-13,15.5 L35.4477612,15.5 L35.4477612,28.3358209 C35.4477612,29.5298507 34.4776119,30.5 33.2835821,30.5 L2.20149254,30.5 C1.00746269,30.5 0.0373134328,29.5298507 0.0373134328,28.3358209 Z M24.1791045,22.5149254 L24.1791045,25.6492537 C24.1791045,26.2089552 24.6268657,26.6567164 25.1865672,26.6567164 L30.6343284,26.6567164 C31.1940299,26.6567164 31.641791,26.2089552 31.641791,25.6492537 L31.641791,22.5149254 C31.641791,21.9552239 31.1940299,21.5074627 30.6343284,21.5074627 L25.1865672,21.5074627 C24.6268657,21.5074627 24.1791045,21.9552239 24.1791045,22.5149254 Z" id="Combined-Shape"></path>
            </g>
        </g>
    </g>
</svg>
