
<svg width="98px" height="69px" viewBox="0 0 98 69" version="1.1" xmlns="http://www.w3.org/2000/svg" xmlns:xlink="http://www.w3.org/1999/xlink">
    <!-- Generator: Sketch 54.1 (76490) - https://sketchapp.com -->
    <title>Combined Shape</title>
    <desc>Created with Sketch.</desc>
    <g id="Landing-Page" stroke="none" stroke-width="1" fill="none" fill-rule="evenodd">
        <g id="iPhone-8-Plus-Copy-10" transform="translate(-31.000000, -477.000000)" fill="#16A085" fill-rule="nonzero">
            <path d="M122.575013,477 C125.856537,477 128.522775,479.666238 128.625322,483.050309 L128.625322,493.920355 L31.2050952,493.920355 L31.2050952,482.947761 C31.2050952,479.666238 33.871333,477 37.1528564,477 L122.575013,477 Z M31.1025476,539.759136 L31,539.759136 L31,504.482759 L128.420227,504.482759 L128.420227,539.759136 C128.420227,543.040659 125.753989,545.706897 122.472466,545.706897 L37.0503088,545.706897 C33.7687854,545.706897 31.1025476,543.040659 31.1025476,539.759136 Z M97.4508496,523.761709 L97.4508496,532.375708 C97.4508496,533.913922 98.6814209,535.144493 100.219635,535.144493 L115.191586,535.144493 C116.7298,535.144493 117.960371,533.913922 117.960371,532.375708 L117.960371,523.761709 C117.960371,522.223495 116.7298,520.992924 115.191586,520.992924 L100.219635,520.992924 C98.6814209,520.992924 97.4508496,522.223495 97.4508496,523.761709 Z" id="Combined-Shape"></path>
        </g>
    </g>
</svg>
