
<svg width="80px" height="24px" viewBox="0 0 80 24" version="1.1" xmlns="http://www.w3.org/2000/svg" xmlns:xlink="http://www.w3.org/1999/xlink">
    <!-- Generator: Sketch 54.1 (76490) - https://sketchapp.com -->
    <title>Group 3</title>
    <desc>Created with Sketch.</desc>
    <g id="Landing-Page" stroke="none" stroke-width="1" fill="none" fill-rule="evenodd">
        <g id="iPhone-8-Plus-Copy-8" transform="translate(-174.000000, -46.000000)" fill="#4A4A4A">
            <g id="Group-3" transform="translate(174.000000, 44.000000)">
                <text id="Cart" font-family="Avenir-Heavy, Avenir" font-size="24" font-weight="600">
                    <tspan x="32" y="24">Cart</tspan>
                </text>
                <path d="M25.0560432,13.0652345 L23.6740254,13.0652345 L22.6693348,6.11089678 C22.420511,4.38579913 20.8875623,3.03439182 19.1797399,3.03439182 L17.7610501,3.03439182 C17.4028166,2.41642378 16.7366597,2 15.9710946,2 L10.2699682,2 C9.50409998,2 8.83764008,2.41642378 8.4797096,3.03439182 L7.20710155,3.03439182 C5.50534061,3.03439182 3.96299663,4.38094995 3.69598837,6.10028919 L2.6188631,13.0652345 L1.18471657,13.0652345 C0.530682709,13.0652345 -4.54747351e-13,13.6544106 -4.54747351e-13,14.3820914 C-4.54747351e-13,15.108863 0.530682709,15.6986452 1.18471657,15.6986452 L1.67963653,15.6986452 L3.67083322,25.275786 C3.79994278,25.6597809 4.15847941,25.918 4.56278023,25.918 L21.6776764,25.918 C22.0822803,25.918 22.4417262,25.6594778 22.5699265,25.275786 L24.5614263,15.6986452 L25.0557401,15.6986452 C25.7103801,15.6986452 26.2404567,15.1091661 26.2404567,14.3820914 C26.2407597,13.6544106 25.7106832,13.0652345 25.0560432,13.0652345 Z M8.35029697,23.9340771 C8.2996836,23.9401386 8.24967637,23.9428662 8.20088145,23.9428662 C7.59170255,23.9428662 7.06435366,23.4882551 6.98919129,22.8681656 L6.2699965,16.9745871 C6.18846958,16.3047934 6.66581125,15.6953114 7.33590803,15.6131783 C8.00721711,15.5310452 8.61578986,16.0092961 8.69731678,16.6790898 L9.41620849,22.5723653 C9.49712927,23.242462 9.02069682,23.8522471 8.35029697,23.9340771 Z M14.3432838,22.7202654 C14.3432838,23.3955145 13.7953258,23.9425632 13.1203799,23.9425632 C12.4454339,23.9425632 11.8983852,23.3952114 11.8983852,22.7202654 L11.8983852,16.82699 C11.8983852,16.152044 12.445737,15.6046922 13.1203799,15.6046922 C13.7956289,15.6046922 14.3432838,16.1523471 14.3432838,16.82699 L14.3432838,22.7202654 Z M19.9713694,16.9748901 L19.2518715,22.8684686 C19.1767091,23.4882551 18.6490572,23.9428662 18.0398783,23.9428662 C17.9904772,23.9428662 17.9410761,23.9398355 17.8904628,23.9340771 C17.220366,23.851944 16.7433274,23.242462 16.8245512,22.5723653 L17.5443522,16.6790898 C17.6261822,16.00869 18.2344518,15.5310452 18.9054578,15.6131783 C19.5761608,15.6953114 20.0528963,16.3047934 19.9713694,16.9748901 Z M4.71249882,13.0652345 L5.74082916,6.41669852 C5.84932968,5.71690048 6.53458017,5.1028724 7.20710155,5.1028724 L8.4797096,5.1028724 C8.83794316,5.72084044 9.50409998,6.13726422 10.2699682,6.13726422 L15.9713977,6.13726422 C16.7369628,6.13726422 17.4034227,5.72084044 17.7613532,5.1028724 L19.180043,5.1028724 C19.8483213,5.1028724 20.522055,5.71174822 20.6220694,6.406394 L21.5840265,13.0652345 L4.71249882,13.0652345 L4.71249882,13.0652345 Z" id="Shape" fill-rule="nonzero"></path>
            </g>
        </g>
    </g>
</svg>
