
<svg width="42px" height="42px" viewBox="0 0 42 42" version="1.1" xmlns="http://www.w3.org/2000/svg" xmlns:xlink="http://www.w3.org/1999/xlink">
    <!-- Generator: Sketch 54.1 (76490) - https://sketchapp.com -->
    <title>Combined Shape</title>
    <desc>Created with Sketch.</desc>
    <g id="Landing-Page" stroke="none" stroke-width="1" fill="none" fill-rule="evenodd">
        <g id="iPhone-8-Plus-Copy-8" transform="translate(-31.000000, -214.000000)" fill="#EF5350">
            <path d="M51.769231,255.538462 C40.2987015,255.538462 31,246.239761 31,234.769231 C31,223.298701 40.2987015,214 51.769231,214 C63.2397605,214 72.538462,223.298701 72.538462,234.769231 C72.538462,246.239761 63.2397605,255.538462 51.769231,255.538462 Z M54.8284273,235 L61.1923885,228.636039 C61.9734371,227.854991 61.9734371,226.588661 61.1923885,225.807612 C60.4113399,225.026563 59.1450099,225.026563 58.3639614,225.807612 L52.0000002,232.171573 L45.6360391,225.807612 C44.8549905,225.026563 43.5886605,225.026563 42.807612,225.807612 C42.0265634,226.588661 42.0265634,227.854991 42.807612,228.636039 L49.1715731,235 L42.8076122,241.363961 C42.0265636,242.14501 42.0265636,243.41134 42.8076122,244.192388 C43.5886607,244.973437 44.8549907,244.973437 45.6360393,244.192388 L52.0000002,237.828427 L58.3639611,244.192388 C59.1450097,244.973437 60.4113397,244.973437 61.1923883,244.192388 C61.9734369,243.41134 61.9734369,242.14501 61.1923883,241.363961 L54.8284273,235 Z" id="Combined-Shape"></path>
        </g>
    </g>
</svg>
