<?xml version="1.0" encoding="UTF-8"?>
<svg width="70px" height="69px" viewBox="0 0 70 69" version="1.1" xmlns="http://www.w3.org/2000/svg" xmlns:xlink="http://www.w3.org/1999/xlink">
    <!-- Generator: Sketch 54.1 (76490) - https://sketchapp.com -->
    <title>Group 5</title>
    <desc>Created with Sketch.</desc>
    <g id="Page-1" stroke="none" stroke-width="1" fill="none" fill-rule="evenodd">
        <g id="iPhone-8-Plus-Copy-5" transform="translate(-212.000000, -297.000000)">
            <g id="Group-2" transform="translate(54.000000, 297.000000)">
                <g id="Group-5" transform="translate(158.962025, 0.000000)">
                    <circle id="Oval-Copy-3" fill="#E69334" cx="34.5" cy="34.5" r="34.5"></circle>
                    <path d="M34.0376325,55.0002405 C25.9480956,55.0002793 18.6550869,50.1272846 15.5593372,42.6535345 C12.4635875,35.1797844 14.1747546,26.5771127 19.894921,20.8569463 C25.6150873,15.1367799 34.2177591,13.4256128 41.6915092,16.5213625 C49.1652593,19.6171122 54.038254,26.9101209 54.0382152,34.9996578 C54.0255665,46.0404311 45.0784058,54.9875919 34.0376325,55.0002405 Z M34.0376325,16.5989297 C23.875244,16.5988767 15.6369574,24.8370773 15.6369044,34.9994658 C15.6368514,45.1618543 23.875052,53.4001409 34.0374405,53.4001939 C44.199829,53.4002469 52.4381155,45.1620463 52.4381686,34.9996578 C52.4266815,24.8420531 44.195237,16.6105228 34.0376325,16.5989297 Z M25.4965477,28.244337 C25.4049862,28.5966454 25.088069,28.8434278 24.7240652,28.8458665 C24.4725561,28.8445553 24.2360997,28.7258221 24.0848305,28.5248839 C23.9335614,28.3239456 23.8848493,28.0638758 23.9531427,27.8218127 C24.4150919,26.1259536 25.9551718,24.9492736 27.7128222,24.9492736 C29.4704727,24.9492736 31.0105526,26.1259536 31.4725018,27.8218127 C31.5533088,28.0992629 31.478244,28.3987272 31.2761207,28.6052571 C31.0739975,28.811787 30.7762215,28.8932921 30.4970933,28.8184868 C30.217965,28.7436815 30.0008552,28.5241891 29.9291008,28.244261 C29.6575763,27.2438017 28.7494457,26.5492987 27.7127952,26.5493165 C26.6761446,26.5493343 25.7680379,27.2438684 25.4965477,28.244337 Z M40.3621207,24.949269 C42.1188756,24.9516527 43.6575575,26.1273947 44.1213903,27.8218127 C44.20225,28.0992806 44.1272075,28.3987894 43.9250728,28.6053525 C43.7229382,28.8119156 43.4251258,28.8934304 43.1459709,28.818602 C42.866816,28.7437735 42.649703,28.5242312 42.5779853,28.244261 C42.3064507,27.2438183 41.3983289,26.5493317 40.3616917,26.5493494 C39.3250545,26.5493672 38.4169564,27.2438849 38.1454562,28.244337 C38.0538935,28.5966446 37.736977,28.8434264 37.3729737,28.8458665 C37.121464,28.8445569 36.8850065,28.7258241 36.733737,28.5248854 C36.5824674,28.3239467 36.5337561,28.0638759 36.6020512,27.8218127 C37.0660565,26.1271717 38.6051049,24.9513998 40.3621207,24.949269 Z M34.0374405,32.7692768 C46.7784357,32.7692768 46.7784357,34.3394426 46.7784357,35.0101421 C46.7784357,42.0469077 41.0740101,47.7513333 34.0372445,47.7513333 C27.0004789,47.7513333 21.2960533,42.0469077 21.2960533,35.0101421 C21.2960533,34.3394426 21.2960533,32.7692768 34.0374405,32.7692768 Z M45.174873,35.2828261 C42.808396,34.080059 25.2660809,34.080255 22.899612,35.2828341 C22.9206969,36.1328062 23.0393814,36.9775405 23.2533303,37.8004154 C26.8272251,37.3084848 30.4296943,37.052998 34.0372445,37.0356211 C37.6447911,37.0530132 41.2472565,37.3084973 44.8211507,37.8004074 C45.0350036,36.9775132 45.1536879,36.1327902 45.174873,35.2828261 Z M34.0374405,46.1511147 C38.5126839,46.1457783 42.5515833,43.4665847 44.2967434,39.3456324 C40.8945438,38.9024531 37.4681348,38.6706869 34.0372445,38.6516682 C30.6063606,38.670666 27.1799573,38.9024269 23.7777656,39.3456164 C25.522966,43.4667057 29.5620551,46.1459343 34.0374405,46.1511147 Z" id="Combined-Shape" stroke="#FFFFFF" stroke-width="0.5" fill="#FFFFFF" fill-rule="nonzero" transform="translate(34.037244, 34.999269) rotate(-20.000000) translate(-34.037244, -34.999269) "></path>
                </g>
            </g>
        </g>
    </g>
</svg>