<?xml version="1.0" encoding="UTF-8"?>
<svg width="70px" height="69px" viewBox="0 0 70 69" version="1.1" xmlns="http://www.w3.org/2000/svg" xmlns:xlink="http://www.w3.org/1999/xlink">
    <!-- Generator: Sketch 54.1 (76490) - https://sketchapp.com -->
    <title>Group 4</title>
    <desc>Created with Sketch.</desc>
    <g id="Page-1" stroke="none" stroke-width="1" fill="none" fill-rule="evenodd">
        <g id="iPhone-8-Plus-Copy-5" transform="translate(-134.000000, -297.000000)">
            <g id="Group-2" transform="translate(54.000000, 297.000000)">
                <g id="Group-4" transform="translate(80.354430, 0.000000)">
                    <circle id="Oval-Copy-4" fill="#E69334" cx="34.5" cy="34.5" r="34.5"></circle>
                    <path d="M48.3014194,17.2344342 C48.3011678,17.2339311 48.3011678,17.2339311 48.3009163,17.233428 C48.3009163,17.233428 48.3001617,17.2329249 48.3004132,17.2329249 C48.2709831,17.188151 48.2350131,17.1484079 48.1945153,17.1152048 C48.1942638,17.1152048 48.1942638,17.1152048 48.1942638,17.1152048 C48.1940122,17.1152048 48.1937607,17.1147017 48.1937607,17.1147017 C48.1935091,17.1147017 48.1935091,17.1147017 48.1935091,17.1147017 C48.193006,17.1136955 48.193006,17.1147017 48.192503,17.1136955 L48.1922514,17.1136955 C48.1769076,17.1011186 48.1605576,17.0895478 48.1437044,17.0789832 C48.1432013,17.0789832 48.1426983,17.0784801 48.1426983,17.0784801 C48.1424467,17.077977 48.1421952,17.077977 48.1419437,17.077977 C48.1419437,17.077977 48.1419437,17.077977 48.1416922,17.077977 C48.1411891,17.0769708 48.1409376,17.0774739 48.1409376,17.0774739 C48.140686,17.0769708 48.1404345,17.0769708 48.1404345,17.0769708 C48.1401829,17.0769708 48.1401829,17.0769708 48.1399314,17.0764677 C48.1399314,17.0764677 48.1396798,17.0764677 48.1394283,17.0764677 C48.1394283,17.0764677 48.1391767,17.0764677 48.1391767,17.0759646 L48.1389252,17.0759646 C48.1381706,17.0754615 48.1376675,17.0754615 48.1369129,17.0749585 C48.1366613,17.0749585 48.1366613,17.0744554 48.1359067,17.0744554 C48.1356552,17.0739523 48.1354036,17.0739523 48.1351522,17.0739523 C48.1349006,17.0734492 48.1346491,17.0734492 48.1343976,17.0734492 C48.134146,17.0729461 48.1338945,17.0729461 48.133643,17.0729461 L48.1333914,17.0729461 C48.1298698,17.0704309 48.1263483,17.0684186 48.1228268,17.0664062 L48.1225752,17.0664062 C48.1223237,17.0664062 48.1220721,17.0664062 48.1218206,17.0659031 L48.1210661,17.0654 C48.1208145,17.0654 48.1208145,17.0654 48.120563,17.0654 C48.120563,17.0654 48.1200599,17.0648969 48.1195568,17.0648969 C48.1195568,17.0648969 48.1193053,17.0643938 48.1190537,17.0643938 C48.1190537,17.0643938 48.1188022,17.0643938 48.1185506,17.0643938 L48.1182991,17.0638908 C48.1180475,17.0638908 48.117796,17.0638908 48.117796,17.0638908 C48.1172929,17.0638908 48.1167898,17.0633877 48.1167898,17.0633877 C48.1165383,17.0628847 48.1165383,17.0628847 48.1165383,17.0628847 C48.1162867,17.0628847 48.1160352,17.0628847 48.1157837,17.0623816 L48.1155321,17.0623816 C48.1152806,17.0623816 48.115029,17.0623816 48.1147775,17.0618785 C48.1142745,17.0618785 48.114023,17.0618785 48.1137714,17.0613754 C48.0954091,17.0518169 48.0767952,17.0432646 48.0576783,17.0357184 C48.0574267,17.0357184 48.0571752,17.0352153 48.0569237,17.0352153 L48.0566721,17.0352153 C48.0549113,17.0352153 48.056169,17.0347122 48.055666,17.0347122 L48.0554144,17.0347122 C48.0018366,17.0140862 47.9444858,17.0020123 47.8853741,17 C47.8851226,17 47.884871,17 47.884368,17 L47.8841164,17 C47.8838649,17 47.8836134,17 47.8833619,17 C47.8828588,17 47.8828588,17 47.8823557,17 C47.8780795,17 47.8768218,17.0040246 47.8687726,17 L23.495918,17 C23.4420887,17 23.3887625,17.0085523 23.3377001,17.0246508 C19.8732559,18.1424893 17.8652214,24.522017 17.7812075,24.7931759 C17.732912,24.94913 17.761839,25.1191702 17.858933,25.2509766 C17.956027,25.3827829 18.1099687,25.4602569 18.273469,25.4602569 L21.9706809,25.4602569 C21.2529778,26.5311834 20.6290986,27.85978 20.0795177,29.496952 C19.1556156,32.2482836 18.6872503,35.2456203 18.6872503,38.4064572 L18.6872503,49.1018881 C18.6872503,50.1467804 19.5372,50.9969816 20.5820923,50.9969816 L45.1857022,50.9969816 C45.19045,50.9971073 45.1949463,51 45.1996941,51 C45.2658803,51 45.3302742,50.9836185 45.3919641,50.9585275 C45.4058302,50.9529937 45.4170236,50.9441269 45.4302609,50.9374297 C45.4608543,50.9218657 45.4929255,50.9096975 45.5204061,50.8878137 L49.5988566,47.6449751 C50.747886,46.7253492 51.4466609,45.3479225 51.5163371,43.8643465 C52.3871645,24.6910511 48.5013927,17.5850793 48.3182725,17.2621034 C48.3129901,17.252545 48.3074563,17.2434896 48.3014194,17.2344342 Z M32.8221917,18.030303 L37.4147247,18.030303 C35.9272184,19.7795983 32.8877804,24.0590599 32.3573794,30.3511778 L27.2212081,30.3511778 C27.5236835,28.3811572 28.8113107,21.7822247 32.8221917,18.030303 Z M38.8044452,18.030303 L46.2604333,18.030303 C44.4687223,19.863518 43.475647,23.2562736 43.1738004,24.4299539 L34.8165172,24.4299539 C36.2611361,20.8179821 38.2843887,18.5701054 38.8044452,18.030303 Z M23.5804351,18.030303 L31.3682658,18.030303 C29.6432754,19.9239502 28.4674886,22.2674431 27.6735692,24.4299539 L18.9966431,24.4299539 C19.5839862,22.83067 21.2529463,18.8523319 23.5804351,18.030303 Z M19.7175533,49.101888 L19.7175533,38.4064571 C19.7175533,35.3573035 20.1678078,32.4701408 21.0562429,29.8249586 C21.682606,27.9582575 22.4006551,26.5307118 23.2435617,25.4602569 L27.3184278,25.4602569 C26.3982045,28.3068589 26.1378618,30.6262984 26.1182103,30.811997 C26.1028664,30.9573864 26.1499042,31.1022727 26.2477528,31.2109375 C26.3453499,31.3196023 26.4844509,31.3814808 26.6305949,31.3814808 L32.8360577,31.3814808 C33.1079712,31.3814808 33.3330985,31.1701882 33.3502031,30.8985263 C33.4777647,28.8605587 33.8943759,27.0275953 34.4456232,25.4228719 C34.5033829,25.4452589 34.5651042,25.4602569 34.6307872,25.4602569 L43.5785263,25.4602569 C43.8200036,25.4602569 44.0290324,25.292732 44.0813524,25.0567886 C44.4161506,23.5525864 45.6190093,19.727687 47.4436719,18.3502604 C47.7907955,22.0071319 47.4846728,26.7013495 47.0922722,28.4138258 C46.8505434,29.4360795 46.4168904,30.4125533 46.0287661,31.2486683 C44.1835716,35.2492676 44.5508497,47.2316025 44.6613067,49.9666785 L20.5820923,49.9666785 C20.1054262,49.9666785 19.7175533,49.5788056 19.7175533,49.101888 Z M50.4870402,43.8170573 C50.4314501,45.0038174 49.8730339,46.1055575 48.9561749,46.8395478 L45.6743478,49.4490116 C45.5586399,46.076379 45.3269727,35.2300249 46.9639874,31.6813151 C47.372738,30.8004261 47.8310417,29.7666015 48.0956605,28.6477568 C48.4166241,27.2471887 48.6787275,24.1165364 48.6196159,21.0175781 C49.6941898,24.7634943 51.0248302,31.9776279 50.4870402,43.8170573 Z" id="Shape" stroke="#FFFFFF" stroke-width="0.5" fill="#FFFFFF" fill-rule="nonzero"></path>
                </g>
            </g>
        </g>
    </g>
</svg>