<?xml version="1.0" encoding="UTF-8"?>
<svg width="70px" height="69px" viewBox="0 0 70 69" version="1.1" xmlns="http://www.w3.org/2000/svg" xmlns:xlink="http://www.w3.org/1999/xlink">
    <!-- Generator: Sketch 54.1 (76490) - https://sketchapp.com -->
    <title>Group 6</title>
    <desc>Created with Sketch.</desc>
    <g id="Page-1" stroke="none" stroke-width="1" fill="none" fill-rule="evenodd">
        <g id="iPhone-8-Plus-Copy-5" transform="translate(-291.000000, -297.000000)">
            <g id="Group-2" transform="translate(54.000000, 297.000000)">
                <g id="Group-6" transform="translate(237.569620, 0.000000)">
                    <circle id="Oval-Copy-5" fill="#E69334" cx="34.5" cy="34.5" r="34.5"></circle>
                    <path d="M25.7219389,33.6475665 L22.1242967,33.6475665 L21.1564069,37.348854 L24.7522026,37.348854 L25.7219389,33.6475665 Z M31.9726381,30.5217746 C32.835036,30.5217746 33.536431,31.2231634 33.536431,32.0855614 C33.536431,32.9479593 32.835036,33.6493543 31.9726381,33.6493543 L28.9550083,33.6475665 L27.9852731,37.348854 L30.1849204,37.3506417 C31.0473183,37.3506417 31.7487133,38.0520326 31.7487133,38.9144305 C31.7487133,39.7768285 31.0473183,40.4782235 30.1849204,40.4782235 L27.1654389,40.4764378 L26.1549916,44.3322411 C25.9754719,45.0197568 25.3536659,45.5000004 24.6430167,45.5000004 C24.5097704,45.5000004 24.3765219,45.4824198 24.2469819,45.4491061 C23.8416847,45.3426945 23.5030158,45.085452 23.2920466,44.7245816 C23.0829239,44.3646309 23.025558,43.943612 23.1310365,43.5401696 L23.9342148,40.4764377 L20.3365727,40.4764377 L19.3261254,44.332241 C19.1132962,45.1483759 18.2360962,45.6582257 17.4181158,45.4491061 C17.0128186,45.3426945 16.674157,45.085452 16.4631811,44.7245816 C16.2540588,44.3646309 16.196693,43.943612 16.3021771,43.5401696 L17.105356,40.4764377 L14.9084811,40.4782234 C14.0460827,40.4782234 13.3446881,39.7768284 13.3446881,38.9144304 C13.3446881,38.0520325 14.0460827,37.3506416 14.9084811,37.3506416 L17.9233364,37.3488539 L18.8930727,33.6475685 L16.6961978,33.6493542 C15.8337994,33.6493542 15.1324116,32.9479612 15.1324116,32.0855633 C15.1324116,31.2231633 15.8337994,30.5217765 16.6961978,30.5217765 L19.7110593,30.5199929 L20.7196602,26.6688064 C20.9380299,25.835093 21.8022744,25.3372657 22.6276625,25.5519435 C23.0329525,25.658355 23.3716296,25.9155955 23.5825978,26.27647 C23.7917195,26.6364186 23.8490936,27.0574355 23.7436007,27.4608778 L22.9422761,30.5199909 L26.541773,30.5199909 L27.5503728,26.6688065 C27.7668951,25.8369427 28.6163395,25.330788 29.4583834,25.5519435 C29.8636713,25.658355 30.2023339,25.9155955 30.4133094,26.27647 C30.6224311,26.6364187 30.6798062,27.0574355 30.5743123,27.4608779 L29.7729887,30.519991 L31.9726381,30.5217746 Z M45.9388845,28.8486896 C53.3907742,19.4515094 65.6448483,31.3923669 46.3183664,45.3759505 C46.0897774,45.5413476 45.7717429,45.5413517 45.5431498,45.3759629 C26.2166763,31.3931298 38.4707483,19.4515083 45.9226401,28.8486896 L45.9388845,28.8486896 Z" id="Combined-Shape" fill="#FFFFFF" fill-rule="nonzero"></path>
                </g>
            </g>
        </g>
    </g>
</svg>