<?xml version="1.0" encoding="UTF-8"?>
<svg width="69px" height="69px" viewBox="0 0 69 69" version="1.1" xmlns="http://www.w3.org/2000/svg" xmlns:xlink="http://www.w3.org/1999/xlink">
    <!-- Generator: Sketch 54.1 (76490) - https://sketchapp.com -->
    <title>Group 3</title>
    <desc>Created with Sketch.</desc>
    <g id="Page-1" stroke="none" stroke-width="1" fill="none" fill-rule="evenodd">
        <g id="iPhone-8-Plus-Copy-5" transform="translate(-54.000000, -297.000000)">
            <g id="Group-2" transform="translate(54.000000, 297.000000)">
                <g id="Group-3">
                    <circle id="Oval" fill="#E69334" cx="34.5" cy="34.5" r="34.5"></circle>
                    <path d="M33.934345,42.3411208 C34.9255559,42.3411208 35.7316707,43.1472356 35.7316707,44.1379207 L35.7316707,45.0244892 C35.7316707,46.0157002 34.9255559,46.8218149 33.934345,46.8218149 L33.0477764,46.8218149 C32.0570913,46.8218149 31.2509765,46.0157002 31.2509765,45.0244892 L31.2509765,44.1379207 C31.2509765,43.1472356 32.0570913,42.3411208 33.0477764,42.3411208 L33.934345,42.3411208 Z M34.1162861,45.0244892 L34.1162861,44.1379206 C34.1162861,44.0380108 34.0347807,43.9565054 33.934345,43.9565054 L33.0477765,43.9565054 C32.9478666,43.9565054 32.8663612,44.0380108 32.8663612,44.1379206 L32.8663612,45.0244892 C32.8663612,45.1249248 32.9478666,45.2064303 33.0477765,45.2064303 L33.934345,45.2064303 C34.0347807,45.2064303 34.1162861,45.1249248 34.1162861,45.0244892 Z M31.8704177,19.1720253 C31.4245042,19.1720253 31.0627254,18.8102464 31.0627254,18.3643329 C31.0627254,17.9184195 31.4245042,17.5566406 31.8704177,17.5566406 L35.1122296,17.5566406 C35.558143,17.5566406 35.9199219,17.9184195 35.9199219,18.3643329 C35.9199219,18.8102464 35.558143,19.1720253 35.1122296,19.1720253 L31.8704177,19.1720253 Z M44.0141977,32.7371545 C44.216318,33.1173378 44.411208,33.480957 44.5952525,33.8240686 C46.9100061,38.1385968 47.868089,39.924354 47.868089,46.298077 C47.868089,48.2164776 47.0315083,50.7434082 45.6463765,51.9688815 L46.9447116,55.9414814 C47.0251653,56.1875752 46.9825722,56.4568059 46.830604,56.6666166 C46.6786359,56.8759014 46.4356972,57 46.1769832,57 L33.6377705,57 C33.2823017,57 32.9683744,56.7675781 32.8653095,56.4273589 L31.9048274,53.271785 L30.9880559,53.271785 C30.0185359,53.271785 28.3420551,52.8447361 27.5219727,50.1388222 L26.5452224,50.1388222 C24.5727915,50.1388222 22.9679237,48.5313253 22.9679237,46.5552135 L22.9679237,40.9463925 C22.1948055,40.4440168 21.7148438,39.5933041 21.7148438,38.6413012 C21.7148438,37.9040716 22.0014274,37.2115386 22.5214844,36.6914815 C22.5216816,36.6912843 22.5218788,36.6911528 22.522076,36.6909556 C22.0157237,36.1855235 21.7148438,35.4963756 21.7148438,34.7437651 C21.7148438,34.0070614 22.0009015,33.3150542 22.5209586,32.7944713 C22.5213201,32.7941097 22.5217802,32.7938468 22.5221417,32.7934853 C22.0157565,32.2880531 21.7148438,31.5988723 21.7148438,30.8462291 C21.7148438,30.1095253 22.0009015,29.4175181 22.5209586,28.8969352 C22.5213201,28.8965737 22.5218459,28.8962779 22.5222074,28.8959164 C22.0157894,28.3903528 21.7148438,27.7013691 21.7148438,26.948693 C21.7148438,26.2119892 22.0009015,25.519982 22.5209586,24.9993991 C22.6504142,24.865934 22.8019222,24.7444317 22.9679237,24.6370944 L22.9679237,18.5772987 C22.9679237,16.6048678 24.5727915,15 26.5452224,15 L40.4374249,15 C42.4098558,15 44.0141977,16.6048678 44.0141977,18.5772987 L44.0141977,32.7371545 Z M28.1127554,38.6413011 C28.1127554,38.011869 27.6011118,37.5002254 26.9716797,37.5002253 L24.4713041,37.5002253 C24.3277494,37.5002253 24.186824,37.5249399 24.0643029,37.5722656 C23.9118089,37.6316857 23.7740385,37.720027 23.6720253,37.8251953 C23.4485427,38.0486779 23.3302284,38.3352614 23.3302284,38.6413011 C23.3302284,39.1189622 23.6185867,39.5381564 24.064533,39.7098764 C24.1881057,39.7571036 24.3288997,39.7823768 24.4713041,39.7823768 L26.9716797,39.7823768 C27.2729868,39.7823768 27.5616737,39.6619591 27.7835788,39.443735 C27.9939153,39.2328726 28.1127554,38.9462891 28.1127554,38.6413011 Z M28.1127554,34.743765 C28.1127554,34.1143329 27.6011118,33.6026893 26.9716797,33.6026893 L24.4713041,33.6026893 C24.3277494,33.6026893 24.1868239,33.6274038 24.0643029,33.6747296 C23.9118089,33.7341496 23.7740384,33.822491 23.6720252,33.9276593 C23.4485427,34.1511419 23.3302284,34.4382512 23.3302284,34.743765 C23.3302284,35.2217548 23.6189153,35.6413762 24.0653546,35.8128005 C24.1878756,35.8596004 24.3288011,35.8848408 24.4713041,35.8848408 L26.9716797,35.8848408 C27.2729868,35.8848408 27.5616737,35.7644231 27.7835788,35.5461989 C27.9939153,35.3353365 28.1127554,35.048753 28.1127554,34.743765 Z M28.1127554,30.8462289 C28.1127554,30.2167969 27.6011118,29.7051532 26.9716797,29.7051532 L24.4713041,29.7051532 C24.3277494,29.7051532 24.1868239,29.7298678 24.0643029,29.7771935 C23.9118089,29.8366136 23.7740384,29.9249549 23.6720252,30.0301232 C23.4485427,30.2536058 23.3302284,30.5407151 23.3302284,30.8462289 C23.3302284,31.3242187 23.6189153,31.7438401 24.0653546,31.9152644 C24.1878756,31.9620643 24.3288011,31.9873047 24.4713041,31.9873047 L26.9716797,31.9873047 C27.2729868,31.9873047 27.5616737,31.866887 27.7835788,31.6486629 C27.9939153,31.4378005 28.1127554,31.151217 28.1127554,30.8462289 Z M27.7841046,27.7511268 C27.9939153,27.5407903 28.1127554,27.2536809 28.1127554,26.9486929 C28.1127554,26.3192608 27.6011118,25.8076172 26.9716797,25.8076172 L24.4713041,25.8076172 C24.3277494,25.8076172 24.1868239,25.8323318 24.0643029,25.8796575 C23.9118089,25.9390776 23.7740384,26.0274189 23.6720252,26.1325872 C23.4485427,26.3560698 23.3302284,26.6431792 23.3302284,26.948693 C23.3302284,27.4266827 23.6189153,27.8463042 24.0658804,28.0187801 C24.1868239,28.0650542 24.3277494,28.0897687 24.4713041,28.0897687 L26.9716797,28.0897687 C27.2729868,28.0897687 27.5616737,27.969351 27.7841046,27.7511268 Z M24.5833083,46.5552134 C24.5833083,47.6405499 25.4635667,48.5234375 26.5452224,48.5234375 L28.1432542,48.5234375 L40.4374249,48.5234375 C40.4689754,48.5234375 40.5005259,48.5255408 40.5310247,48.5213341 C40.5425932,48.5202824 40.5872897,48.5144982 40.5983324,48.5134465 C41.6079477,48.4329928 42.3988131,47.5758714 42.3988131,46.5615234 L42.3988131,44.7641977 L38.4050481,36.414363 C38.1305589,35.8317308 38.0353816,35.1602314 38.1352915,34.5192308 L38.2373047,33.9429088 C38.2394081,33.9303872 38.2438449,33.9188515 38.2460797,33.9063956 C38.4603272,32.6905189 39.3340784,31.7266518 40.5362831,31.3967849 C40.6917021,31.3539617 40.8477784,31.3237587 41.0036246,31.3043683 C41.0462835,31.299077 41.0885151,31.300786 41.1311083,31.2972366 C41.2445586,31.2877057 41.3579102,31.2787993 41.4703417,31.2813627 C41.5187519,31.2824801 41.5659462,31.2905978 41.6140607,31.2939172 C41.7195904,31.3011475 41.8249888,31.3083449 41.9285795,31.3260263 C41.9789946,31.3346698 42.0276021,31.3498207 42.0774584,31.3608962 C42.1766452,31.3828501 42.2756019,31.4047711 42.372061,31.436223 C42.380803,31.4390822 42.3901039,31.4401339 42.3988131,31.4430589 L42.3988131,18.5772987 C42.3988131,17.495643 41.5190806,16.6153846 40.4374249,16.6153846 L26.5452224,16.6153846 C25.4635667,16.6153846 24.5833083,17.495643 24.5833084,18.5772987 L24.5833084,24.1922325 L26.9716798,24.1922325 C28.4913613,24.1922325 29.7281401,25.4290113 29.7281401,26.9486928 C29.7281401,27.6848707 29.4415566,28.3774037 28.9214995,28.8979867 C28.9209736,28.8985125 28.9209736,28.8985125 28.9209736,28.8990384 C29.1658185,29.1441462 29.3633705,29.4359224 29.5025213,29.7584932 C29.5049204,29.7640803 29.5087656,29.7688129 29.5111648,29.7744328 C29.5744958,29.923936 29.6207699,30.0818856 29.6570857,30.2434175 C29.6608324,30.2599815 29.6686214,30.2748695 29.6720394,30.291532 C29.7088154,30.4707782 29.7281401,30.6563016 29.7281401,30.8462289 C29.7281401,31.5829327 29.4415566,32.2749399 28.9209736,32.7955228 L28.9204477,32.7960487 C29.4194712,33.2950721 29.7281401,33.9839243 29.7281401,34.743765 C29.7281401,35.4804688 29.4415566,36.172476 28.9209736,36.6930589 L28.9204477,36.6935848 C29.4194712,37.1926082 29.7281401,37.8814604 29.7281401,38.6413011 C29.7281401,39.3780049 29.4415566,40.070012 28.9209736,40.590595 C28.3903997,41.1127554 27.69997,41.3977614 26.9716797,41.3977614 L24.5833083,41.3977614 L24.5833083,46.5552134 Z M34.2361779,55.3846154 L45.0632512,55.3846154 L44.2155949,52.7911659 C43.9827129,52.8810848 43.7404644,52.9553599 43.4934176,53.0204327 C43.4221661,53.0392316 43.3489427,53.0530349 43.2766066,53.0697304 C43.0689979,53.1175819 42.8578726,53.1568885 42.6424748,53.1872559 C42.5605751,53.1987587 42.4795298,53.2109187 42.3966111,53.2198581 C42.1113751,53.2507512 41.8225896,53.2717849 41.527494,53.2717849 L33.5935998,53.2717849 L34.2361779,55.3846154 Z M44.2923678,50.9696515 C45.398738,50.3386419 46.2527044,47.9413311 46.2527043,46.298077 C46.2527043,40.3303035 45.4139873,38.7664514 43.1717998,34.5875902 C42.9727689,34.2171349 42.7632211,33.8266978 42.543025,33.4124005 C42.5219585,33.3892306 42.5003333,33.3670138 42.4783137,33.3453229 C42.4530404,33.3204111 42.4279644,33.2951707 42.401508,33.2722309 C42.3715021,33.2462346 42.3400502,33.2229332 42.3085984,33.1995333 C42.2810903,33.1790255 42.2539109,33.1578275 42.225384,33.1393573 C42.1927818,33.1182579 42.158865,33.1002478 42.1250797,33.0818105 C42.095534,33.0657067 42.0663828,33.0485511 42.0359497,33.0344848 C42.0012112,33.0184138 41.9651911,33.0058265 41.9294668,32.9924833 C41.8980806,32.9807833 41.8671546,32.9677688 41.8350783,32.9582379 C41.7984666,32.9473267 41.7607703,32.9402606 41.723337,32.9321759 C41.6907349,32.9251098 41.6585599,32.9164334 41.6254319,32.9115366 C41.5861253,32.9057523 41.5459313,32.9042734 41.5059345,32.9015784 C41.4735952,32.8994093 41.4416833,32.8951369 41.4089825,32.8949725 C41.364516,32.8947753 41.3193923,32.8995408 41.2743671,32.903156 C41.245413,32.9054894 41.2167546,32.9052593 41.1876361,32.9092031 C41.1133611,32.9192598 41.0386587,32.9341806 40.9637921,32.9548527 C40.3569711,33.1215444 39.933143,33.5911207 39.8300781,34.2116136 C39.8295522,34.2147686 39.8290264,34.2173978 39.8285006,34.2205529 L39.7285907,34.7842548 C39.6807391,35.0934495 39.7280648,35.4320913 39.8642578,35.7213041 L43.9353215,44.2325721 C43.9873798,44.3414213 44.0141977,44.4607872 44.0141977,44.5812049 L44.0141977,46.5615234 C44.0141977,46.7916448 43.9918494,47.0172964 43.9492234,47.2364408 C43.6745042,48.6479962 42.5559739,49.7842736 41.1317326,50.0658617 C41.1191453,50.0683594 41.1071495,50.0723032 41.0944965,50.0746695 C41.0576548,50.0815055 41.0195312,50.0843319 40.9822951,50.0900504 C40.9074285,50.1015531 40.8329233,50.114239 40.7566106,50.1209435 C40.6498649,50.1361929 40.5441707,50.1388221 40.4374249,50.1388221 L29.2270133,50.1388221 C29.6266527,51.14686 30.2166467,51.6564003 30.9880559,51.6564003 L32.5035307,51.6564003 L41.5274941,51.6564003 C42.5628756,51.6564003 43.519381,51.41872 44.2923678,50.9696515 Z" id="Combined-Shape" fill="#FFFFFF" fill-rule="nonzero"></path>
                </g>
            </g>
        </g>
    </g>
</svg>