
<svg width="16px" height="21px" viewBox="0 0 16 21" version="1.1" xmlns="http://www.w3.org/2000/svg" xmlns:xlink="http://www.w3.org/1999/xlink">
    <!-- Generator: Sketch 54.1 (76490) - https://sketchapp.com -->
    <title>Shape</title>
    <desc>Created with Sketch.</desc>
    <g id="Landing-Page" stroke="none" stroke-width="1" fill="none" fill-rule="evenodd">
        <g id="iPhone-8-Plus-Copy-4" transform="translate(-169.000000, -45.000000)" fill="#FFFFFF">
            <path d="M183,52 L182,52 L182,50 C182,47.2 179.8,45 177,45 C174.2,45 172,47.2 172,50 L172,52 L171,52 C169.9,52 169,52.9 169,54 L169,64 C169,65.1 169.9,66 171,66 L183,66 C184.1,66 185,65.1 185,64 L185,54 C185,52.9 184.1,52 183,52 L183,52 Z M177,61 C175.9,61 175,60.1 175,59 C175,57.9 175.9,57 177,57 C178.1,57 179,57.9 179,59 C179,60.1 178.1,61 177,61 L177,61 Z M180.1,52 L173.9,52 L173.9,50 C173.9,48.3 175.3,46.9 177,46.9 C178.7,46.9 180.1,48.3 180.1,50 L180.1,52 L180.1,52 Z" id="Shape"></path>
        </g>
    </g>
</svg>
