
<svg width="22px" height="28px" viewBox="0 0 22 28" version="1.1" xmlns="http://www.w3.org/2000/svg" xmlns:xlink="http://www.w3.org/1999/xlink">
    <!-- Generator: Sketch 54.1 (76490) - https://sketchapp.com -->
    <title>Shape</title>
    <desc>Created with Sketch.</desc>
    <g id="Landing-Page" stroke="none" stroke-width="1" fill="none" fill-rule="evenodd">
        <g id="iPhone-8-Plus-Copy-4" transform="translate(-196.000000, -591.000000)" fill="#FFFFFF">
            <g id="Group" transform="translate(20.000000, 500.000000)">
                <path d="M194.666667,100.333333 L193.333333,100.333333 L193.333333,97.6666667 C193.333333,93.9333333 190.4,91 186.666667,91 C182.933333,91 180,93.9333333 180,97.6666667 L180,100.333333 L178.666667,100.333333 C177.2,100.333333 176,101.533333 176,103 L176,116.333333 C176,117.8 177.2,119 178.666667,119 L194.666667,119 C196.133333,119 197.333333,117.8 197.333333,116.333333 L197.333333,103 C197.333333,101.533333 196.133333,100.333333 194.666667,100.333333 L194.666667,100.333333 Z M186.666667,112.333333 C185.2,112.333333 184,111.133333 184,109.666667 C184,108.2 185.2,107 186.666667,107 C188.133333,107 189.333333,108.2 189.333333,109.666667 C189.333333,111.133333 188.133333,112.333333 186.666667,112.333333 L186.666667,112.333333 Z M190.8,100.333333 L182.533333,100.333333 L182.533333,97.6666667 C182.533333,95.4 184.4,93.5333333 186.666667,93.5333333 C188.933333,93.5333333 190.8,95.4 190.8,97.6666667 L190.8,100.333333 L190.8,100.333333 Z" id="Shape"></path>
            </g>
        </g>
    </g>
</svg>
