
<svg width="17px" height="22px" viewBox="0 0 17 22" version="1.1" xmlns="http://www.w3.org/2000/svg" xmlns:xlink="http://www.w3.org/1999/xlink">
    <!-- Generator: Sketch 54.1 (76490) - https://sketchapp.com -->
    <title>Icon</title>
    <desc>Created with Sketch.</desc>
    <g id="Landing-Page" stroke="none" stroke-width="1" fill="none" fill-rule="evenodd">
        <g id="iPhone-8-Plus-Copy-4" transform="translate(-236.000000, -346.000000)" fill="#FFFFFF">
            <g id="Group" transform="translate(21.000000, 136.000000)">
                <path d="M229.211071,217.664324 L228.243255,217.664324 L228.243255,215.728692 C228.243255,213.05752 226.075347,210.889612 223.404175,210.889612 C220.733003,210.889612 218.565095,213.05752 218.565095,215.728692 L218.565095,217.664324 L217.59728,217.664324 C216.532682,217.664324 215.661648,218.535358 215.661648,219.599955 L215.661648,229.278115 C215.661648,230.342712 216.532682,231.213746 217.59728,231.213746 L229.211071,231.213746 C230.275668,231.213746 231.146702,230.342712 231.146702,229.278115 L231.146702,219.599955 C231.146702,218.535358 230.275668,217.664324 229.211071,217.664324 L229.211071,217.664324 Z M223.404175,226.374667 C222.339578,226.374667 221.468543,225.503632 221.468543,224.439035 C221.468543,223.374437 222.339578,222.503403 223.404175,222.503403 C224.468773,222.503403 225.339807,223.374437 225.339807,224.439035 C225.339807,225.503632 224.468773,226.374667 223.404175,226.374667 L223.404175,226.374667 Z M226.404404,217.664324 L220.403946,217.664324 L220.403946,215.728692 C220.403946,214.073726 221.74921,212.728462 223.404175,212.728462 C225.05914,212.728462 226.404404,214.073726 226.404404,215.728692 L226.404404,217.664324 L226.404404,217.664324 Z" id="Icon"></path>
            </g>
        </g>
    </g>
</svg>
