
<svg width="22px" height="28px" viewBox="0 0 22 28" version="1.1" xmlns="http://www.w3.org/2000/svg" xmlns:xlink="http://www.w3.org/1999/xlink">
    <!-- Generator: Sketch 54.1 (76490) - https://sketchapp.com -->
    <title>Shape</title>
    <desc>Created with Sketch.</desc>
    <g id="Onboarding" stroke="none" stroke-width="1" fill="none" fill-rule="evenodd">
        <g id="iPhone-8-Plus-Copy-8" transform="translate(-196.000000, -571.000000)" fill="#FFFFFF">
            <path d="M214.666667,580.333333 L213.333333,580.333333 L213.333333,577.666667 C213.333333,573.933333 210.4,571 206.666667,571 C202.933333,571 200,573.933333 200,577.666667 L200,580.333333 L198.666667,580.333333 C197.2,580.333333 196,581.533333 196,583 L196,596.333333 C196,597.8 197.2,599 198.666667,599 L214.666667,599 C216.133333,599 217.333333,597.8 217.333333,596.333333 L217.333333,583 C217.333333,581.533333 216.133333,580.333333 214.666667,580.333333 L214.666667,580.333333 Z M206.666667,592.333333 C205.2,592.333333 204,591.133333 204,589.666667 C204,588.2 205.2,587 206.666667,587 C208.133333,587 209.333333,588.2 209.333333,589.666667 C209.333333,591.133333 208.133333,592.333333 206.666667,592.333333 L206.666667,592.333333 Z M210.8,580.333333 L202.533333,580.333333 L202.533333,577.666667 C202.533333,575.4 204.4,573.533333 206.666667,573.533333 C208.933333,573.533333 210.8,575.4 210.8,577.666667 L210.8,580.333333 L210.8,580.333333 Z" id="Shape"></path>
        </g>
    </g>
</svg>
