
<svg width="22px" height="27px" viewBox="0 0 22 27" version="1.1" xmlns="http://www.w3.org/2000/svg" xmlns:xlink="http://www.w3.org/1999/xlink">
    <!-- Generator: Sketch 54.1 (76490) - https://sketchapp.com -->
    <title>Fill 2800</title>
    <desc>Created with Sketch.</desc>
    <g id="Onboarding" stroke="none" stroke-width="1" fill="none" fill-rule="evenodd">
        <g id="iPhone-8-Plus-Copy-3" transform="translate(-353.000000, -288.000000)" fill="#FFFFFF">
            <g id="Group" transform="translate(20.000000, 265.000000)">
                <path d="M343.539865,39.6418919 C340.174874,39.6418919 337.437838,36.9048554 337.437838,33.5398649 C337.437838,30.1748743 340.174874,27.4378378 343.539865,27.4378378 C346.904855,27.4378378 349.641892,30.1748743 349.641892,33.5398649 C349.641892,36.9048554 346.904855,39.6418919 343.539865,39.6418919 M343.539865,23 C337.531032,23 333,27.7695662 333,34.0945946 C333,42.0527473 342.798746,49.2209648 343.214793,49.5216284 C343.311316,49.5926338 343.4267,49.627027 343.539865,49.627027 C343.654139,49.627027 343.768414,49.5926338 343.864936,49.5216284 C344.282093,49.2209648 354.07973,42.0527473 354.07973,34.0945946 C354.07973,27.7695662 349.548697,23 343.539865,23" id="Fill-2800"></path>
            </g>
        </g>
    </g>
</svg>
