
<svg width="16px" height="20px" viewBox="0 0 16 20" version="1.1" xmlns="http://www.w3.org/2000/svg" xmlns:xlink="http://www.w3.org/1999/xlink">
    <!-- Generator: Sketch 54.1 (76490) - https://sketchapp.com -->
    <title>Fill 2800</title>
    <desc>Created with Sketch.</desc>
    <g id="Landing" stroke="none" stroke-width="1" fill="none" fill-rule="evenodd">
        <g id="iPhone-8-Plus-Copy-3" transform="translate(-48.000000, -161.000000)" fill="#4A4A4A">
            <path d="M55.7690315,173.266892 C53.288666,173.266892 51.2711712,171.249397 51.2711712,168.769032 C51.2711712,166.288666 53.288666,164.271171 55.7690315,164.271171 C58.2493971,164.271171 60.2668919,166.288666 60.2668919,168.769032 C60.2668919,171.249397 58.2493971,173.266892 55.7690315,173.266892 M55.7690315,161 C51.3398658,161 48,164.515691 48,169.177928 C48,175.043956 55.2227459,180.327715 55.5294182,180.549337 C55.6005662,180.601675 55.6856167,180.627027 55.7690315,180.627027 C55.8532642,180.627027 55.9374968,180.601675 56.0086448,180.549337 C56.3161349,180.327715 63.538063,175.043956 63.538063,169.177928 C63.538063,164.515691 60.1981973,161 55.7690315,161" id="Fill-2800"></path>
        </g>
    </g>
</svg>
