
<svg width="36px" height="37px" viewBox="0 0 36 37" version="1.1" xmlns="http://www.w3.org/2000/svg" xmlns:xlink="http://www.w3.org/1999/xlink">
    <!-- Generator: Sketch 54.1 (76490) - https://sketchapp.com -->
    <title>Combined Shape</title>
    <desc>Created with Sketch.</desc>
    <g id="Landing-Page" stroke="none" stroke-width="1" fill="none" fill-rule="evenodd">
        <g id="iPhone-8-Plus-Copy" transform="translate(-173.000000, -657.000000)" fill="#16A085" fill-rule="nonzero">
            <g id="Group-4" transform="translate(160.000000, 645.000000)">
                <path d="M43.636,21.324 L48.076,25.764 C48.668,26.356 48.668,27.244 48.076,27.836 L43.636,32.276 C43.636,32.35 43.562,32.35 43.488,32.424 C42.896,32.942 41.934,32.868 41.416,32.276 C40.898,31.684 40.972,30.722 41.564,30.204 L43.488,28.28 L36.68,28.28 C35.866,28.28 35.2,27.614 35.2,26.8 C35.2,25.986 35.866,25.32 36.68,25.32 L43.488,25.32 L41.564,23.396 C41.12,22.878 41.12,21.99 41.564,21.472 C42.082,20.88 43.044,20.806 43.636,21.324 Z M13,36.79 L13,16.44 C13,13.998 14.998,12 17.44,12 L33.72,12 C36.162,12 38.16,13.998 38.16,16.44 L38.16,19.4 C38.16,20.214 37.494,20.88 36.68,20.88 C35.866,20.88 35.2,20.214 35.2,19.4 L35.2,16.44 C35.2,15.626 34.534,14.96 33.72,14.96 L21.288,14.96 L31.278,19.548 C31.796,19.77 32.166,20.288 32.166,20.88 L32.166,38.64 L33.646,38.64 C34.46,38.64 35.126,37.974 35.126,37.16 L35.126,34.2 C35.126,33.386 35.792,32.72 36.606,32.72 C37.42,32.72 38.086,33.386 38.086,34.2 L38.086,37.16 C38.086,39.602 36.088,41.6 33.646,41.6 L32.166,41.6 L32.166,47.52 C32.166,48.334 31.5,49 30.686,49 C30.464,49 30.316,48.926 30.094,48.852 L16.848,42.784 C14.554,41.748 13,39.38 13,36.79 Z M15.96,16.44 C15.96,16.44 15.96,36.79 15.96,36.79 C15.96,38.27 16.848,39.528 18.106,40.12 L29.28,45.226 L29.28,21.842 L16.108,15.848 C16.034,15.996 15.96,16.218 15.96,16.44 Z" id="Combined-Shape" transform="translate(30.760000, 30.500000) scale(-1, 1) translate(-30.760000, -30.500000) "></path>
            </g>
        </g>
    </g>
</svg>
