
<svg width="37px" height="37px" viewBox="0 0 37 37" version="1.1" xmlns="http://www.w3.org/2000/svg" xmlns:xlink="http://www.w3.org/1999/xlink">
    <!-- Generator: Sketch 54.1 (76490) - https://sketchapp.com -->
    <title>Combined Shape</title>
    <desc>Created with Sketch.</desc>
    <g id="Landing-Page" stroke="none" stroke-width="1" fill="none" fill-rule="evenodd">
        <g id="iPhone-8-Plus-Copy" transform="translate(-99.000000, -120.000000)" fill="#FFFFFF">
            <g id="Add-Cash" transform="translate(99.000000, 120.000000)">
                <path d="M8,0 L29,0 C33.418278,-8.11624501e-16 37,3.581722 37,8 L37,29 C37,33.418278 33.418278,37 29,37 L8,37 C3.581722,37 5.41083001e-16,33.418278 0,29 L0,8 C-5.41083001e-16,3.581722 3.581722,8.11624501e-16 8,0 Z M20.1072872,17.3231917 L21.4398404,17.3231917 L21.4398404,20.1459119 L21.1819269,20.1459119 L20.1072872,17.3231917 Z M17.3418811,20.1459119 L15.7800714,20.1459119 L15.7800714,17.3231917 L16.2529129,17.3231917 L17.3418811,20.1459119 Z M17.9866649,22.4528051 L20.9096848,29.3448276 L24.9789871,29.3448276 L24.9789871,22.4528051 L27.2715517,22.4528051 L27.2715517,20.1459119 L24.9789871,20.1459119 L24.9789871,17.3231917 L27.2715517,17.3231917 L27.2715517,15.030627 L24.9789871,15.030627 L24.9789871,8.13860453 L21.4398404,8.13860453 L21.4398404,15.030627 L19.4625034,15.030627 L16.5108264,8.13860453 L12.2552532,8.13860453 L12.2552532,15.030627 L9.94836005,15.030627 L9.94836005,17.3231917 L12.2552532,17.3231917 L12.2552532,20.1459119 L9.94836005,20.1459119 L9.94836005,22.4528051 L12.2552532,22.4528051 L12.2552532,29.3448276 L15.7800714,29.3448276 L15.7800714,22.4528051 L17.9866649,22.4528051 Z" id="Combined-Shape"></path>
            </g>
        </g>
    </g>
</svg>
