
<svg width="111px" height="20px" viewBox="0 0 111 20" version="1.1" xmlns="http://www.w3.org/2000/svg" xmlns:xlink="http://www.w3.org/1999/xlink">
    <!-- Generator: Sketch 54.1 (76490) - https://sketchapp.com -->
    <title>Group 3</title>
    <desc>Created with Sketch.</desc>
    <g id="Onboarding" stroke="none" stroke-width="1" fill="none" fill-rule="evenodd">
        <g id="iPhone-8-Plus-Copy-4" transform="translate(-151.000000, -692.000000)" fill="#FFFFFF">
            <g id="Group-3" transform="translate(151.000000, 692.000000)">
                <text id="Need-Help?" font-family="Montserrat-Regular, Montserrat" font-size="16" font-weight="normal">
                    <tspan x="20" y="16">Need Help?</tspan>
                </text>
                <path d="M12.8638521,-1.77635684e-14 C16.5343521,-1.77635684e-14 16.5343521,1.65075 16.5343521,3.70625 C16.5343521,5.5965 16.5343521,7.384 13.7183521,7.384 C13.2401021,8.2085 12.2661021,8.766 11.2818521,8.79 C11.6613521,8.59225 11.9633521,8.28775 12.0973521,7.925 C12.1593521,7.75925 12.2033521,7.384 12.0086021,7.384 C9.19360205,7.384 9.19360205,5.5965 9.19360205,3.70625 C9.19360205,1.65075 9.19360205,-1.77635684e-14 12.8638521,-1.77635684e-14 Z M13.1886021,5.9165 C13.2806021,5.83475 13.3263521,5.72275 13.3263521,5.57975 C13.3263521,5.45325 13.2808521,5.34525 13.1898521,5.25725 C13.0998521,5.16775 12.9896021,5.12375 12.8608521,5.12375 C12.7323521,5.12375 12.6238521,5.16775 12.5351021,5.25725 C12.4461021,5.34525 12.4016021,5.45325 12.4016021,5.57975 C12.4016021,5.7245 12.4486021,5.83725 12.5408521,5.9185 C12.6341021,5.99825 12.7426021,6.03925 12.8671021,6.03925 C12.9896021,6.03925 13.0971021,5.99825 13.1886021,5.9165 Z M13.3041021,2.5205 C13.3196021,2.383 13.3263521,2.2455 13.3261021,2.11075 C13.3261021,1.882 13.2958521,1.707 13.2376021,1.586 C13.1781021,1.46425 13.0606021,1.40375 12.8853521,1.40375 C12.7411021,1.40375 12.6238521,1.45075 12.5351021,1.54575 C12.4461021,1.641 12.4016021,1.77275 12.4016021,1.94225 C12.4016021,2.067 12.4106021,2.27225 12.4286021,2.558 L12.5268521,4.024 C12.5461021,4.21375 12.5766021,4.35525 12.6196021,4.44825 C12.6623521,4.5405 12.7386021,4.587 12.8483521,4.587 C12.9571021,4.587 13.0346021,4.54 13.0816021,4.44375 C13.1286021,4.348 13.1588521,4.21025 13.1728521,4.03075 L13.3041021,2.5205 Z M6.30835205,11.99475 C4.53855557,11.99475 3.10385205,10.5600465 3.10385205,8.79025 C3.10385205,7.02045352 4.53855557,5.58575 6.30835205,5.58575 C8.07814853,5.58575 9.51285205,7.02045352 9.51285205,8.79025 C9.51285205,10.5600465 8.07814853,11.99475 6.30835205,11.99475 Z M8.85360205,11.98025 C10.8721021,12.87175 12.1191021,14.9195 12.6018521,17.844 C12.8573521,19.39275 9.78460205,20 6.30885205,20 C2.83235205,20 -0.240397947,19.39275 0.0148520526,17.844 C0.497352053,14.91975 1.74435205,12.87175 3.76285205,11.9805 C4.46110205,12.53775 5.34535205,12.872 6.30835205,12.872 C7.27135205,12.872 8.15585205,12.53775 8.85360205,11.98025 Z" id="Combined-Shape" fill-rule="nonzero"></path>
            </g>
        </g>
    </g>
</svg>
