
<svg width="73px" height="73px" viewBox="0 0 73 73" version="1.1" xmlns="http://www.w3.org/2000/svg" xmlns:xlink="http://www.w3.org/1999/xlink">
    <!-- Generator: Sketch 54.1 (76490) - https://sketchapp.com -->
    <title>Group 9</title>
    <desc>Created with Sketch.</desc>
    <g id="Onboarding" stroke="none" stroke-width="1" fill="none" fill-rule="evenodd">
        <g id="iPhone-8-Plus-Copy-2" transform="translate(-311.000000, -623.000000)" fill="#FFFFFF">
            <g id="Group-9" transform="translate(347.500000, 659.500000) scale(-1, 1) translate(-347.500000, -659.500000) translate(311.000000, 623.000000)">
                <rect id="Rectangle" fill-rule="nonzero" opacity="0.300000012" x="0" y="0" width="72.3113208" height="72.3113208" rx="36.1556604"></rect>
                <path d="M25.2429351,37.4006965 C24.9599573,37.0227238 24.7924528,36.5527417 24.7924528,36.0408805 C24.7924528,35.5320421 24.9591999,35.0622903 25.2418428,34.6836613 C25.3477445,34.4314546 25.501434,34.1941068 25.7032259,33.9851451 L35.3063058,24.0408648 C36.1773053,23.1389184 37.608487,23.1079645 38.5169888,23.9852946 C39.4192006,24.8565503 39.446531,26.2919148 38.5735036,27.1959611 L32.2251142,33.7699108 L50.0618857,33.7699108 C51.3198451,33.7699108 52.3396226,34.7779143 52.3396226,36.0408805 C52.3396226,37.2951025 51.3265342,38.3118503 50.0618857,38.3118503 L32.2251142,38.3118503 L38.5735036,44.8857999 C39.446531,45.7898462 39.4192006,47.2252107 38.5169888,48.0964664 C37.608487,48.9737965 36.1773053,48.9428426 35.3063058,48.0408962 L25.7032259,38.0966159 C25.5021267,37.8883715 25.3488002,37.6519356 25.2429351,37.4006965 Z" id="Back-Arrow-(30x30)"></path>
            </g>
        </g>
    </g>
</svg>
