
<svg width="84px" height="84px" viewBox="0 0 84 84" version="1.1" xmlns="http://www.w3.org/2000/svg" xmlns:xlink="http://www.w3.org/1999/xlink">
    <!-- Generator: Sketch 54.1 (76490) - https://sketchapp.com -->
    <title>Group 6</title>
    <desc>Created with Sketch.</desc>
    <defs>
        <filter x="-23.3%" y="-23.6%" width="146.7%" height="147.3%" filterUnits="objectBoundingBox" id="filter-1">
            <feOffset dx="0" dy="2" in="SourceAlpha" result="shadowOffsetOuter1"></feOffset>
            <feGaussianBlur stdDeviation="3.5" in="shadowOffsetOuter1" result="shadowBlurOuter1"></feGaussianBlur>
            <feColorMatrix values="0 0 0 0 0   0 0 0 0 0   0 0 0 0 0  0 0 0 0.25 0" type="matrix" in="shadowBlurOuter1" result="shadowMatrixOuter1"></feColorMatrix>
            <feMerge>
                <feMergeNode in="shadowMatrixOuter1"></feMergeNode>
                <feMergeNode in="SourceGraphic"></feMergeNode>
            </feMerge>
        </filter>
    </defs>
    <g id="Landing" stroke="none" stroke-width="1" fill="none" fill-rule="evenodd">
        <g id="iPhone-8-Plus-Copy-3" transform="translate(-325.000000, -644.000000)">
            <g id="Group-2" filter="url(#filter-1)" transform="translate(332.000000, 645.000000)">
                <g id="Group-6" transform="translate(0.000000, 4.000000)">
                    <circle id="Oval" fill="#E57227" cx="35" cy="35" r="35"></circle>
                    <path d="M50.5092944,33.0368647 L48.7298125,33.0368647 L47.436176,24.0824805 C47.1157912,21.86125 45.1419711,20.1211821 42.9429841,20.1211821 L41.1162835,20.1211821 C40.6550231,19.3254883 39.7972816,18.7893023 38.8115423,18.7893023 L31.4707891,18.7893023 C30.4846596,18.7893023 29.6265278,19.3254883 29.1656576,20.1211821 L27.5270514,20.1211821 C25.3358692,20.1211821 23.3499517,21.8550063 23.0061527,24.0688222 L21.6192495,33.0368647 L19.7726468,33.0368647 C18.9305147,33.0368647 18.2472093,33.795486 18.2472093,34.7324456 C18.2472093,35.6682346 18.9305147,36.4276363 19.7726468,36.4276363 L20.4099042,36.4276363 L22.973763,48.7591338 C23.1400041,49.2535644 23.6016548,49.5860465 24.1222313,49.5860465 L46.1593197,49.5860465 C46.6802864,49.5860465 47.1431078,49.2531741 47.3081782,48.7591338 L49.8724272,36.4276363 L50.5089042,36.4276363 C51.3518167,36.4276363 52.0343416,35.6686248 52.0343416,34.7324456 C52.0347319,33.795486 51.3522069,33.0368647 50.5092944,33.0368647 Z M28.9990263,47.0315534 C28.9338567,47.0393581 28.8694676,47.0428703 28.8066394,47.0428703 C28.0222625,47.0428703 27.3432496,46.4575144 27.2464708,45.659089 L26.3204378,38.0705352 C26.2154639,37.2081108 26.8300876,36.4233437 27.6929022,36.3175894 C28.5572777,36.2118351 29.3408742,36.8276295 29.445848,37.6900538 L30.3714908,45.2782174 C30.4756841,46.141032 29.8622311,46.9261893 28.9990263,47.0315534 Z M36.7155779,45.4686532 C36.7155779,46.3381018 36.010029,47.04248 35.1409706,47.04248 C34.2719122,47.04248 33.5675339,46.3377115 33.5675339,45.4686532 L33.5675339,37.8804896 C33.5675339,37.0114312 34.2723024,36.3066627 35.1409706,36.3066627 C36.0104192,36.3066627 36.7155779,37.0118215 36.7155779,37.8804896 L36.7155779,45.4686532 Z M43.9622839,38.0709254 L43.0358606,45.6594792 C42.9390818,46.4575144 42.2596787,47.0428703 41.4753018,47.0428703 C41.4116931,47.0428703 41.3480845,47.0389679 41.2829148,47.0315534 C40.4201003,46.9257991 39.8058668,46.141032 39.9104504,45.2782174 L40.8372639,37.6900538 C40.9426279,36.826849 41.7258341,36.2118351 42.5898194,36.3175894 C43.4534145,36.4233437 44.0672577,37.2081108 43.9622839,38.0709254 Z M24.3150085,33.0368647 L25.6390835,24.4762299 C25.7787884,23.5751721 26.6611149,22.7845514 27.5270514,22.7845514 L29.1656576,22.7845514 C29.6269181,23.5802452 30.4846596,24.1164312 31.4707891,24.1164312 L38.8119325,24.1164312 C39.7976718,24.1164312 40.6558036,23.5802452 41.1166738,22.7845514 L42.9433744,22.7845514 C43.8038475,22.7845514 44.671345,23.5685381 44.8001233,24.4629619 L46.0387363,33.0368647 L24.3150085,33.0368647 L24.3150085,33.0368647 Z" id="Shape" fill="#FFFFFF" fill-rule="nonzero"></path>
                </g>
            </g>
        </g>
    </g>
</svg>
