
<svg width="74px" height="74px" viewBox="0 0 74 74" version="1.1" xmlns="http://www.w3.org/2000/svg" xmlns:xlink="http://www.w3.org/1999/xlink">
    <!-- Generator: Sketch 54.1 (76490) - https://sketchapp.com -->
    <title>Group</title>
    <desc>Created with Sketch.</desc>
    <defs>
        <filter x="-29.2%" y="-29.2%" width="158.3%" height="158.3%" filterUnits="objectBoundingBox" id="filter-1">
            <feOffset dx="0" dy="2" in="SourceAlpha" result="shadowOffsetOuter1"></feOffset>
            <feGaussianBlur stdDeviation="3.5" in="shadowOffsetOuter1" result="shadowBlurOuter1"></feGaussianBlur>
            <feColorMatrix values="0 0 0 0 0   0 0 0 0 0   0 0 0 0 0  0 0 0 0.271689248 0" type="matrix" in="shadowBlurOuter1" result="shadowMatrixOuter1"></feColorMatrix>
            <feMerge>
                <feMergeNode in="shadowMatrixOuter1"></feMergeNode>
                <feMergeNode in="SourceGraphic"></feMergeNode>
            </feMerge>
        </filter>
    </defs>
    <g id="Landing" stroke="none" stroke-width="1" fill="none" fill-rule="evenodd">
        <g id="iPhone-8-Plus-Copy-3" transform="translate(-334.000000, -31.000000)">
            <g id="Group" filter="url(#filter-1)" transform="translate(341.000000, 36.000000)">
                <circle id="Oval" fill="#0091EA" cx="30" cy="30" r="30"></circle>
                <path d="M23.8727401,9.13043478 C27.4447038,9.13043478 30.3508116,12.6822765 30.3508116,17.0481455 C30.3508116,20.6365728 28.384951,23.6707298 25.7020148,24.6384161 L25.7020148,37.1579723 L22.0434653,37.1579723 L22.0434653,24.6384161 C19.3599193,23.6707298 17.3940588,20.6365728 17.3940588,17.0481455 C17.3940588,12.6822765 20.3001665,9.13043478 23.8727401,9.13043478 Z M23.8727401,21.3060873 C25.4007942,21.3060873 26.6922622,19.3560805 26.6922622,17.0481455 C26.6922622,14.7389911 25.4007942,12.7889842 23.8727401,12.7889842 C22.3440761,12.7889842 21.0526082,14.7396008 21.0526082,17.0481455 C21.0526082,19.3560805 22.3440761,21.3060873 23.8727401,21.3060873 Z M40.8410924,29.7696902 C40.4971887,30.1129841 40.0166992,30.2971311 39.5453561,30.3044482 L36.2965642,30.2977408 L36.2965642,37.2471555 L32.6380148,37.2471555 L32.6380148,12.1873113 C32.6380148,11.2946253 33.2825292,10.5324275 34.1636299,10.3836465 C34.9130228,10.2568167 36.1215636,10.4635248 37.2599822,11.4257233 C39.9929187,13.7360973 41.3782894,19.472093 41.3782894,28.4745637 C41.3776796,28.9611508 41.184996,29.4270061 40.8410924,29.7696902 Z M36.2959545,26.6391914 L37.6990082,26.6422402 C37.5764468,21.5001489 36.947786,18.4373333 36.2959545,16.6263513 L36.2959545,26.6391914 Z M15.5243478,41.4021088 L17.4065354,41.4021088 L19.2593137,46.2644266 L21.1316982,41.4021088 L22.9942797,41.4021088 L22.9942797,48.3426754 L21.8179124,48.3426754 L21.8179124,42.578476 L21.7983063,42.578476 L19.6906484,48.3426754 L18.8279791,48.3426754 L16.7203212,42.578476 L16.700715,42.578476 L16.700715,48.3426754 L15.5243478,48.3426754 L15.5243478,41.4021088 Z M24.5725723,41.4021088 L29.1702075,41.4021088 L29.1702075,42.5196576 L25.8077579,42.5196576 L25.8077579,44.2253901 L28.9937525,44.2253901 L28.9937525,45.3429389 L25.8077579,45.3429389 L25.8077579,47.2251265 L29.3466626,47.2251265 L29.3466626,48.3426754 L24.5725723,48.3426754 L24.5725723,41.4021088 Z M30.5622421,41.4021088 L32.1993531,41.4021088 L35.5618028,46.5585184 L35.5814089,46.5585184 L35.5814089,41.4021088 L36.8165945,41.4021088 L36.8165945,48.3426754 L35.2481048,48.3426754 L31.8170338,43.0196137 L31.7974277,43.0196137 L31.7974277,48.3426754 L30.5622421,48.3426754 L30.5622421,41.4021088 Z M43.9238131,45.7938797 C43.9238131,46.2121457 43.8519247,46.5895597 43.7081457,46.9261332 C43.5643668,47.2627066 43.3683076,47.5486263 43.1199621,47.7839009 C42.8716167,48.0191755 42.5775278,48.2005303 42.2376867,48.3279708 C41.8978456,48.4554112 41.5286007,48.5191304 41.1299409,48.5191304 C40.7312811,48.5191304 40.3620362,48.4554112 40.0221951,48.3279708 C39.682354,48.2005303 39.3866313,48.0191755 39.1350182,47.7839009 C38.883405,47.5486263 38.6873458,47.2627066 38.5468346,46.9261332 C38.4063233,46.5895597 38.3360688,46.2121457 38.3360688,45.7938797 L38.3360688,41.4021088 L39.5712544,41.4021088 L39.5712544,45.7546675 C39.5712544,45.924588 39.5973956,46.1026752 39.6496788,46.2889343 C39.7019621,46.4751933 39.7885549,46.6467452 39.9094599,46.8035949 C40.0303649,46.9604447 40.19048,47.089517 40.3898099,47.1908158 C40.5891398,47.2921146 40.8358476,47.3427632 41.1299409,47.3427632 C41.4240342,47.3427632 41.6707421,47.2921146 41.870072,47.1908158 C42.0694018,47.089517 42.2295169,46.9604447 42.3504219,46.8035949 C42.4713269,46.6467452 42.5579198,46.4751933 42.610203,46.2889343 C42.6624862,46.1026752 42.6886275,45.924588 42.6886275,45.7546675 L42.6886275,41.4021088 L43.9238131,41.4021088 L43.9238131,45.7938797 Z" id="Combined-Shape" fill="#FFFFFF"></path>
            </g>
        </g>
    </g>
</svg>
