
<svg width="191px" height="170px" viewBox="0 0 191 170" version="1.1" xmlns="http://www.w3.org/2000/svg" xmlns:xlink="http://www.w3.org/1999/xlink">
    <!-- Generator: Sketch 54.1 (76490) - https://sketchapp.com -->
    <title>Group</title>
    <desc>Created with Sketch.</desc>
    <g id="Onboarding" stroke="none" stroke-width="1" fill="none" fill-rule="evenodd">
        <g id="iPhone-8-Plus" transform="translate(-112.000000, -273.000000)">
            <g id="Group" transform="translate(112.000000, 273.000000)">
                <path d="M102.340401,11.7550133 C102.281549,10.8486212 102.383023,9.81317927 102.644822,8.64868628 C103.605297,4.3764423 107.191433,1.61667691 113.403338,0.369306658 L113.49689,0.369306658 C115.130945,0.107358405 116.846054,0.157252869 118.642267,0.518990049 C122.010167,1.22999095 123.276229,3.73404977 122.440491,8.03124067 C121.909357,10.7622223 120.300099,12.9150687 117.612689,14.4898021 C124.525038,16.2228073 131.036965,18.5478878 136.564091,21.2481481 C164.613044,35.0462384 167.805058,52.102648 167.805058,52.102648 C167.805058,52.102648 168.422043,53.6944909 167.426934,54.7850337 C166.720065,55.5532134 165.780162,55.5529359 164.641347,55.3948063 C150.38578,52.7698515 127.82228,49.2574287 99.7700017,46.7381752 C80.080586,44.9554727 48.1996176,44.0336121 37.4353974,43.7903171 C36.1661952,43.7556397 35.2606925,43.4260639 34.9316705,42.4517606 C34.6026485,41.4774573 35.4881765,39.7488458 35.8588111,39.2001062 C35.8588111,39.2001062 48.6948057,16.6119129 81.1605763,11.9356906 C87.7960542,10.9573904 95.0586668,10.9723873 102.340401,11.7550133 Z M108.620745,12.6166049 C109.884114,12.8269788 111.142738,13.0587341 112.393389,13.3106731 C115.156626,12.4859697 116.72815,10.875858 117.108009,8.48029208 C117.494694,6.04168278 116.908439,4.62282005 115.349226,4.22366187 C114.525961,4.01160869 113.733893,3.98042504 112.972997,4.13010967 L112.935577,4.13010967 C110.054151,4.84111057 108.392054,6.40965545 107.949238,8.83579067 C107.618655,10.647013 107.842488,11.9072783 108.620745,12.6166049 Z M78.9282914,14.8316097 C63.2728174,15.8624181 49.0156435,26.7245459 46.3578556,32.4861256 C45.3161299,34.7705058 48.3375463,36.2907699 49.5706415,33.8657632 C56.3825902,24.0087287 68.7872764,16.8882141 78.9282914,14.8316097 Z M147.631504,47.5858452 C154.182537,48.2835247 157.595607,49.2931322 158.637691,46.589828 C160.385387,42.1076712 149.452457,32.1958744 137.284851,28.8723082 C149.003638,34.0681915 154.511455,41.307463 153.352493,44.4916864 C152.656133,46.5647167 150.204335,47.7080094 147.631504,47.5858452 Z" id="Combined-Shape" fill="#E69334"></path>
                <path d="M19.5757622,112.079433 C16.2259653,112.343891 12.7733765,112.035361 9.21789052,111.153836 C1.31354602,109.273249 -1.50729249,103.301004 0.755289091,93.2369224 C3.01787129,83.1728408 11.4656958,76.6716891 26.0990172,73.7332711 L26.3193974,73.7332711 C30.1687248,73.1162031 34.2089891,73.2337381 38.4403108,74.0858791 C46.3740392,75.7607778 49.3564882,81.6595631 47.3877486,91.782413 C45.4190085,101.905262 37.1621778,108.656176 22.6170092,112.035357 C21.5297946,112.094125 20.5160555,112.108817 19.5757622,112.079433 Z M21.9558682,104.366125 C22.396631,104.366125 22.8667708,104.351433 23.366302,104.322048 C30.0952789,102.412077 33.9151649,98.5848451 34.8260743,92.8402382 C35.7369844,87.0956307 34.3559487,83.7532307 30.6829259,82.8129368 C28.7435703,82.3134056 26.8777031,82.2399468 25.0852682,82.5925566 L24.9971159,82.5925566 C18.2093706,84.2674548 14.2939873,87.9624603 13.2508489,93.6776826 C12.2077104,99.3929056 13.5079411,102.779382 17.1515794,103.837212 C18.8264775,104.336743 20.4278914,104.513045 21.9558682,104.366125 Z M63.5536705,100.115241 C62.0095558,104.876261 60.8643546,108.041649 60.1180329,109.611498 C58.7798002,111.104142 57.2871783,112.0692 55.6401226,112.506699 C54.8938009,112.738316 54.3662362,112.854123 54.0574133,112.854123 C52.2044757,112.854123 51.0206724,111.56738 50.5059675,108.993855 C50.2486151,107.321065 50.119941,106.356007 50.119941,106.098655 C50.145676,103.525131 51.7541048,98.1208109 54.9452744,89.8855334 C58.1364447,81.6502553 61.1731578,74.6375068 64.0555051,68.8470772 C65.5738842,66.0419359 67.9543586,62.490526 71.1969994,58.1927399 C72.8697899,56.6228903 73.9635213,55.8379769 74.4782262,55.8379769 C75.3532245,56.0181239 75.7907171,56.4298817 75.7907171,57.0732625 L75.7907171,59.0806016 C75.7649822,62.5805948 74.0278793,68.628286 70.5793566,77.223857 C70.5021506,77.3525335 70.1933326,78.2275182 69.6528928,79.8488389 L68.3404018,84.1337356 C71.480101,81.1484472 74.298068,78.8580448 76.7943864,77.2624597 C78.750265,76.0786384 81.4652923,74.7790282 84.9395505,73.3635901 C86.4836652,73.0032967 87.3972526,72.9132247 87.68034,73.0933711 C88.0921039,73.5308706 88.1693087,73.9426283 87.9119562,74.3286567 L87.1012999,75.5639422 C85.7115967,77.6999672 82.3660657,80.7624152 77.0646054,84.7513777 C76.9616644,84.8028482 76.4469676,85.2146059 75.5204988,85.9866633 L69.7687003,91.892872 C69.6400244,91.9958129 69.5242175,92.1116198 69.4212765,92.2402964 C70.7852441,93.784411 72.3550708,95.5987181 74.1308024,97.6832732 C81.0278472,106.021492 86.6380464,111.811834 90.9615668,115.054475 L91.656415,116.482774 C91.8622969,116.946008 91.7078879,117.422103 91.193183,117.911072 C90.8328896,118.116954 89.8163631,117.975413 88.1435719,117.486443 C83.9487274,116.354093 80.4230518,114.784266 77.56644,112.776917 C74.7098282,110.769568 70.8882018,107.488374 66.101447,102.933236 C65.1749782,101.929562 64.3257278,100.990239 63.5536705,100.115241 Z M103.496558,80.21245 L103.761014,80.21245 C104.789461,80.21245 105.435903,81.2996486 105.700361,83.4740778 C105.876665,84.4437557 105.964817,85.1783487 105.964817,85.6778799 C105.964817,90.1442752 103.437815,97.0347619 98.3837361,106.349547 L96.0477056,111.947205 C96.1358586,112.534888 96.1799341,113.005028 96.1799341,113.357639 L96.1799341,113.489866 C96.1799341,114.547697 95.3131138,115.076604 93.5794473,115.076604 C91.0230237,115.076604 89.4069181,112.329225 88.7310817,106.834383 C88.7310817,102.749982 90.8614027,97.4021419 95.1221089,90.7907018 C99.5885043,85.119555 101.983278,81.7257333 102.306505,80.6091347 C102.629731,80.3446766 103.026411,80.21245 103.496558,80.21245 Z M121.326477,102.805623 C119.688885,107.854864 118.474356,111.211877 117.682853,112.876762 C116.263608,114.459767 114.680626,115.483247 112.933861,115.947231 C112.142358,116.19287 111.582856,116.315688 111.255338,116.315688 C109.290227,116.315688 108.03476,114.951048 107.488896,112.221728 C107.215964,110.447671 107.0795,109.424192 107.0795,109.151259 C107.106793,106.42194 108.812592,100.690455 112.196948,91.9566317 C115.581304,83.2228089 118.801854,75.7855245 121.858692,69.6445555 C123.46899,66.6695972 125.993573,62.9031922 129.432515,58.3452286 C131.206573,56.6803435 132.366517,55.8479133 132.912381,55.8479133 C133.840349,56.0389658 134.304327,56.4756507 134.304327,57.1579803 L134.304327,59.286839 C134.277034,62.9987135 132.43477,69.4125189 128.777483,78.5284462 C128.695603,78.664912 128.368089,79.5928672 127.794932,81.3123383 L126.402986,85.8566326 C129.732756,82.6906218 132.721316,80.2615639 135.368756,78.5693857 C137.443039,77.3138986 140.322428,75.9356133 144.00701,74.434487 C145.644601,74.0523827 146.613495,73.9568577 146.913721,74.1479102 C147.350412,74.6118942 147.43229,75.0485791 147.159358,75.4579771 L146.299627,76.7680441 C144.825794,79.0333791 141.277731,82.2812207 135.655333,86.5116661 C135.54616,86.5662528 135.000305,87.002937 134.01775,87.821733 L127.917751,94.0854904 C127.781285,94.1946632 127.658467,94.3174806 127.549295,94.4539464 C128.995834,96.0915385 130.660694,98.0156802 132.543925,100.226429 C139.858501,109.069424 145.808328,115.210302 150.393586,118.649244 L151.130498,120.164009 C151.348844,120.655287 151.185087,121.160203 150.639223,121.678774 C150.257118,121.89712 149.179053,121.747009 147.404996,121.228438 C142.956204,120.027537 139.217093,118.362678 136.187548,116.233808 C133.158003,114.104939 129.105024,110.625109 124.02849,105.794213 C123.045935,104.729778 122.145273,103.733592 121.326477,102.805623 Z M148.982726,93.2589601 C151.245308,83.180187 159.693133,76.6716891 174.326454,73.7332711 C182.17203,73.6157343 186.469402,74.6735489 187.218698,76.9067466 C187.967995,79.1399443 187.967995,81.5053352 187.218698,84.0029904 C186.469402,86.5006456 184.508037,89.2774086 181.334546,92.3333634 C178.161055,95.3893182 172.005161,97.6812497 162.866682,99.2092271 C162.984218,103.440549 166.561689,104.527747 173.599199,102.470854 C180.636711,100.413962 185.279341,99.1504611 187.527231,98.6803145 C189.775121,98.2101672 190.708054,98.8933392 190.32606,100.72985 C189.944065,102.566362 186.337212,105.240282 179.50539,108.751691 C172.673568,112.263101 165.312942,113.071154 157.42329,111.175874 C149.533638,109.280595 146.720145,103.308349 148.982726,93.2589601 Z M170.535914,82.2399481 C166.510281,84.1499198 163.762902,87.4115149 162.293693,92.024831 L162.866682,93.4793409 C174.473432,89.2480185 179.667008,85.8321591 178.447565,83.2316593 C177.228121,80.6311595 174.590931,80.3005924 170.535914,82.2399481 Z M114.824103,56.3232318 L116.146384,56.3232318 C116.675299,56.6170738 116.939753,57.0137543 116.939753,57.5132854 L116.939753,57.6455133 C116.8516,58.8502647 113.795692,63.419436 107.771935,71.3531644 C106.390878,73.0868309 105.259604,73.9536512 104.378079,73.9536512 C104.378079,74.1299565 103.731637,74.2181075 102.438733,74.2181075 C100.528761,73.8948816 99.5737898,73.0721368 99.5737898,71.7498486 L99.5737898,69.6341982 C99.5737898,67.9886846 101.14582,65.3735315 104.289927,61.7886617 C107.110808,59.849306 109.975723,58.2919676 112.884756,57.1166007 C113.501824,57.0578323 114.148266,56.7933784 114.824103,56.3232318 Z M176.618747,65.6684502 L177.631674,66.5183959 C177.847969,67.0834718 177.79557,67.5573347 177.474478,67.9399972 L177.389484,68.0412898 C176.547556,68.9075199 171.269587,70.4434077 161.555419,72.6490002 C159.383089,73.0893396 157.959302,73.0261936 157.284014,72.4595602 C157.170688,72.5946175 156.618821,72.2466201 155.628399,71.4155577 C154.373042,69.9402461 154.170342,68.6961435 155.020292,67.6832121 L156.380206,66.0625299 C157.437922,64.8019927 160.323155,63.809151 165.03599,63.0839746 C168.443505,63.4115695 171.639194,64.0601104 174.623155,65.0296182 C175.133632,65.3812423 175.798823,65.5941842 176.618747,65.6684502 Z" id="Combined-Shape" fill="#ED1C23"></path>
                <path d="M22.9087617,132.360673 C23.7107332,131.600846 24.3365175,131.565683 25.8482322,131.502398 C61.1523153,129.540295 119.852944,132.588102 154.443466,136.676612 C155.948002,136.873644 157.030562,137.267664 157.444814,138.294873 C157.957381,139.533153 157.267537,140.947296 156.697543,141.791556 C153.953067,145.96361 132.484931,174.872439 82.6800388,169.27795 C50.0298406,165.632731 26.0300485,145.679163 22.6889594,135.611121 C22.6889594,135.611121 21.7549628,133.60595 22.9087617,132.360673 Z M101.320739,162.415255 C113.768434,162.109423 127.224632,157.684699 137.503085,147.547321 C140.458283,144.62762 136.306395,141.013664 133.412864,144.726834 C126.832333,152.21484 116.183199,159.904231 101.320739,162.415255 Z" id="Combined-Shape" fill="#E69334"></path>
                <path d="M170.362759,131.556019 C171.56195,131.556019 172.661191,131.849365 173.660517,132.436066 C174.659843,133.022767 175.449621,133.818992 176.029875,134.824765 C176.610128,135.830538 176.900251,136.926556 176.900251,138.112853 C176.900251,139.286255 176.610128,140.379049 176.029875,141.39127 C175.449621,142.40349 174.656619,143.209386 173.650846,143.808981 C172.645073,144.408577 171.536161,144.70837 170.324075,144.70837 C169.124884,144.70837 168.025642,144.4118 167.026317,143.818652 C166.026991,143.225504 165.240437,142.426055 164.66663,141.420282 C164.092824,140.414509 163.805925,139.324938 163.805925,138.151536 C163.805925,136.978134 164.096047,135.885339 164.676301,134.873119 C165.256555,133.860899 166.046333,133.055003 167.045658,132.455408 C168.044984,131.855812 169.150673,131.556019 170.362759,131.556019 Z M170.324075,143.257743 C171.27827,143.257743 172.151861,143.025645 172.944875,142.561442 C173.737888,142.097239 174.363263,141.471864 174.821019,140.685298 C175.278774,139.898732 175.507649,139.041259 175.507649,138.112853 C175.507649,137.184447 175.281998,136.330197 174.83069,135.550078 C174.379381,134.76996 173.760453,134.151032 172.973887,133.693276 C172.187321,133.23552 171.316954,133.006646 170.362759,133.006646 C169.408564,133.006646 168.538196,133.238744 167.75163,133.702947 C166.965064,134.16715 166.342912,134.792525 165.885157,135.579091 C165.427401,136.365657 165.198527,137.22313 165.198527,138.151536 C165.198527,139.079942 165.424177,139.934192 165.875486,140.71431 C166.326794,141.494429 166.942499,142.113357 167.722618,142.571113 C168.502736,143.028869 169.36988,143.257743 170.324075,143.257743 Z M173.128621,136.952351 C173.128621,137.442343 173.025466,137.858185 172.819154,138.19989 C172.612841,138.541595 172.316272,138.802705 171.929436,138.983229 L173.302696,141.072132 L171.697335,141.072132 L170.691567,139.254013 L169.260282,139.254013 L169.260282,141.072132 L167.86768,141.072132 L167.86768,134.786082 L170.536834,134.786082 C171.362084,134.786082 172.000353,134.976273 172.451661,135.356661 C172.90297,135.73705 173.128621,136.268941 173.128621,136.952351 Z M169.260282,138.132194 L170.536834,138.132194 C170.936564,138.132194 171.246028,138.035487 171.465235,137.842069 C171.684442,137.648651 171.794044,137.371423 171.794044,137.010376 C171.794044,136.649329 171.684442,136.375325 171.465235,136.188354 C171.246028,136.001384 170.936564,135.9079 170.536834,135.9079 L169.260282,135.9079 L169.260282,138.132194 Z" id="®" fill="#ED1C23" fill-rule="nonzero"></path>
            </g>
        </g>
    </g>
</svg>
