
<svg width="22px" height="28px" viewBox="0 0 22 28" version="1.1" xmlns="http://www.w3.org/2000/svg" xmlns:xlink="http://www.w3.org/1999/xlink">
    <!-- Generator: Sketch 54.1 (76490) - https://sketchapp.com -->
    <title>Shape</title>
    <desc>Created with Sketch.</desc>
    <g id="Landing-Page" stroke="none" stroke-width="1" fill="none" fill-rule="evenodd">
        <g id="iPhone-8-Plus-Copy-11" transform="translate(-196.000000, -651.000000)" fill="#535353">
            <path d="M214.666667,660.333333 L213.333333,660.333333 L213.333333,657.666667 C213.333333,653.933333 210.4,651 206.666667,651 C202.933333,651 200,653.933333 200,657.666667 L200,660.333333 L198.666667,660.333333 C197.2,660.333333 196,661.533333 196,663 L196,676.333333 C196,677.8 197.2,679 198.666667,679 L214.666667,679 C216.133333,679 217.333333,677.8 217.333333,676.333333 L217.333333,663 C217.333333,661.533333 216.133333,660.333333 214.666667,660.333333 L214.666667,660.333333 Z M206.666667,672.333333 C205.2,672.333333 204,671.133333 204,669.666667 C204,668.2 205.2,667 206.666667,667 C208.133333,667 209.333333,668.2 209.333333,669.666667 C209.333333,671.133333 208.133333,672.333333 206.666667,672.333333 L206.666667,672.333333 Z M210.8,660.333333 L202.533333,660.333333 L202.533333,657.666667 C202.533333,655.4 204.4,653.533333 206.666667,653.533333 C208.933333,653.533333 210.8,655.4 210.8,657.666667 L210.8,660.333333 L210.8,660.333333 Z" id="Shape"></path>
        </g>
    </g>
</svg>
