
<svg width="16px" height="16px" viewBox="0 0 16 16" version="1.1" xmlns="http://www.w3.org/2000/svg" xmlns:xlink="http://www.w3.org/1999/xlink">
    <!-- Generator: Sketch 54.1 (76490) - https://sketchapp.com -->
    <title>Shape</title>
    <desc>Created with Sketch.</desc>
    <g id="Landing-Page" stroke="none" stroke-width="1" fill="none" fill-rule="evenodd">
        <g id="iPhone-8-Plus-Copy-2" transform="translate(-48.000000, -355.000000)" fill="#6F6F6F" fill-rule="nonzero">
            <path d="M63.225697,368.899273 L59.7762424,365.449818 C61.6888485,362.890909 61.4821818,359.238545 59.16,356.916364 C57.9237576,355.680121 56.281697,355 54.5381818,355 C52.7946667,355 51.1488485,355.680121 49.9163636,356.916364 C48.6801212,358.152606 48,359.794667 48,361.538182 C48,363.281697 48.6801212,364.927515 49.9163636,366.16 C51.1901818,367.433818 52.862303,368.072606 54.5381818,368.072606 C55.9172121,368.072606 57.2924848,367.640485 58.4498182,366.776242 L61.8992727,370.225697 C62.0833939,370.409818 62.3238788,370.5 62.5643636,370.5 C62.8048485,370.5 63.0453333,370.409818 63.2294545,370.225697 C63.5939394,369.857455 63.5939394,369.263758 63.225697,368.899273 Z M54.5381818,366.193818 C53.3470303,366.193818 52.1521212,365.739152 51.2427879,364.829818 C50.3635152,363.950545 49.8787879,362.778182 49.8787879,361.534424 C49.8787879,360.290667 50.3635152,359.118303 51.2427879,358.23903 C52.1220606,357.359758 53.2944242,356.87503 54.5381818,356.87503 C55.7819394,356.87503 56.954303,357.359758 57.8335758,358.23903 C59.6484848,360.053939 59.6484848,363.011152 57.8335758,364.826061 C56.9242424,365.739152 55.7293333,366.193818 54.5381818,366.193818 Z" id="Shape"></path>
        </g>
    </g>
</svg>
