
<svg width="30px" height="30px" viewBox="0 0 30 30" version="1.1" xmlns="http://www.w3.org/2000/svg" xmlns:xlink="http://www.w3.org/1999/xlink">
    <!-- Generator: Sketch 54.1 (76490) - https://sketchapp.com -->
    <title>Shape Copy</title>
    <desc>Created with Sketch.</desc>
    <g id="Landing-Page" stroke="none" stroke-width="1" fill="none" fill-rule="evenodd">
        <g id="iPhone-8-Plus-Copy" transform="translate(-101.000000, -471.000000)" fill="#FFFFFF" fill-rule="nonzero">
            <g id="Settings" transform="translate(101.000000, 471.000000)">
                <path d="M28,13 C26.7883301,13 25.7119751,12.2443237 25.2848511,11.1104126 C25.2044068,10.8968506 25.1175537,10.6864624 25.0244141,10.4794922 C24.5268555,9.3734131 24.7490235,8.0794068 25.6065674,7.2218018 L25.6066284,7.2218018 C26.3876343,6.4407959 26.3876343,5.1744385 25.6066284,4.3933716 L25.6065674,4.3933716 C24.8255615,3.6123657 23.5592041,3.6123657 22.7781983,4.3933716 C21.9205933,5.2509766 20.6265259,5.4731445 19.5205079,4.975586 C19.3135377,4.8824464 19.1031495,4.7955323 18.8895265,4.715088 C17.7556152,4.2879639 17,3.2116699 17,2 C17,0.8953857 16.1045532,0 15,0 C13.8954468,0 13,0.8953857 13,2 C13,3.2116699 12.2443848,4.2879639 11.1104736,4.7150879 C10.8968506,4.7955322 10.6864624,4.8824463 10.4794922,4.9755859 C9.3734741,5.4731445 8.0794068,5.2509765 7.2218018,4.3933715 C6.4407959,3.6123656 5.1744385,3.6123656 4.3934327,4.3933715 L4.3933717,4.3933715 C3.6123658,5.1744384 3.6123658,6.4407958 4.3933717,7.2218017 L4.3934327,7.2218017 C5.2509766,8.0794067 5.4731446,9.373413 4.975586,10.4794921 C4.8824464,10.6864623 4.7955933,10.8968505 4.715149,11.1104125 C4.2880249,12.2443237 3.2116699,13 2,13 C0.8954468,13 0,13.8953857 0,15 C0,16.1045532 0.8954468,17 2,17 C3.2116699,17 4.2880249,17.7556152 4.7151489,18.8895264 C4.7955932,19.1030884 4.8824463,19.3135376 4.9755859,19.5205078 C5.4731445,20.6265259 5.2509765,21.9205932 4.3934326,22.7781372 L4.3933716,22.7781372 C3.6123657,23.5592041 3.6123657,24.8255615 4.3933716,25.6065674 L4.3934326,25.6065674 C5.1744385,26.3876343 6.4407959,26.3876343 7.2218017,25.6065674 L7.2218627,25.6065674 C8.0794066,24.7490235 9.373474,24.5268555 10.4794921,25.0244141 C10.6864623,25.1175537 10.8968505,25.2044068 11.1104735,25.2848511 C12.2443848,25.7119751 13,26.788269 13,28 C13,29.1045532 13.8954468,30 15,30 C16.1045532,30 17,29.1045532 17,28 C17,26.788269 17.7556152,25.7119751 18.8895264,25.2848511 C19.1031494,25.2044068 19.3135376,25.1175537 19.5205078,25.0244141 C20.6265259,24.5268555 21.9205932,24.7490235 22.7781982,25.6065674 C23.5592041,26.3876343 24.8255615,26.3876343 25.6065673,25.6065674 L25.6066283,25.6065674 C26.3876342,24.8255615 26.3876342,23.5592041 25.6066283,22.7781372 L25.6065673,22.7781372 C24.7490234,21.9205933 24.5268554,20.6265259 25.024414,19.5205078 C25.1175536,19.3135376 25.2044067,19.1030884 25.284851,18.8895264 C25.7119751,17.7556152 26.7883301,17 28,17 C29.1045532,17 30,16.1045532 30,15 C30,13.8953857 29.1045532,13 28,13 Z M15,20 C12.2385864,20 10,17.7614136 10,15 C10,12.2385864 12.2385864,10 15,10 C17.7614136,10 20,12.2385864 20,15 C20,17.7614136 17.7614136,20 15,20 Z" id="Shape-Copy"></path>
            </g>
        </g>
    </g>
</svg>
