
<svg width="32px" height="31px" viewBox="0 0 32 31" version="1.1" xmlns="http://www.w3.org/2000/svg" xmlns:xlink="http://www.w3.org/1999/xlink">
    <!-- Generator: Sketch 54.1 (76490) - https://sketchapp.com -->
    <title>Path</title>
    <desc>Created with Sketch.</desc>
    <g id="Landing-Page" stroke="none" stroke-width="1" fill="none" fill-rule="evenodd">
        <g id="iPhone-8-Plus-Copy" transform="translate(-101.000000, -263.000000)" fill="#FFFFFF" fill-rule="nonzero">
            <g id="Reward-Account" transform="translate(101.480739, 262.000000)">
                <path d="M23.8988315,19.8462376 L30.6083769,14.3149538 C31.5575321,13.5294461 31.0665898,11.9911601 29.8228692,11.9257011 L21.1822839,11.4020293 C20.658612,11.3692998 20.2003992,11.0420049 20.0040223,10.5510625 L16.8292618,2.4341491 C16.3710489,1.28861697 14.7673039,1.28861697 14.3090911,2.4341491 L11.1343306,10.518333 C10.9379536,11.0092754 10.4797408,11.3365703 9.95606893,11.3692998 L1.28275418,11.8929716 C0.0390335697,11.9584306 -0.451908775,13.4967166 0.497246425,14.2822244 L7.2067918,19.7807786 C7.59954568,20.1080735 7.79592262,20.6644748 7.66500466,21.1554172 L5.47212885,29.566896 C5.17756344,30.7451577 6.45401354,31.6943129 7.50135721,31.0397231 L14.8000334,26.359406 C15.2582463,26.0648406 15.8146476,26.0648406 16.2401309,26.359406 L23.5715366,31.0397231 C24.6188803,31.6943129 25.8953304,30.7451577 25.600765,29.566896 L23.4078892,21.1881467 C23.3097007,20.6972043 23.4733482,20.1735325 23.8988315,19.8462376 Z" id="Path"></path>
            </g>
        </g>
    </g>
</svg>
