
<svg width="35px" height="24px" viewBox="0 0 35 24" version="1.1" xmlns="http://www.w3.org/2000/svg" xmlns:xlink="http://www.w3.org/1999/xlink">
    <!-- Generator: Sketch 54.1 (76490) - https://sketchapp.com -->
    <title>Combined Shape</title>
    <desc>Created with Sketch.</desc>
    <g id="Landing-Page" stroke="none" stroke-width="1" fill="none" fill-rule="evenodd">
        <g id="iPhone-8-Plus-Copy" transform="translate(-99.000000, -336.000000)" fill="#FFFFFF" fill-rule="nonzero">
            <g id="Invite-Friends" transform="translate(99.000000, 332.000000)">
                <path d="M16.9527581,28 L1.82232334,28 C0.818053461,28 0,27.1804935 0,26.173913 C0,21.09654 3.8003928,18.6086957 9.65217391,18.6086957 C12.9106214,18.6086957 15.533016,19.3800759 17.2173913,20.9403922 C18.9017666,19.3800759 21.5241612,18.6086957 24.7826087,18.6086957 C30.6343898,18.6086957 34.4347826,21.09654 34.4347826,26.173913 C34.4347826,27.177369 33.6211603,28 32.6124593,28 L16.9527581,28 Z M15.1619616,25.3913043 C15.2300165,24.5665966 15.4073419,23.81804 15.6850899,23.1451202 C14.563787,21.8494124 12.5256194,21.2173913 9.65217391,21.2173913 C5.4400967,21.2173913 3.0228264,22.5754493 2.65734308,25.3913043 L15.1619616,25.3913043 Z M18.7496927,23.1451202 C19.0274408,23.81804 19.2047661,24.5665966 19.272821,25.3913043 L31.7774395,25.3913043 C31.4119562,22.5754493 28.9946859,21.2173913 24.7826087,21.2173913 C21.9091632,21.2173913 19.8709956,21.8494124 18.7496927,23.1451202 Z M24.7826087,17.5652174 C21.5486444,17.5652174 19.3043478,14.1000263 19.3043478,10.5217391 C19.3043478,7.04476605 21.5387666,4 24.7826087,4 C28.0264508,4 30.2608696,7.04476605 30.2608696,10.5217391 C30.2608696,14.1000263 28.016573,17.5652174 24.7826087,17.5652174 Z M24.7826087,14.9565217 C26.2784619,14.9565217 27.6521739,12.8355122 27.6521739,10.5217391 C27.6521739,8.34178063 26.3803397,6.60869565 24.7826087,6.60869565 C23.1848777,6.60869565 21.9130435,8.34178063 21.9130435,10.5217391 C21.9130435,12.8355122 23.2867555,14.9565217 24.7826087,14.9565217 Z M9.65217391,17.5652174 C6.4182096,17.5652174 4.17391304,14.1000263 4.17391304,10.5217391 C4.17391304,7.04476605 6.40833177,4 9.65217391,4 C12.8960161,4 15.1304348,7.04476605 15.1304348,10.5217391 C15.1304348,14.1000263 12.8861382,17.5652174 9.65217391,17.5652174 Z M9.65217391,14.9565217 C11.1480271,14.9565217 12.5217391,12.8355122 12.5217391,10.5217391 C12.5217391,8.34178063 11.2499049,6.60869565 9.65217391,6.60869565 C8.05444289,6.60869565 6.7826087,8.34178063 6.7826087,10.5217391 C6.7826087,12.8355122 8.1563207,14.9565217 9.65217391,14.9565217 Z" id="Combined-Shape"></path>
            </g>
        </g>
    </g>
</svg>
