
<svg width="34px" height="29px" viewBox="0 0 34 29" version="1.1" xmlns="http://www.w3.org/2000/svg" xmlns:xlink="http://www.w3.org/1999/xlink">
    <!-- Generator: Sketch 54.1 (76490) - https://sketchapp.com -->
    <title>Combined Shape</title>
    <desc>Created with Sketch.</desc>
    <g id="Landing-Page" stroke="none" stroke-width="1" fill="none" fill-rule="evenodd">
        <g id="iPhone-8-Plus-Copy" transform="translate(-101.000000, -23.000000)" fill="#FFFFFF" fill-rule="nonzero">
            <path d="M117.916667,40.5208333 C117.916667,43.5175 120.3575,45.9583333 123.354167,45.9583333 L131.8125,45.9583333 L131.8125,50.1875 C131.8125,51.184375 130.996875,52 130,52 L102.8125,52 C101.815625,52 101,51.184375 101,50.1875 L101,29.6458333 C101,29.4404167 101.012083,29.2410417 101.048333,29.0416667 L130,29.0416667 C130.996875,29.0416667 131.8125,29.8572917 131.8125,30.8541667 L131.8125,35.0833333 L123.354167,35.0833333 C120.3575,35.0833333 117.916667,37.5241667 117.916667,40.5208333 Z M133.020833,36.2916667 C134.017708,36.2916667 134.833333,37.1072917 134.833333,38.1041667 L134.833333,42.9375 C134.833333,43.934375 134.017708,44.75 133.020833,44.75 L131.8125,44.75 L123.354167,44.75 C121.022083,44.75 119.125,42.8529167 119.125,40.5208333 C119.125,38.18875 121.022083,36.2916667 123.354167,36.2916667 L131.8125,36.2916667 L133.020833,36.2916667 Z M123.958333,42.3333333 C124.955208,42.3333333 125.770833,41.5177083 125.770833,40.5208333 C125.770833,39.5239583 124.955208,38.7083333 123.958333,38.7083333 C122.961458,38.7083333 122.145833,39.5239583 122.145833,40.5208333 C122.145833,41.5177083 122.961458,42.3333333 123.958333,42.3333333 Z M125.166667,27.8333333 L102.794375,27.8333333 L101.39875,27.8333333 C101.966667,26.606875 103.096458,25.7127083 104.498125,25.4952083 L124.30875,23.018125 C124.38125,23.0060417 124.471875,23 124.5625,23 C125.565417,23 126.375,23.8277083 126.375,24.8366667 L126.375,27.8333333 L125.166667,27.8333333 Z" id="Combined-Shape"></path>
        </g>
    </g>
</svg>
