<?xml version="1.0" encoding="UTF-8"?>
<svg width="237px" height="249px" viewBox="0 0 237 249" version="1.1" xmlns="http://www.w3.org/2000/svg" xmlns:xlink="http://www.w3.org/1999/xlink">
    <!-- Generator: Sketch 54.1 (76490) - https://sketchapp.com -->
    <title>Combined Shape</title>
    <desc>Created with Sketch.</desc>
    <g id="Landing" stroke="none" stroke-width="1" fill="none" fill-rule="evenodd" opacity="0.60063244">
        <g id="iPhone-8-Plus-Copy-3" transform="translate(-177.000000, 0.000000)" fill="#E6E6E6" fill-rule="nonzero">
            <path d="M210.104453,151.105836 C204.439632,151.552856 198.60098,151.03134 192.588319,149.541272 C179.22133,146.36246 174.451027,136.267401 178.277265,119.25579 C182.103504,102.24418 196.389569,91.2550933 221.135891,86.2881997 L221.508574,86.2881997 C228.018149,85.2451517 234.850615,85.4438245 242.006178,86.8842233 C255.422858,89.7153534 260.46646,99.6862423 257.137136,116.797191 C253.807812,133.908138 239.844735,145.319405 215.247488,151.031333 C213.408906,151.130671 211.694578,151.155504 210.104453,151.105836 Z M214.129436,138.067805 C214.874808,138.067805 215.669858,138.042972 216.514612,137.993302 C227.893945,134.764821 234.353731,128.29554 235.894164,118.585264 C237.434599,108.874986 235.099138,103.22523 228.887711,101.635823 C225.608078,100.791451 222.452722,100.667282 219.421546,101.263308 L219.272472,101.263308 C207.793757,104.094438 201.172476,110.340213 199.408431,120.00082 C197.644385,129.661428 199.843198,135.385688 206.004932,137.173769 C208.837343,138.018141 211.545484,138.31615 214.129436,138.067805 Z M284.475229,130.882413 C281.863986,138.930105 279.927343,144.280651 278.665243,146.934213 C276.402166,149.457273 273.878002,151.088538 271.092676,151.828056 C269.830576,152.219565 268.938414,152.415316 268.416166,152.415316 C265.282674,152.415316 263.280752,150.240297 262.410337,145.890194 C261.97513,143.062627 261.75753,141.431362 261.75753,140.996352 C261.80105,136.64625 264.521055,127.51117 269.917622,113.59084 C275.314191,99.670509 280.449558,87.8166557 285.323879,78.0289237 C287.8916,73.2873115 291.917206,67.2842597 297.400817,60.0195866 C300.229663,57.366024 302.079265,56.0392621 302.949679,56.0392621 C304.429384,56.3437699 305.169225,57.039776 305.169225,58.1273013 L305.169225,61.5203652 C305.125705,67.4365058 302.188101,77.6590946 296.356325,92.1884388 C296.225762,92.4059445 295.703522,93.8849567 294.789587,96.6255223 L292.570042,103.868408 C297.879568,98.8222882 302.645015,94.9507542 306.866524,92.2536901 C310.174098,90.2526426 314.765465,88.0558735 320.640762,85.6633172 C323.252005,85.0543027 324.796967,84.9020515 325.275694,85.2065582 C325.972026,85.9460763 326.102586,86.6420824 325.667379,87.2945974 L324.296483,89.3826365 C321.946365,92.9932218 316.288757,98.169767 307.32349,104.912427 C307.149407,104.999429 306.279006,105.695435 304.71226,107.000466 L294.985429,116.983903 C294.767825,117.157907 294.571985,117.353659 294.397902,117.571164 C296.7045,120.181226 299.359224,123.248002 302.362153,126.771587 C314.025704,140.865921 323.513078,150.653505 330.824557,156.134636 L331.999611,158.548931 C332.347777,159.33195 332.086656,160.136707 331.216242,160.963226 C330.606952,161.311234 328.88791,161.071983 326.059063,160.245463 C318.965187,158.331417 313.002938,155.677894 308.172139,152.284814 C303.34134,148.891733 296.878611,143.345435 288.783759,135.645753 C287.217013,133.949212 285.780851,132.361448 284.475229,130.882413 Z M352.022405,97.2401448 L352.469626,97.2401448 C354.208825,97.2401448 355.302019,99.0778682 355.749243,102.753369 C356.047391,104.392444 356.196463,105.634148 356.196463,106.47852 C356.196463,114.028199 351.923065,125.675389 343.376143,141.420442 L339.425696,150.882326 C339.574771,151.875705 339.649307,152.670396 339.649307,153.266424 L339.649307,153.489932 C339.649307,155.278014 338.183432,156.172041 335.251639,156.172041 C330.928487,156.172041 328.1955,151.528066 327.052597,142.239975 C327.052597,135.335993 330.65517,126.296382 337.860425,115.120872 C345.413519,105.534767 349.463308,99.7980917 350.009914,97.9106726 C350.556519,97.4636513 351.227343,97.2401448 352.022405,97.2401448 Z M382.174474,135.430044 C379.405153,143.964924 377.35127,149.63938 376.012764,152.453584 C373.612686,155.129384 370.935715,156.859401 367.981771,157.643687 C366.643266,158.058898 365.697095,158.2665 365.143231,158.2665 C361.820045,158.2665 359.696931,155.95981 358.773824,151.346362 C358.31227,148.34762 358.081496,146.617604 358.081496,146.156258 C358.127651,141.54281 361.012318,131.854713 366.735583,117.091678 C372.458847,102.328642 377.905099,89.7571835 383.074499,79.3769245 C385.797665,74.3482658 390.066972,67.9818015 395.882547,60.2773427 C398.882645,57.4631389 400.844219,56.0560578 401.767326,56.0560578 C403.336608,56.3789994 404.121237,57.1171406 404.121237,58.2705023 L404.121237,61.8689742 C404.075082,68.143264 400.959642,78.9847063 394.774825,94.393624 C394.636358,94.6242962 394.082502,96.1928459 393.113239,99.0993182 L390.759328,106.780671 C396.390282,101.429071 401.444218,97.3231634 405.921288,94.4628254 C409.429095,92.3406389 414.298413,90.010883 420.529386,87.4734855 C423.298707,86.8276034 424.937198,86.6661346 425.444907,86.9890762 C426.183393,87.7733621 426.321857,88.5115032 425.860303,89.2035207 L424.406417,91.4179651 C421.914027,95.2471269 415.91392,100.737048 406.405916,107.887893 C406.221295,107.980163 405.298202,108.718303 403.636609,110.102338 L393.320937,120.69015 C393.090161,120.874688 392.882465,121.082289 392.697843,121.312962 C395.144078,124.081031 397.959512,127.333464 401.144232,131.070357 C413.513868,146.01793 423.575585,156.398034 431.329686,162.210979 L432.575875,164.77143 C432.945118,165.601851 432.668189,166.455327 431.745082,167.331882 C431.098907,167.700958 429.275797,167.447222 426.2757,166.570666 C418.752376,164.540748 412.429187,161.726587 407.305942,158.128098 C402.182696,154.529608 395.328728,148.647549 386.743832,140.481745 C385.082239,138.6825 383.559135,136.998617 382.174474,135.430044 Z M428.94379,119.293041 C432.770029,102.256597 447.056094,91.2550933 471.802416,86.2881997 C485.070022,86.0895238 492.337281,87.8775788 493.604412,91.652418 C494.871543,95.4272572 494.871543,99.4255464 493.604412,103.647406 C492.337281,107.869265 489.02043,112.562909 483.653757,117.728478 C478.287086,122.894048 467.876891,126.768166 452.422864,129.350951 C452.621629,136.503278 458.671468,138.341001 470.57256,134.864175 C482.473652,131.387349 490.324776,129.251617 494.126169,128.456915 C497.927563,127.662211 499.505241,128.816997 498.859253,131.921305 C498.213264,135.025614 492.113735,139.54542 480.560483,145.480857 C469.00723,151.416294 456.55972,152.78217 443.217577,149.578524 C429.875433,146.374878 425.117552,136.279817 428.94379,119.293041 Z M465.392256,100.667284 C458.584533,103.895765 453.938457,109.408934 451.453886,117.206957 L452.422864,119.665557 C472.05097,112.51323 480.833794,106.739303 478.771601,102.343602 C476.709408,97.9479017 472.249671,97.3891345 465.392256,100.667284 Z M371.178348,56.8595025 L373.41445,56.8595025 C374.308895,57.3561923 374.756111,58.0267128 374.756111,58.8710849 L374.756111,59.0945935 C374.607036,61.13102 369.439208,68.8544235 359.25247,82.265036 C356.916973,85.1955031 355.003882,86.6607147 353.513141,86.6607147 C353.513141,86.9587286 352.419945,87.1077329 350.233524,87.1077329 C347.003582,86.5613747 345.388636,85.1706652 345.388636,82.9355628 L345.388636,79.3594173 C345.388636,76.5779577 348.047086,72.1574881 353.364067,66.0978781 C358.134442,62.8197287 362.979282,60.1873141 367.898731,58.2005571 C368.942251,58.1012191 370.035445,57.6542051 371.178348,56.8595025 Z M475.678899,72.6559978 L477.391853,74.0926858 C477.757628,75.04785 477.669017,75.8488344 477.12602,76.4956599 L476.982287,76.6668778 C475.558507,78.1310917 466.632967,80.7272477 450.205395,84.4554251 C446.531782,85.1997436 444.124023,85.093006 442.982049,84.1352091 C442.790403,84.3635003 441.857145,83.7752703 440.182248,82.3705012 C438.059321,79.876739 437.716536,77.773796 439.153881,76.0616086 L441.453623,73.3221222 C443.242321,71.1913994 448.12152,69.5131702 456.091368,68.2873833 C461.853795,68.8411265 467.258007,69.9373741 472.304165,71.5761615 C473.167429,72.1705219 474.29233,72.5304638 475.678899,72.6559978 Z M350.067235,-18.475457 C349.967712,-20.007558 350.139313,-21.7577957 350.58204,-23.7261721 C352.206293,-30.9476707 358.270787,-35.6125827 368.775702,-37.721049 L368.933907,-37.721049 C371.697248,-38.1638278 374.597658,-38.0794897 377.635223,-37.4680348 C383.330659,-36.2662092 385.471688,-32.0335256 384.058377,-24.7698585 C383.160179,-20.1536006 380.438772,-16.5145815 375.894109,-13.8527637 C387.583542,-10.9234145 398.595822,-6.99326307 407.942712,-2.42893438 C455.376127,20.89438 460.774122,49.7253267 460.774122,49.7253267 C460.774122,49.7253267 461.817503,52.4160651 460.134678,54.2594415 C458.939297,55.557918 457.349832,55.5574489 455.42399,55.2901578 C431.316487,50.8531202 393.159487,44.9159696 345.720449,40.6576018 C312.423796,37.6442478 258.510083,36.0859999 240.306775,35.6747514 C238.160435,35.616135 236.629144,35.0590435 236.072737,33.4121502 C235.51633,31.7652569 237.013841,28.8433345 237.640619,27.915784 C237.640619,27.915784 259.347492,-10.2656979 314.250161,-18.1700529 C325.471378,-19.8237023 337.753139,-19.7983525 350.067235,-18.475457 Z M360.687887,-17.0190836 C362.824363,-16.6634824 364.952814,-16.2717396 367.067782,-15.8458799 C371.740676,-17.2399 374.39827,-19.9615189 375.040649,-24.0108138 C375.694569,-28.1328662 374.703156,-30.5312112 372.066381,-31.20592 C370.674163,-31.5643596 369.334701,-31.6170703 368.047954,-31.364054 L367.984673,-31.364054 C363.111911,-30.1622284 360.30115,-27.5108712 359.552306,-23.4099041 C358.993259,-20.3483421 359.371782,-18.2180791 360.687887,-17.0190836 Z M310.475158,-13.2749964 C284.00028,-11.5325909 259.890059,6.82798051 255.39549,16.5669467 C253.633834,20.4283012 258.743333,22.998048 260.828613,18.8989885 C272.348259,2.23735552 293.325749,-9.79865794 310.475158,-13.2749964 Z M215.740869,185.387808 C217.097078,184.103449 218.155338,184.044012 220.71179,183.937039 C280.414312,180.62044 379.682591,185.772237 438.178414,192.683164 C440.722726,193.016214 442.553438,193.682237 443.253976,195.418559 C444.120775,197.51166 442.954183,199.902026 441.99027,201.329103 C437.349103,208.381248 401.044468,257.246686 316.819715,247.790157 C261.605162,241.628537 221.019258,207.90044 215.369162,190.882135 C215.369162,190.882135 213.789686,187.492734 215.740869,185.387808 Z M348.342891,236.189943 C369.393113,235.672987 392.148808,228.193747 409.530638,211.058241 C414.528155,206.122985 407.506923,200.01421 402.613689,206.29069 C391.485394,218.947885 373.476708,231.945486 348.342891,236.189943 Z M426.658746,42.0904432 C437.737158,43.2697512 443.508981,44.9763202 445.271244,40.4068463 C448.226761,32.8305258 429.73815,16.0763267 409.161584,10.4584058 C428.979155,19.2411589 438.293391,31.4779106 436.333476,36.8602963 C435.155867,40.3643999 431.009645,42.2969408 426.658746,42.0904432 Z M464.516987,182 C466.623349,182 468.554152,182.512985 470.309453,183.538971 C472.064755,184.564956 473.451989,185.957344 474.471196,187.716176 C475.490404,189.475009 476,191.391656 476,193.466176 C476,195.518148 475.490404,197.429158 474.471196,199.199265 C473.451989,200.969372 472.059093,202.378671 470.292467,203.427206 C468.525841,204.475741 466.578051,205 464.44904,205 C462.342678,205 460.411875,204.481378 458.656573,203.444118 C456.901271,202.406858 455.5197,201.008832 454.511817,199.25 C453.503934,197.491168 453,195.585795 453,193.533824 C453,191.481852 453.509596,189.570842 454.528804,187.800735 C455.548011,186.030628 456.935245,184.621329 458.690547,183.572794 C460.445848,182.524259 462.387976,182 464.516987,182 Z M464.44904,202.463235 C466.12507,202.463235 467.65952,202.057357 469.052437,201.245588 C470.445354,200.433819 471.543817,199.340203 472.347858,197.964706 C473.1519,196.589209 473.553914,195.089714 473.553914,193.466176 C473.553914,191.842639 473.157562,190.348781 472.364845,188.984559 C471.572128,187.620336 470.48499,186.537994 469.103397,185.7375 C467.721805,184.937006 466.193017,184.536765 464.516987,184.536765 C462.840957,184.536765 461.312168,184.942643 459.930576,185.754412 C458.548984,186.566181 457.456183,187.659797 456.652142,189.035294 C455.8481,190.410791 455.446086,191.910286 455.446086,193.533824 C455.446086,195.157361 455.842438,196.651219 456.635155,198.015441 C457.427872,199.379664 458.509348,200.462006 459.879616,201.2625 C461.249884,202.062994 462.77301,202.463235 464.44904,202.463235 Z M469.375185,191.436765 C469.375185,192.293632 469.193995,193.02083 468.83161,193.618382 C468.469225,194.215934 467.948305,194.672547 467.268833,194.988235 L469.680945,198.641176 L466.861152,198.641176 L465.094535,195.461765 L462.580502,195.461765 L462.580502,198.641176 L460.134417,198.641176 L460.134417,187.648529 L464.822747,187.648529 C466.272287,187.648529 467.393398,187.981124 468.186115,188.646324 C468.978832,189.311523 469.375185,190.241661 469.375185,191.436765 Z M462.580502,193.5 L464.822747,193.5 C465.524868,193.5 466.068437,193.330884 466.453471,192.992647 C466.838505,192.65441 467.031019,192.169611 467.031019,191.538235 C467.031019,190.90686 466.838505,190.427698 466.453471,190.100735 C466.068437,189.773773 465.524868,189.610294 464.822747,189.610294 L462.580502,189.610294 L462.580502,193.5 Z" id="Combined-Shape"></path>
        </g>
    </g>
</svg>