<?xml version="1.0" encoding="UTF-8"?>
<svg width="274px" height="283px" viewBox="0 0 274 283" version="1.1" xmlns="http://www.w3.org/2000/svg" xmlns:xlink="http://www.w3.org/1999/xlink">
    <!-- Generator: Sketch 54.1 (76490) - https://sketchapp.com -->
    <title>ExploreyourTribalTaste,justthewayyouloveit</title>
    <desc>Created with Sketch.</desc>
    <g id="Onboarding" stroke="none" stroke-width="1" fill="none" fill-rule="evenodd" opacity="0.05">
        <g id="iPhone-8-Plus-Copy" transform="translate(-140.000000, -453.000000)" fill="#000000" fill-rule="nonzero">
            <path d="M194,456 L228.156627,456 L228.156627,462.09 L200.746988,462.09 L200.746988,477.21 L225.2751,477.21 L225.2751,483.3 L200.746988,483.3 L200.746988,498.91 L229,498.91 L229,505 L194,505 L194,456 Z M234.908184,468 L242.453094,468 L251.60479,481.568998 L260.896208,468 L268.091816,468 L255.936128,486.045369 L269,505 L261.38523,505 L251.60479,490.451796 L241.335329,505 L234,505 L247.273453,486.045369 L234.908184,468 Z M297.224678,467 C300.67712,467 303.756279,467.796135 306.462247,469.38843 C309.168215,470.980724 311.267641,473.20522 312.760589,476.061983 C314.253537,478.918747 315,482.196951 315,485.896694 C315,489.549605 314.265201,492.792686 312.79558,495.626033 C311.32596,498.459381 309.24986,500.66046 306.567219,502.229339 C303.884578,503.798217 300.817083,504.582645 297.364641,504.582645 C294.238781,504.582645 291.4862,503.927004 289.106814,502.615702 C286.727428,501.304401 284.861271,499.431142 283.508287,496.995868 L283.508287,518 L277,518 L277,467.210744 L283.508287,467.210744 L283.508287,474.586777 C284.861271,472.151503 286.715765,470.278243 289.071823,468.966942 C291.427882,467.655641 294.145473,467 297.224678,467 Z M296.535211,499 C298.929589,499 301.077455,498.445339 302.978873,497.336 C304.880291,496.226661 306.35915,494.678232 307.415493,492.690667 C308.471836,490.703101 309,488.461346 309,485.965333 C309,483.515543 308.460099,481.296899 307.380282,479.309333 C306.300464,477.321768 304.821606,475.773339 302.943662,474.664 C301.065718,473.554661 298.929589,473 296.535211,473 C294.140833,473 291.992967,473.554661 290.091549,474.664 C288.190131,475.773339 286.699536,477.321768 285.619718,479.309333 C284.539901,481.296899 284,483.515543 284,485.965333 C284,488.507568 284.539901,490.760879 285.619718,492.725333 C286.699536,494.689788 288.190131,496.226661 290.091549,497.336 C291.992967,498.445339 294.140833,499 296.535211,499 Z M324,453 L331,453 L331,505 L324,505 L324,453 Z M360.034991,468 C363.720706,468 366.998144,468.783793 369.867403,470.351402 C372.736663,471.919011 374.976051,474.097494 376.585635,476.886916 C378.19522,479.676338 379,482.869141 379,486.465421 C379,490.0617 378.19522,493.26603 376.585635,496.078505 C374.976051,498.89098 372.736663,501.080989 369.867403,502.648598 C366.998144,504.216207 363.720706,505 360.034991,505 C356.302621,505 353.001856,504.216207 350.132597,502.648598 C347.263337,501.080989 345.023949,498.902506 343.414365,496.113084 C341.80478,493.323662 341,490.107806 341,486.465421 C341,482.869141 341.80478,479.676338 343.414365,476.886916 C345.023949,474.097494 347.263337,471.919011 350.132597,470.351402 C353.001856,468.783793 356.302621,468 360.034991,468 Z M359.535211,473 C357.093885,473 354.922545,473.554661 353.021127,474.664 C351.119709,475.773339 349.64085,477.310212 348.584507,479.274667 C347.528164,481.239121 347,483.469321 347,485.965333 C347,488.507568 347.528164,490.772435 348.584507,492.76 C349.64085,494.747565 351.119709,496.284439 353.021127,497.370667 C354.922545,498.456894 357.093885,499 359.535211,499 C361.929589,499 364.077455,498.456894 365.978873,497.370667 C367.880291,496.284439 369.35915,494.747565 370.415493,492.76 C371.471836,490.772435 372,488.507568 372,485.965333 C372,483.469321 371.471836,481.239121 370.415493,479.274667 C369.35915,477.310212 367.880291,475.773339 365.978873,474.664 C364.077455,473.554661 361.929589,473 359.535211,473 Z M394.619217,475.137218 C395.852912,472.494348 397.60853,470.489042 399.886121,469.121241 C402.163712,467.753439 404.868312,467.046366 408,467 L408,473.259398 C404.156564,473.1203 401.048648,474.093975 398.676157,476.180451 C396.303665,478.266928 394.951366,481.072038 394.619217,484.595865 L394.619217,504 L388,504 L388,467.208647 L394.619217,467.208647 L394.619217,475.137218 Z M429.526316,468 C435.280731,468 439.631564,469.671323 442.578947,473.014019 C445.526331,476.356715 447,481.001839 447,486.949533 C447,487.871656 446.976608,488.563238 446.929825,489.024299 L417.596491,489.024299 C418.111114,492.297836 419.502913,494.902794 421.77193,496.839252 C424.040947,498.775711 426.836241,499.743925 430.157895,499.743925 C432.356736,499.743925 434.403499,499.352029 436.298246,498.568224 C438.192992,497.78442 439.842098,496.677889 441.245614,495.248598 L444.824561,498.914019 C442.999991,500.850477 440.801182,502.348904 438.22807,503.409346 C435.654958,504.469787 432.801185,505 429.666667,505 C426.017526,505 422.777792,504.227734 419.947368,502.683178 C417.116945,501.138622 414.918136,498.960139 413.350877,496.147664 C411.783618,493.335188 411,490.130859 411,486.534579 C411,482.9383 411.783618,479.745497 413.350877,476.956075 C414.918136,474.166653 417.105249,471.976643 419.912281,470.385981 C422.719312,468.795319 425.923959,468 429.526316,468 Z M441,484 C440.817459,480.593531 439.722232,477.908612 437.714286,475.945161 C435.706339,473.981711 433.05954,473 429.77381,473 C426.579349,473 423.921142,473.993538 421.799107,475.980645 C419.677073,477.967752 418.410716,480.640843 418,484 L441,484 Z M262.310345,553.371389 C261.160914,556.224223 259.632193,558.375509 257.724138,559.825309 C255.816082,561.27511 253.574726,562 251,562 C249.436774,562 248.011501,561.766165 246.724138,561.298487 C245.436775,560.830809 244.195408,560.10592 243,559.123796 L245.758621,554.002751 C247.367824,555.171945 248.999992,555.756534 250.655172,555.756534 C253.413807,555.756534 255.482752,554.166453 256.862069,550.986245 L258.241379,547.689133 L243.137931,511 L249.896552,511 L261.482759,540.744154 L272.448276,511 L279,511 L262.310345,553.371389 Z M300.034991,511 C303.720706,511 306.998144,511.783793 309.867403,513.351402 C312.736663,514.919011 314.976051,517.097494 316.585635,519.886916 C318.19522,522.676338 319,525.869141 319,529.465421 C319,533.0617 318.19522,536.26603 316.585635,539.078505 C314.976051,541.89098 312.736663,544.080989 309.867403,545.648598 C306.998144,547.216207 303.720706,548 300.034991,548 C296.302621,548 293.001856,547.216207 290.132597,545.648598 C287.263337,544.080989 285.023949,541.902506 283.414365,539.113084 C281.80478,536.323662 281,533.107806 281,529.465421 C281,525.869141 281.80478,522.676338 283.414365,519.886916 C285.023949,517.097494 287.263337,514.919011 290.132597,513.351402 C293.001856,511.783793 296.302621,511 300.034991,511 Z M299.535211,517 C297.093885,517 294.922545,517.554661 293.021127,518.664 C291.119709,519.773339 289.64085,521.310212 288.584507,523.274667 C287.528164,525.239121 287,527.469321 287,529.965333 C287,532.507568 287.528164,534.772435 288.584507,536.76 C289.64085,538.747565 291.119709,540.284439 293.021127,541.370667 C294.922545,542.456894 297.093885,543 299.535211,543 C301.929589,543 304.077455,542.456894 305.978873,541.370667 C307.880291,540.284439 309.35915,538.747565 310.415493,536.76 C311.471836,534.772435 312,532.507568 312,529.965333 C312,527.469321 311.471836,525.239121 310.415493,523.274667 C309.35915,521.310212 307.880291,519.773339 305.978873,518.664 C304.077455,517.554661 301.929589,517 299.535211,517 Z M360,511 L360,547.791353 L353.423868,547.791353 L353.423868,540.00188 C350.998616,545.241254 346.428017,547.907268 339.711934,548 C335.421103,548 332.063112,546.736541 329.63786,544.209586 C327.212608,541.682631 326,538.193631 326,533.742481 L326,511 L332.576132,511 L332.576132,532.003759 C332.576132,535.110291 333.427289,537.532886 335.12963,539.271617 C336.83197,541.010347 339.175568,541.879699 342.160494,541.879699 C345.611814,541.833333 348.351842,540.61624 350.380658,538.228383 C352.409475,535.840527 353.423868,532.791998 353.423868,529.082707 L353.423868,511 L360,511 Z M379.619217,519.137218 C380.852912,516.494348 382.60853,514.489042 384.886121,513.121241 C387.163712,511.753439 389.868312,511.046366 393,511 L393,517.259398 C389.156564,517.1203 386.048648,518.093975 383.676157,520.180451 C381.303665,522.266928 379.951366,525.072038 379.619217,528.595865 L379.619217,548 L373,548 L373,511.208647 L379.619217,511.208647 L379.619217,519.137218 Z M216,542 L258,542 L258,552.554922 L243.324459,552.554922 L243.324459,591 L230.535774,591 L230.535774,552.554922 L216,552.554922 L216,542 Z M273.642045,559.726277 C274.96781,557.553517 276.684175,555.8893 278.791193,554.733577 C280.898211,553.577853 283.301123,553 286,553 L286,564.30292 C285.573862,564.256691 284.934663,564.233577 284.082386,564.233577 C281.099417,564.233577 278.684668,564.915443 276.838068,566.279197 C274.991468,567.642951 273.926138,569.503638 273.642045,571.861314 L273.642045,591 L261,591 L261,553.485401 L273.642045,553.485401 L273.642045,559.726277 Z M292,554 L304,554 L304,592 L292,592 L292,554 Z M297.5,536 C299.39008,536 300.945916,536.60438 302.167553,537.813158 C303.389191,539.021936 304,540.584201 304,542.5 C304,544.370185 303.389191,545.921046 302.167553,547.152632 C300.945916,548.384217 299.39008,549 297.5,549 C295.60992,549 294.054084,548.384217 292.832447,547.152632 C291.610809,545.921046 291,544.370185 291,542.5 C291,540.584201 291.610809,539.021936 292.832447,537.813158 C294.054084,536.60438 295.60992,536 297.5,536 Z M337.458404,553.55615 C340.938897,553.55615 344.001685,554.355607 346.646859,555.954545 C349.292034,557.553484 351.345494,559.824406 352.807301,562.76738 C354.269107,565.710353 355,569.10515 355,572.951872 C355,576.752247 354.29231,580.089112 352.87691,582.962567 C351.46151,585.836021 349.442854,588.060598 346.820883,589.636364 C344.198912,591.212129 341.170928,592 337.736842,592 C335.370107,592 333.223835,591.548133 331.297963,590.644385 C329.37209,589.740637 327.736283,588.431381 326.390492,586.716578 L326.390492,591.582888 L314,591.582888 L314,540 L326.390492,540 L326.390492,558.839572 C329.12848,555.317273 332.817747,553.55615 337.458404,553.55615 Z M333.931034,582 C336.321851,582 338.26436,581.128881 339.758621,579.386617 C341.252881,577.644353 342,575.360609 342,572.535316 C342,569.710023 341.252881,567.414507 339.758621,565.648699 C338.26436,563.882891 336.321851,563 333.931034,563 C331.586195,563 329.678168,563.882891 328.206897,565.648699 C326.735625,567.414507 326,569.710023 326,572.535316 C326,575.360609 326.735625,577.644353 328.206897,579.386617 C329.678168,581.128881 331.586195,582 333.931034,582 Z M378.23327,553 C383.515641,553 387.618851,554.204125 390.543021,556.61241 C393.467191,559.020695 394.952836,562.399259 395,566.748201 L395,591.438849 L382.619503,591.438849 L382.619503,587.160072 C380.072645,590.386707 376.228834,592 371.087954,592 C367.031847,592 363.836532,590.912781 361.501912,588.738309 C359.167292,586.563838 358,583.699658 358,580.145683 C358,576.544946 359.261619,573.739219 361.784895,571.728417 C364.308171,569.717616 367.927956,568.688849 372.644359,568.642086 L382.619503,568.642086 L382.619503,568.221223 C382.619503,566.397473 381.994589,564.994609 380.744742,564.01259 C379.494895,563.030571 377.690898,562.539568 375.332696,562.539568 C373.729119,562.539568 371.925122,562.79676 369.92065,563.311151 C367.916179,563.825542 365.899946,564.573736 363.871893,565.555755 L360.405354,557.138489 C363.51818,555.735604 366.50126,554.695147 369.354685,554.017086 C372.208109,553.339025 375.167607,553 378.23327,553 Z M375.243094,583 C377.158389,583 378.834247,582.55556 380.270718,581.666667 C381.70719,580.777773 382.616941,579.626788 383,578.213675 L383,575 L375.38674,575 C371.795562,575 370,576.276341 370,578.82906 C370,580.105419 370.466846,581.119654 371.400552,581.871795 C372.334259,582.623935 373.615093,583 375.243094,583 Z M404,540 L416,540 L416,592 L404,592 L404,540 Z M144,586 L186,586 L186,596.554922 L171.324459,596.554922 L171.324459,635 L158.535774,635 L158.535774,596.554922 L144,596.554922 L144,586 Z M205.23327,597 C210.515641,597 214.618851,598.204125 217.543021,600.61241 C220.467191,603.020695 221.952836,606.399259 222,610.748201 L222,635.438849 L209.619503,635.438849 L209.619503,631.160072 C207.072645,634.386707 203.228834,636 198.087954,636 C194.031847,636 190.836532,634.912781 188.501912,632.738309 C186.167292,630.563838 185,627.699658 185,624.145683 C185,620.544946 186.261619,617.739219 188.784895,615.728417 C191.308171,613.717616 194.927956,612.688849 199.644359,612.642086 L209.619503,612.642086 L209.619503,612.221223 C209.619503,610.397473 208.994589,608.994609 207.744742,608.01259 C206.494895,607.030571 204.690898,606.539568 202.332696,606.539568 C200.729119,606.539568 198.925122,606.79676 196.92065,607.311151 C194.916179,607.825542 192.899946,608.573736 190.871893,609.555755 L187.405354,601.138489 C190.51818,599.735604 193.50126,598.695147 196.354685,598.017086 C199.208109,597.339025 202.167607,597 205.23327,597 Z M202.243094,627 C204.158389,627 205.834247,626.55556 207.270718,625.666667 C208.70719,624.777773 209.616941,623.626788 210,622.213675 L210,619 L202.38674,619 C198.795562,619 197,620.276341 197,622.82906 C197,624.105419 197.466846,625.119654 198.400552,625.871795 C199.334259,626.623935 200.615093,627 202.243094,627 Z M255.813953,609.533214 C250.930208,606.965876 246.930248,605.682226 243.813953,605.682226 C242.744181,605.682226 241.883724,605.880608 241.232558,606.277379 C240.581392,606.674149 240.255814,607.269296 240.255814,608.062837 C240.255814,608.903056 240.767437,609.57989 241.790698,610.093357 C242.813959,610.606825 244.441849,611.166963 246.674419,611.773788 C249.372107,612.567329 251.61627,613.349188 253.406977,614.11939 C255.197683,614.889591 256.74418,616.056545 258.046512,617.620287 C259.348844,619.184029 260,621.226199 260,623.746858 C260,627.574525 258.523271,630.573598 255.569767,632.744165 C252.616264,634.914733 248.767466,636 244.023256,636 C240.813937,636 237.744201,635.544888 234.813953,634.63465 C231.883706,633.724412 229.279081,632.382415 227,630.608618 L230.906977,622.556553 C233.046522,624.050277 235.290686,625.205561 237.639535,626.022442 C239.988384,626.839322 242.209292,627.247756 244.302326,627.247756 C245.511634,627.247756 246.476741,627.049374 247.197674,626.652603 C247.918608,626.255833 248.27907,625.684025 248.27907,624.937163 C248.27907,624.003586 247.755819,623.280074 246.709302,622.766607 C245.662785,622.253139 244.023267,621.693001 241.790698,621.086176 C239.139522,620.292635 236.953497,619.510776 235.232558,618.740575 C233.511619,617.970373 232.011634,616.815088 230.732558,615.274686 C229.453482,613.734283 228.813953,611.727122 228.813953,609.253142 C228.813953,605.425475 230.2558,602.426402 233.139535,600.255835 C236.02327,598.085267 239.744163,597 244.302326,597 C247.046525,597 249.755801,597.373425 252.430233,598.120287 C255.104665,598.867149 257.627895,599.964086 260,601.411131 L255.813953,609.533214 Z M291,632.485884 C289.606958,633.277369 288.004984,633.894252 286.19403,634.336553 C284.383076,634.778853 282.548931,635 280.691542,635 C276.976764,635 273.970161,633.929184 271.671642,631.787519 C269.373123,629.645854 268.223881,626.689469 268.223881,622.918276 L268.223881,606.716196 L263,606.716196 L263,598.475483 L268.223881,598.475483 L268.223881,588 L280.552239,588 L280.552239,598.475483 L290.303483,598.475483 L290.303483,606.716196 L280.552239,606.716196 L280.552239,620.962853 C280.552239,623.616655 281.643439,624.943536 283.825871,624.943536 C285.172478,624.943536 286.774452,624.524521 288.631841,623.686478 L291,632.485884 Z M313.780576,597 C319.953268,597 324.699624,598.833616 328.019784,602.500904 C331.339945,606.168192 333,611.198883 333,617.593128 C333,618.580475 332.976619,619.332728 332.929856,619.84991 L306.555755,619.84991 C307.163672,622.012669 308.21582,623.669976 309.71223,624.821881 C311.208641,625.973785 313.032363,626.549729 315.183453,626.549729 C316.820152,626.549729 318.398374,626.220618 319.918165,625.562387 C321.437957,624.904156 322.82913,623.940332 324.091727,622.670886 L330.615108,629.229656 C328.651069,631.439432 326.277892,633.120247 323.495504,634.272152 C320.713116,635.424056 317.568363,636 314.061151,636 C309.992785,636 306.438864,635.200731 303.399281,633.60217 C300.359697,632.003609 298.033281,629.74685 296.419964,626.831826 C294.806647,623.916803 294,620.531665 294,616.676311 C294,612.773941 294.818337,609.330033 296.455036,606.344485 C298.091735,603.358936 300.40646,601.055162 303.399281,599.433092 C306.392101,597.811023 309.852498,597 313.780576,597 Z M321,613 C321,610.891015 320.338949,609.197122 319.016827,607.918269 C317.694705,606.639417 315.951934,606 313.788462,606 C311.769221,606 310.074526,606.628199 308.704327,607.884615 C307.334128,609.141032 306.432694,610.846143 306,613 L321,613 Z M343.12234,623 C344.781923,623 346.176413,623.52447 347.305851,624.573427 C348.435289,625.622383 349,627.079245 349,628.944056 C349,630.342664 348.469863,631.92773 347.409574,633.699301 L341.87766,643 L336,643 L339.595745,633.699301 C338.028361,632.580414 337.244681,630.995348 337.244681,628.944056 C337.244681,627.219106 337.797867,625.797208 338.904255,624.678322 C340.010644,623.559435 341.416658,623 343.12234,623 Z M366.545455,642.747934 C367.575763,643.122591 368.699718,643.356749 369.917355,643.450413 C371.696979,643.497245 373.055092,642.888436 373.991736,641.623967 C374.928379,640.359498 375.396694,638.509654 375.396694,636.07438 L375.396694,598 L382,598 L382,636.987603 C382,640.827843 381.075078,643.789934 379.225207,645.873967 C377.375335,647.957999 374.76448,649 371.392562,649 C369.285113,649 367.154281,648.578517 365,647.735537 L366.545455,642.747934 Z M379,583 C380.149431,583 381.103444,583.377774 381.862069,584.133333 C382.620693,584.888893 383,585.844439 383,587 C383,588.155561 382.620693,589.111107 381.862069,589.866667 C381.103444,590.622226 380.149431,591 379,591 C377.850569,591 376.896556,590.622226 376.137931,589.866667 C375.379307,589.111107 375,588.155561 375,587 C375,585.844439 375.379307,584.888893 376.137931,584.133333 C376.896556,583.377774 377.850569,583 379,583 Z M427,598 L427,634.791353 L420.423868,634.791353 L420.423868,627.00188 C417.998616,632.241254 413.428017,634.907268 406.711934,635 C402.421103,635 399.063112,633.736541 396.63786,631.209586 C394.212608,628.682631 393,625.193631 393,620.742481 L393,598 L399.576132,598 L399.576132,619.003759 C399.576132,622.110291 400.427289,624.532886 402.12963,626.271617 C403.83197,628.010347 406.175568,628.879699 409.160494,628.879699 C412.611814,628.833333 415.351842,627.61624 417.380658,625.228383 C419.409475,622.840527 420.423868,619.791998 420.423868,616.082707 L420.423868,598 L427,598 Z M459.681481,606.352612 C458.160486,605.432209 456.489721,604.695898 454.669136,604.143657 C452.848551,603.591415 451.10865,603.315299 449.449383,603.315299 C447.513571,603.315299 445.958031,603.671949 444.782716,604.385261 C443.607402,605.098573 443.019753,606.191535 443.019753,607.664179 C443.019753,609.136823 443.676537,610.252795 444.990123,611.012127 C446.30371,611.771459 448.297106,612.542285 450.97037,613.324627 C453.505362,614.060949 455.579416,614.79726 457.192593,615.533582 C458.805769,616.269904 460.176949,617.351361 461.306173,618.777985 C462.435397,620.204609 463,622.091406 463,624.438433 C463,627.889943 461.697955,630.513051 459.093827,632.307836 C456.489699,634.102621 453.251871,635 449.380247,635 C446.660892,635 444.022235,634.562815 441.464198,633.688433 C438.90616,632.81405 436.751449,631.571525 435,629.960821 L437.419753,625.266791 C438.940748,626.647395 440.818919,627.751862 443.054321,628.580224 C445.289723,629.408586 447.467479,629.822761 449.587654,629.822761 C451.70783,629.822761 453.413162,629.431596 454.703704,628.649254 C455.994245,627.866912 456.639506,626.670406 456.639506,625.059701 C456.639506,623.402977 455.959678,622.160452 454.6,621.33209 C453.240322,620.503727 451.177792,619.675377 448.412346,618.847015 C445.969535,618.156713 443.976139,617.454917 442.432099,616.741604 C440.888058,616.028292 439.574491,614.98135 438.491358,613.600746 C437.408225,612.220142 436.866667,610.425384 436.866667,608.216418 C436.866667,604.810928 438.111099,602.256849 440.6,600.554104 C443.088901,598.85136 446.199981,598 449.933333,598 C452.14569,598 454.323446,598.310631 456.466667,598.931903 C458.609887,599.553175 460.465013,600.39303 462.032099,601.451493 L459.681481,606.352612 Z M492,632.269406 C489.129397,634.089811 486.21178,635 483.247059,635 C480.282338,635 477.882362,634.124818 476.047059,632.374429 C474.211756,630.62404 473.294118,627.975157 473.294118,624.427702 L473.294118,603.913242 L468,603.913242 L468,598.942161 L473.294118,598.942161 L473.294118,589 L479.929412,589 L479.929412,598.942161 L491.364706,598.942161 L491.364706,603.913242 L479.929412,603.913242 L479.929412,623.237443 C479.929412,625.291233 480.305879,626.761538 481.058824,627.648402 C481.811768,628.535266 482.941169,628.978691 484.447059,628.978691 C486.235303,628.978691 488.164696,628.395237 490.235294,627.228311 L492,632.269406 Z M210,676.269406 C207.129397,678.089811 204.21178,679 201.247059,679 C198.282338,679 195.882362,678.124818 194.047059,676.374429 C192.211756,674.62404 191.294118,671.975157 191.294118,668.427702 L191.294118,647.913242 L186,647.913242 L186,642.942161 L191.294118,642.942161 L191.294118,633 L197.929412,633 L197.929412,642.942161 L209.364706,642.942161 L209.364706,647.913242 L197.929412,647.913242 L197.929412,667.237443 C197.929412,669.291233 198.305879,670.761538 199.058824,671.648402 C199.811768,672.535266 200.941169,672.978691 202.447059,672.978691 C204.235303,672.978691 206.164696,672.395237 208.235294,671.228311 L210,676.269406 Z M238.90081,640.716981 C243.293544,640.716981 246.741553,641.990104 249.244939,644.536388 C251.748326,647.082672 253,650.59836 253,655.083558 L253,678 L246.410931,678 L246.410931,656.83558 C246.410931,653.705285 245.525312,651.26416 243.754049,649.512129 C241.982785,647.760099 239.538477,646.884097 236.421053,646.884097 C232.784057,646.930818 229.902845,648.145541 227.777328,650.528302 C225.651811,652.911063 224.589069,655.99459 224.589069,659.778976 L224.589069,678 L218,678 L218,626 L224.589069,626 L224.589069,648.916442 C227.092455,643.543549 231.862988,640.810423 238.90081,640.716981 Z M279.526316,641 C285.280731,641 289.631564,642.671323 292.578947,646.014019 C295.526331,649.356715 297,654.001839 297,659.949533 C297,660.871656 296.976608,661.563238 296.929825,662.024299 L267.596491,662.024299 C268.111114,665.297836 269.502913,667.902794 271.77193,669.839252 C274.040947,671.775711 276.836241,672.743925 280.157895,672.743925 C282.356736,672.743925 284.403499,672.352029 286.298246,671.568224 C288.192992,670.78442 289.842098,669.677889 291.245614,668.248598 L294.824561,671.914019 C292.999991,673.850477 290.801182,675.348904 288.22807,676.409346 C285.654958,677.469787 282.801185,678 279.666667,678 C276.017526,678 272.777792,677.227734 269.947368,675.683178 C267.116945,674.138622 264.918136,671.960139 263.350877,669.147664 C261.783618,666.335188 261,663.130859 261,659.534579 C261,655.9383 261.783618,652.745497 263.350877,649.956075 C264.918136,647.166653 267.105249,644.976643 269.912281,643.385981 C272.719312,641.795319 275.923959,641 279.526316,641 Z M290,658 C289.817459,654.593531 288.722232,651.908612 286.714286,649.945161 C284.706339,647.981711 282.05954,647 278.77381,647 C275.579349,647 272.921142,647.993538 270.799107,649.980645 C268.677073,651.967752 267.410716,654.640843 267,658 L290,658 Z M318,641 L324.746864,641 L335.041049,671.565217 L345.196123,641 L351.942987,641 L362.167617,671.565217 L372.322691,641 L379,641 L365.436716,678 L358.689852,678 L348.534778,648.903592 L338.379704,678 L331.632839,678 L318,641 Z M406.6,677.723881 L406.6,672.615672 C403.863754,676.205242 399.573942,678 393.730435,678 C391.179697,678 388.942039,677.516796 387.017391,676.550373 C385.092744,675.58395 383.608701,674.249387 382.565217,672.546642 C381.521734,670.843897 381,668.93409 381,666.817164 C381,663.549735 382.217379,660.961141 384.652174,659.051306 C387.086969,657.141471 390.484036,656.163557 394.843478,656.117537 L406.530435,656.117537 L406.530435,654.391791 C406.530435,651.814664 405.730443,649.824323 404.130435,648.420709 C402.530427,647.017095 400.200015,646.315299 397.13913,646.315299 C393.428967,646.315299 389.649295,647.626853 385.8,650.25 L383.086957,645.83209 C385.730448,644.129345 388.1768,642.898325 390.426087,642.138993 C392.675374,641.37966 395.353608,641 398.46087,641 C403.052197,641 406.599987,642.115971 409.104348,644.347948 C411.608708,646.579924 412.884058,649.697741 412.930435,653.701493 L413,677.723881 L406.6,677.723881 Z M395.172043,673 C398.278391,673 400.918747,672.250008 403.09319,670.75 C405.267633,669.249993 406.56989,667.261917 407,664.785714 L407,661 L395.888889,661 C392.878121,661 390.643974,661.452376 389.18638,662.357143 C387.728786,663.261909 387,664.690466 387,666.642857 C387,668.595248 387.740733,670.142851 389.222222,671.285714 C390.703711,672.428577 392.686965,673 395.172043,673 Z M436.310345,683.371389 C435.160914,686.224223 433.632193,688.375509 431.724138,689.825309 C429.816082,691.27511 427.574726,692 425,692 C423.436774,692 422.011501,691.766165 420.724138,691.298487 C419.436775,690.830809 418.195408,690.10592 417,689.123796 L419.758621,684.002751 C421.367824,685.171945 422.999992,685.756534 424.655172,685.756534 C427.413807,685.756534 429.482752,684.166453 430.862069,680.986245 L432.241379,677.689133 L417.137931,641 L423.896552,641 L435.482759,670.744154 L446.448276,641 L453,641 L436.310345,683.371389 Z M159.310345,727.371389 C158.160914,730.224223 156.632193,732.375509 154.724138,733.825309 C152.816082,735.27511 150.574726,736 148,736 C146.436774,736 145.011501,735.766165 143.724138,735.298487 C142.436775,734.830809 141.195408,734.10592 140,733.123796 L142.758621,728.002751 C144.367824,729.171945 145.999992,729.756534 147.655172,729.756534 C150.413807,729.756534 152.482752,728.166453 153.862069,724.986245 L155.241379,721.689133 L140.137931,685 L146.896552,685 L158.482759,714.744154 L169.448276,685 L176,685 L159.310345,727.371389 Z M196.034991,685 C199.720706,685 202.998144,685.783793 205.867403,687.351402 C208.736663,688.919011 210.976051,691.097494 212.585635,693.886916 C214.19522,696.676338 215,699.869141 215,703.465421 C215,707.0617 214.19522,710.26603 212.585635,713.078505 C210.976051,715.89098 208.736663,718.080989 205.867403,719.648598 C202.998144,721.216207 199.720706,722 196.034991,722 C192.302621,722 189.001856,721.216207 186.132597,719.648598 C183.263337,718.080989 181.023949,715.902506 179.414365,713.113084 C177.80478,710.323662 177,707.107806 177,703.465421 C177,699.869141 177.80478,696.676338 179.414365,693.886916 C181.023949,691.097494 183.263337,688.919011 186.132597,687.351402 C189.001856,685.783793 192.302621,685 196.034991,685 Z M196.535211,690 C194.093885,690 191.922545,690.554661 190.021127,691.664 C188.119709,692.773339 186.64085,694.310212 185.584507,696.274667 C184.528164,698.239121 184,700.469321 184,702.965333 C184,705.507568 184.528164,707.772435 185.584507,709.76 C186.64085,711.747565 188.119709,713.284439 190.021127,714.370667 C191.922545,715.456894 194.093885,716 196.535211,716 C198.929589,716 201.077455,715.456894 202.978873,714.370667 C204.880291,713.284439 206.35915,711.747565 207.415493,709.76 C208.471836,707.772435 209,705.507568 209,702.965333 C209,700.469321 208.471836,698.239121 207.415493,696.274667 C206.35915,694.310212 204.880291,692.773339 202.978873,691.664 C201.077455,690.554661 198.929589,690 196.535211,690 Z M257,685 L257,721.791353 L250.423868,721.791353 L250.423868,714.00188 C247.998616,719.241254 243.428017,721.907268 236.711934,722 C232.421103,722 229.063112,720.736541 226.63786,718.209586 C224.212608,715.682631 223,712.193631 223,707.742481 L223,685 L229.576132,685 L229.576132,706.003759 C229.576132,709.110291 230.427289,711.532886 232.12963,713.271617 C233.83197,715.010347 236.175568,715.879699 239.160494,715.879699 C242.611814,715.833333 245.351842,714.61624 247.380658,712.228383 C249.409475,709.840527 250.423868,706.791998 250.423868,703.082707 L250.423868,685 L257,685 Z M287,670 L299,670 L299,722 L287,722 L287,670 Z M326.465313,683 C330.535271,683 334.119556,683.811023 337.218274,685.433092 C340.316992,687.055162 342.721932,689.335428 344.433164,692.27396 C346.144397,695.212492 347,698.609384 347,702.464738 C347,706.367108 346.144397,709.787508 344.433164,712.72604 C342.721932,715.664572 340.316992,717.944838 337.218274,719.566908 C334.119556,721.188977 330.535271,722 326.465313,722 C322.395355,722 318.81107,721.188977 315.712352,719.566908 C312.613634,717.944838 310.220257,715.664572 308.532149,712.72604 C306.844041,709.787508 306,706.367108 306,702.464738 C306,698.609384 306.844041,695.212492 308.532149,692.27396 C310.220257,689.335428 312.613634,687.055162 315.712352,685.433092 C318.81107,683.811023 322.395355,683 326.465313,683 Z M325.965665,694 C323.58511,694 321.662382,694.871119 320.197425,696.613383 C318.732468,698.355647 318,700.639391 318,703.464684 C318,706.337065 318.732468,708.644353 320.197425,710.386617 C321.662382,712.128881 323.58511,713 325.965665,713 C328.392001,713 330.337618,712.128881 331.802575,710.386617 C333.267532,708.644353 334,706.337065 334,703.464684 C334,700.639391 333.256088,698.355647 331.76824,696.613383 C330.280393,694.871119 328.346221,694 325.965665,694 Z M347,684 L359.760204,684 L367.639456,710.410351 L375.588435,684 L388,684 L373.845238,722 L361.085034,722 L347,684 Z M407.780576,683 C413.953268,683 418.699624,684.833616 422.019784,688.500904 C425.339945,692.168192 427,697.198883 427,703.593128 C427,704.580475 426.976619,705.332728 426.929856,705.84991 L400.555755,705.84991 C401.163672,708.012669 402.21582,709.669976 403.71223,710.821881 C405.208641,711.973785 407.032363,712.549729 409.183453,712.549729 C410.820152,712.549729 412.398374,712.220618 413.918165,711.562387 C415.437957,710.904156 416.82913,709.940332 418.091727,708.670886 L424.615108,715.229656 C422.651069,717.439432 420.277892,719.120247 417.495504,720.272152 C414.713116,721.424056 411.568363,722 408.061151,722 C403.992785,722 400.438864,721.200731 397.399281,719.60217 C394.359697,718.003609 392.033281,715.74685 390.419964,712.831826 C388.806647,709.916803 388,706.531665 388,702.676311 C388,698.773941 388.818337,695.330033 390.455036,692.344485 C392.091735,689.358936 394.40646,687.055162 397.399281,685.433092 C400.392101,683.811023 403.852498,683 407.780576,683 Z M415,700 C415,697.891015 414.338949,696.197122 413.016827,694.918269 C411.694705,693.639417 409.951934,693 407.788462,693 C405.769221,693 404.074526,693.628199 402.704327,694.884615 C401.334128,696.141032 400.432694,697.846143 400,700 L415,700 Z M449,684 L461,684 L461,722 L449,722 L449,684 Z M455.5,667 C457.39008,667 458.945916,667.60438 460.167553,668.813158 C461.389191,670.021936 462,671.584201 462,673.5 C462,675.370185 461.389191,676.921046 460.167553,678.152632 C458.945916,679.384217 457.39008,680 455.5,680 C453.60992,680 452.054084,679.384217 450.832447,678.152632 C449.610809,676.921046 449,675.370185 449,673.5 C449,671.584201 449.610809,670.021936 450.832447,668.813158 C452.054084,667.60438 453.60992,667 455.5,667 Z M495,719.485884 C493.606958,720.277369 492.004984,720.894252 490.19403,721.336553 C488.383076,721.778853 486.548931,722 484.691542,722 C480.976764,722 477.970161,720.929184 475.671642,718.787519 C473.373123,716.645854 472.223881,713.689469 472.223881,709.918276 L472.223881,693.716196 L467,693.716196 L467,685.475483 L472.223881,685.475483 L472.223881,675 L484.552239,675 L484.552239,685.475483 L494.303483,685.475483 L494.303483,693.716196 L484.552239,693.716196 L484.552239,707.962853 C484.552239,710.616655 485.643439,711.943536 487.825871,711.943536 C489.172478,711.943536 490.774452,711.524521 492.631841,710.686478 L495,719.485884 Z" id="ExploreyourTribalTaste,justthewayyouloveit"></path>
        </g>
    </g>
</svg>