<?xml version="1.0" encoding="UTF-8"?>
<svg width="314px" height="400px" viewBox="0 0 314 400" version="1.1" xmlns="http://www.w3.org/2000/svg" xmlns:xlink="http://www.w3.org/1999/xlink">
    <!-- Generator: Sketch 54.1 (76490) - https://sketchapp.com -->
    <title>Combined Shape</title>
    <desc>Created with Sketch.</desc>
    <g id="Onboarding" stroke="none" stroke-width="1" fill="none" fill-rule="evenodd" opacity="0.100000001">
        <g id="iPhone-8-Plus-Copy-2" transform="translate(-100.000000, -6.000000)" fill="#FFFFFF">
            <path d="M340.972671,33.1975806 C340.834099,31.0633723 341.073031,28.6253009 341.689467,25.8833634 C343.95102,15.8238557 352.395006,9.32565915 367.021676,6.38857723 L367.241956,6.38857723 C371.089533,5.77178885 375.127962,5.88927131 379.35736,6.74102462 C387.287482,8.41516098 390.268575,14.3112659 388.300731,24.4295141 C387.050111,30.8599358 383.260921,35.9290693 376.933094,39.6369668 C393.209045,43.7175341 408.542153,49.1922133 421.55643,55.550298 C487.601034,88.0395461 495.117009,128.200896 495.117009,128.200896 C495.117009,128.200896 496.569776,131.949079 494.226671,134.516892 C492.562265,136.325663 490.34915,136.32501 487.667676,135.952675 C454.101245,129.771906 400.972794,121.501488 334.920361,115.569605 C288.559285,111.372019 213.491745,109.201389 188.146105,108.628522 C185.157617,108.54687 183.025503,107.770844 182.250782,105.476731 C181.47606,103.182618 183.561141,99.1123958 184.433845,97.820323 C184.433845,97.820323 214.657724,44.6337296 291.10225,33.6230068 C306.726274,31.3194823 323.826961,31.3547945 340.972671,33.1975806 Z M355.76049,35.2263006 C358.735244,35.7216511 361.698824,36.2673467 364.64363,36.860567 C371.150001,34.9187047 374.850341,31.1275046 375.744766,25.4868592 C376.655261,19.7448629 375.274854,16.4039815 371.603501,15.464116 C369.665027,14.9648115 367.800007,14.8913859 366.008387,15.2438362 L365.920276,15.2438362 C359.135615,16.9179725 355.222011,20.6112984 354.179348,26.323923 C353.400951,30.5886619 353.927993,33.5561066 355.76049,35.2263006 Z M285.84607,40.4417934 C248.98339,42.8689547 215.413175,68.4451293 209.155096,82.0114555 C206.702229,87.3903008 213.816514,90.969944 216.719984,85.2599767 C232.759529,62.050414 261.967841,45.2843137 285.84607,40.4417934 Z M447.615972,117.565545 C463.04116,119.208315 471.07764,121.585556 473.531353,115.220304 C477.64651,104.666531 451.903625,81.3280245 423.253545,73.5022917 C450.846827,85.7366183 463.815638,102.782346 461.086722,110.279979 C459.447061,115.161176 453.67401,117.853195 447.615972,117.565545 Z M146.093465,269.423385 C138.205969,270.046082 130.076437,269.319613 121.704622,267.243956 C103.092901,262.815889 96.4509002,248.753527 101.778418,225.056447 C107.105938,201.359368 126.997347,186.051631 161.453247,179.132776 L161.972158,179.132776 C171.035858,177.679816 180.549142,177.956566 190.512293,179.963033 C209.193203,183.906782 216.215734,197.796175 211.580102,221.631632 C206.944469,245.467087 187.502777,261.362919 153.254444,269.319602 C150.694468,269.45798 148.307498,269.492573 146.093465,269.423385 Z M151.697709,251.26148 C152.735537,251.26148 153.842537,251.226887 155.018743,251.157698 C170.862921,246.660442 179.857298,237.648769 182.002143,224.122407 C184.146989,210.596044 180.895176,202.725965 172.246606,200.511931 C167.680162,199.335725 163.286756,199.162758 159.066254,199.99302 L158.858689,199.99302 C142.876133,203.936767 133.656897,212.637098 131.200703,226.09427 C128.744509,239.551444 131.806057,247.525306 140.385438,250.016093 C144.329185,251.192298 148.099905,251.607423 151.697709,251.26148 Z M249.644692,241.252268 C246.00889,252.462658 243.312377,259.91594 241.555074,263.612338 C238.404046,267.126946 234.889489,269.399289 231.011301,270.429433 C229.253997,270.974803 228.011783,271.247484 227.284623,271.247484 C222.92166,271.247484 220.134254,268.217694 218.92232,262.158024 C218.316353,258.219239 218.013375,255.946897 218.013375,255.34093 C218.073971,249.281262 221.861208,236.556145 229.375198,217.165203 C236.889188,197.774259 244.039491,181.261907 250.826322,167.62765 C254.401526,161.02261 260.006637,152.660392 267.641821,142.540743 C271.580606,138.844345 274.155927,136.996173 275.367861,136.996173 C277.428148,137.42035 278.458277,138.389883 278.458277,139.9048 L278.458277,144.631319 C278.397681,152.87247 274.307465,167.11248 266.187508,187.351776 C266.005717,187.654761 265.278568,189.715016 264.006038,193.532609 L260.915622,203.621909 C268.308418,196.592692 274.943657,191.199666 280.821536,187.442671 C285.426885,184.655223 291.819741,181.595136 300.000296,178.262318 C303.636098,177.413964 305.787248,177.201879 306.453811,177.626055 C307.423358,178.6562 307.605146,179.625732 306.999179,180.534682 L305.090392,183.443309 C301.818171,188.472835 293.940719,195.683733 281.457799,205.076221 C281.215412,205.197415 280.003497,206.166947 277.822016,207.984848 L264.278721,221.891721 C263.975738,222.134107 263.703057,222.406789 263.46067,222.709773 C266.672294,226.345575 270.368638,230.617577 274.54981,235.52591 C290.789724,255.15924 303.999607,268.793291 314.179851,276.428475 L315.815954,279.791576 C316.300727,280.882316 315.937153,282.003338 314.725219,283.154675 C313.876865,283.639448 311.483332,283.306173 307.544546,282.154835 C297.667285,279.48858 289.365661,275.792237 282.639428,271.065695 C275.913195,266.339152 266.91472,258.61319 255.643736,247.887575 C253.462254,245.524302 251.462593,243.312556 249.644692,241.252268 Z M343.694982,194.388775 L344.317676,194.388775 C346.739275,194.388775 348.2614,196.948713 348.884098,202.068666 C349.299228,204.351888 349.506792,206.081575 349.506792,207.257781 C349.506792,217.774441 343.556664,233.998913 331.656233,255.931685 L326.155771,269.112037 C326.363338,270.495808 326.467119,271.602808 326.467119,272.433072 L326.467119,272.744418 C326.467119,275.235207 324.426087,276.480581 320.343963,276.480581 C314.324558,276.480581 310.519245,270.01155 308.927908,257.07329 C308.927908,247.456081 313.944002,234.863953 323.976343,219.296529 C334.493003,205.943138 340.131785,197.951981 340.89286,195.322816 C341.653934,194.700118 342.587965,194.388775 343.694982,194.388775 Z M385.677651,247.587093 C381.821747,259.476134 378.961993,267.38062 377.098305,271.300791 C373.756521,275.028165 370.029202,277.43807 365.916236,278.530576 C364.052549,279.108963 362.735134,279.398151 361.963954,279.398151 C357.336867,279.398151 354.380718,276.184945 353.095417,269.758436 C352.452765,265.581205 352.131445,263.171302 352.131445,262.528651 C352.195709,256.102142 356.212217,242.606678 364.181087,222.041851 C372.149958,201.477024 379.733125,183.965051 386.930814,169.505408 C390.722454,162.500514 396.666885,153.632064 404.764285,142.899796 C408.941515,138.979625 411.672741,137.019569 412.958042,137.019569 C415.143055,137.469425 416.235545,138.497652 416.235545,140.104278 L416.235545,145.116929 C416.17128,153.856981 411.833452,168.95905 403.221932,190.423587 C403.029136,190.744912 402.257967,192.929893 400.908399,196.978593 L397.630896,207.678675 C405.471237,200.223926 412.508159,194.504419 418.741872,190.519984 C423.626017,187.56379 430.405882,184.318453 439.081669,180.783872 C442.937573,179.884162 445.21895,179.659237 445.925866,180.109093 C446.954107,181.201599 447.1469,182.229825 446.504248,183.193802 L444.479909,186.278511 C441.009594,191.612512 432.655258,199.259942 419.416651,209.22103 C419.159591,209.349561 417.874308,210.377786 415.560766,212.305739 L401.197591,227.054502 C400.876266,227.311562 400.587077,227.600751 400.330017,227.922076 C403.736067,231.777981 407.656178,236.308602 412.090469,241.514074 C429.31351,262.33596 443.323089,276.795388 454.119623,284.892788 L455.854772,288.459482 C456.368892,289.616254 455.983307,290.805141 454.698006,292.026177 C453.798294,292.540298 451.259861,292.186845 447.082632,290.965808 C436.607422,288.138144 427.803239,284.218033 420.669814,279.205357 C413.53639,274.192681 403.993168,265.999005 392.039863,254.624085 C389.72632,252.117746 387.605604,249.772106 385.677651,247.587093 Z M450.797586,225.108338 C456.125106,201.376665 476.016515,186.051631 510.472415,179.132776 C528.945757,178.856021 539.064432,181.346772 540.82874,186.605102 C542.593048,191.863432 542.593048,197.433027 540.82874,203.314054 C539.064432,209.195081 534.446166,215.7333 526.973802,222.92891 C519.501439,230.12452 505.006653,235.521146 483.489015,239.118951 C483.765768,249.082102 492.189349,251.642041 508.760006,246.798841 C525.330665,241.955642 536.262291,238.980579 541.555216,237.873563 C546.848141,236.766545 549.044844,238.375155 548.145393,242.699439 C547.245942,247.023725 538.753175,253.319789 522.666837,261.58782 C506.580497,269.855852 489.249026,271.758509 470.671899,267.295848 C452.094773,262.833186 445.470068,248.770823 450.797586,225.108338 Z M501.547136,199.162761 C492.068304,203.660017 485.599272,211.339831 482.139845,222.202434 L483.489015,225.627251 C510.818493,215.664098 523.047385,207.62105 520.176061,201.497863 C517.304735,195.374676 511.095157,194.596317 501.547136,199.162761 Z M370.367036,138.138763 L373.480505,138.138763 C374.725898,138.830649 375.348586,139.764681 375.348586,140.940886 L375.348586,141.252232 C375.14102,144.088963 367.945519,154.847622 353.761866,173.528531 C350.510004,177.610655 347.846284,179.651687 345.770629,179.651687 C345.770629,180.066819 344.248502,180.274381 341.204206,180.274381 C336.70695,179.513307 334.458356,177.576056 334.458356,174.462571 L334.458356,169.48102 C334.458356,165.606462 338.159889,159.448773 345.563063,151.007769 C352.205164,146.441325 358.950947,142.774386 365.800613,140.006845 C367.253573,139.868468 368.775698,139.245779 370.367036,138.138763 Z M515.869892,160.143194 L518.254948,162.144492 C518.76424,163.475031 518.640862,164.590798 517.884812,165.491822 L517.684683,165.730328 C515.702262,167.769969 503.274657,171.3864 480.40149,176.579731 C475.286481,177.616562 471.934004,177.467878 470.343959,176.133672 C470.077118,176.45168 468.777683,175.632279 466.445616,173.675443 C463.489728,170.201646 463.012446,167.272258 465.013754,164.887191 L468.215834,161.071101 C470.706353,158.103016 477.499976,155.765252 488.596909,154.057738 C496.620309,154.829099 504.14494,156.356166 511.171032,158.638988 C512.37301,159.466929 513.939282,159.968326 515.869892,160.143194 Z M153.94141,317.177982 C155.829747,315.388878 157.303231,315.306082 160.862744,315.15707 C243.990415,310.537066 382.208042,317.713491 463.655548,327.340373 C467.198158,327.80431 469.747176,328.732077 470.722581,331.150764 C471.929481,334.066442 470.30516,337.396208 468.963042,339.384119 C462.500846,349.207717 411.95156,417.277003 294.680006,404.10411 C217.801223,395.521008 161.290852,348.537954 153.423859,324.831549 C153.423859,324.831549 151.224653,320.110134 153.94141,317.177982 Z M338.571756,387.945077 C367.881337,387.22496 399.56556,376.80642 423.767402,352.936754 C430.725768,346.06197 420.949654,337.55248 414.136489,346.295582 C398.641846,363.926985 373.567191,382.032571 338.571756,387.945077 Z M501.139421,315.283327 C503.963059,315.283327 506.551355,315.974046 508.904387,317.355503 C511.257418,318.73696 513.117045,320.611767 514.483321,322.97998 C515.849597,325.348192 516.532725,327.928898 516.532725,330.722174 C516.532725,333.485089 515.849597,336.058204 514.483321,338.441598 C513.117045,340.824991 511.249828,342.722569 508.881615,344.134388 C506.513403,345.546207 503.902336,346.252106 501.048336,346.252106 C498.224698,346.252106 495.636402,345.553797 493.283371,344.157159 C490.930339,342.760521 489.078303,340.878124 487.727207,338.509911 C486.376112,336.141698 485.700574,333.576173 485.700574,330.813259 C485.700574,328.050344 486.383702,325.477229 487.749979,323.093835 C489.116255,320.710442 490.975881,318.812864 493.328913,317.401045 C495.681945,315.989226 498.285421,315.283327 501.139421,315.283327 Z M501.048336,342.836432 C503.295102,342.836432 505.352076,342.289929 507.219321,341.196908 C509.086565,340.103887 510.559086,338.631366 511.636926,336.779303 C512.714766,334.927239 513.253678,332.908216 513.253678,330.722174 C513.253678,328.536132 512.722357,326.524699 511.659697,324.687817 C510.597038,322.850934 509.139698,321.393594 507.287634,320.315754 C505.435571,319.237913 503.386187,318.699001 501.139421,318.699001 C498.892655,318.699001 496.843271,319.245504 494.991208,320.338525 C493.139144,321.431546 491.674214,322.904066 490.596374,324.75613 C489.518533,326.608194 488.979621,328.627216 488.979621,330.813259 C488.979621,332.999301 489.510943,335.010734 490.573602,336.847616 C491.636262,338.684499 493.086011,340.141839 494.922894,341.219679 C496.759777,342.297519 498.801571,342.836432 501.048336,342.836432 Z M507.651973,327.989635 C507.651973,329.143379 507.409083,330.12253 506.923296,330.927115 C506.437509,331.7317 505.7392,332.346515 504.828349,332.771579 L508.061854,337.690149 L504.281841,337.690149 L501.91364,333.409171 L498.543509,333.409171 L498.543509,337.690149 L495.264462,337.690149 L495.264462,322.888895 L501.549302,322.888895 C503.492451,322.888895 504.995332,323.336723 506.057992,324.232393 C507.120651,325.128064 507.651973,326.380465 507.651973,327.989635 Z M498.543509,330.767716 L501.549302,330.767716 C502.490514,330.767716 503.219184,330.540007 503.735333,330.084582 C504.251482,329.629156 504.509553,328.976389 504.509553,328.126262 C504.509553,327.276134 504.251482,326.630958 503.735333,326.190713 C503.219184,325.750469 502.490514,325.53035 501.549302,325.53035 L498.543509,325.53035 L498.543509,330.767716 Z" id="Combined-Shape"></path>
        </g>
    </g>
</svg>