<?xml version="1.0" encoding="UTF-8"?>
<svg width="152px" height="135px" viewBox="0 0 152 135" version="1.1" xmlns="http://www.w3.org/2000/svg" xmlns:xlink="http://www.w3.org/1999/xlink">
    <!-- Generator: Sketch 54.1 (76490) - https://sketchapp.com -->
    <title>Combined Shape</title>
    <desc>Created with Sketch.</desc>
    <g id="Onboarding" stroke="none" stroke-width="1" fill="none" fill-rule="evenodd">
        <g id="iPhone-8-Plus-Copy-4" transform="translate(-131.000000, -170.000000)" fill="#FFFFFF" fill-rule="nonzero">
            <path d="M146.60593,258.960687 C143.935449,259.170978 141.183022,258.925642 138.348565,258.224672 C132.047168,256.72927 129.798376,251.980271 131.602122,243.977532 C133.405867,235.974794 140.14053,230.80522 151.806313,228.468654 L151.982002,228.468654 C155.050712,227.977975 158.271638,228.071436 161.644876,228.74904 C167.969698,230.080883 170.347326,234.771468 168.777834,242.820938 C167.208341,250.870408 160.62594,256.238587 149.030433,258.925638 C148.163698,258.97237 147.355538,258.984052 146.60593,258.960687 Z M148.503367,252.827232 C148.854746,252.827232 149.229544,252.815549 149.627774,252.792183 C154.99216,251.273415 158.037399,248.230084 158.763582,243.662098 C159.489766,239.094111 158.388795,236.436307 155.460636,235.688606 C153.914569,235.29139 152.427087,235.232977 150.998146,235.513365 L150.92787,235.513365 C145.516633,236.845207 142.395263,239.783395 141.563666,244.328015 C140.732069,248.872636 141.768622,251.565488 144.673355,252.406652 C146.008595,252.803868 147.285253,252.94406 148.503367,252.827232 Z M181.665416,249.447022 C180.434437,253.232881 179.521475,255.749928 178.926503,256.998239 C177.859654,258.185157 176.669726,258.952549 175.356682,259.300439 C174.761709,259.484616 174.341131,259.576703 174.094936,259.576703 C172.617761,259.576703 171.674025,258.553513 171.263699,256.507102 C171.058536,255.176936 170.955956,254.409543 170.955956,254.204902 C170.976472,252.158492 172.258723,247.861094 174.802745,241.312581 C177.346767,234.764067 179.767655,229.187682 182.065482,224.583259 C183.275944,222.352671 185.173674,219.528667 187.75873,216.111161 C189.09229,214.862851 189.96422,214.238705 190.374546,214.238705 C191.0721,214.381954 191.420873,214.709375 191.420873,215.220977 L191.420873,216.81717 C191.400356,219.600288 190.015526,224.409281 187.266341,231.244291 C187.204791,231.346612 186.9586,232.042381 186.527757,233.33162 L185.481431,236.738876 C187.98442,234.36504 190.230923,232.543762 192.221004,231.274987 C193.780244,230.333639 195.944682,229.300217 198.714384,228.174691 C199.945363,227.888194 200.673681,227.816571 200.89936,227.959819 C201.227621,228.307709 201.289169,228.63513 201.084006,228.942091 L200.437746,229.924363 C199.329865,231.622884 196.662785,234.058076 192.436425,237.230012 C192.35436,237.27094 191.94404,237.598361 191.205453,238.212284 L186.62008,242.908773 C186.517499,242.990629 186.425177,243.082716 186.343111,243.185037 C187.430476,244.412883 188.681952,245.855581 190.097577,247.513174 C195.595948,254.143544 200.068437,258.747898 203.515177,261.326375 L204.069114,262.462127 C204.233245,262.830481 204.110149,263.209062 203.699823,263.597879 C203.412594,263.761592 202.602212,263.649042 201.268652,263.260223 C197.924494,262.359803 195.113801,261.111511 192.836491,259.515311 C190.559181,257.919111 187.512554,255.309977 183.696521,251.68783 C182.957934,250.88973 182.280905,250.142801 181.665416,249.447022 Z M213.508156,233.620756 L213.718983,233.620756 C214.538867,233.620756 215.054215,234.485272 215.265043,236.214331 C215.405594,236.985398 215.475869,237.56953 215.475869,237.966746 C215.475869,241.518327 213.461326,246.997492 209.43218,254.404406 L207.569881,258.855542 C207.640157,259.322855 207.675294,259.6967 207.675294,259.977088 L207.675294,260.082233 C207.675294,260.923396 206.984259,261.343972 205.602169,261.343972 C203.56417,261.343972 202.2758,259.159316 201.737019,254.789937 C201.737019,251.542111 203.435325,247.289624 206.831989,242.032351 C210.392629,237.522779 212.30176,234.824085 212.559438,233.936191 C212.817116,233.725899 213.133352,233.620756 213.508156,233.620756 Z M227.722288,251.586355 C226.416789,255.601402 225.448559,258.270825 224.817567,259.594705 C223.686135,260.853477 222.424171,261.667325 221.031638,262.036275 C220.400647,262.231602 219.954608,262.329264 219.693508,262.329264 C218.126909,262.329264 217.126041,261.244132 216.690875,259.073837 C216.473292,257.663145 216.364502,256.849296 216.364502,256.632267 C216.38626,254.461971 217.746135,249.904419 220.444166,242.959473 C223.142198,236.014527 225.709642,230.100561 228.146574,225.217396 C229.430314,222.851774 231.442929,219.856811 234.184477,216.232417 C235.598768,214.908537 236.523483,214.246606 236.958649,214.246606 C237.698432,214.398527 238.068318,214.74577 238.068318,215.288343 L238.068318,216.981165 C238.04656,219.932767 236.577895,225.032886 233.66228,232.281672 C233.597005,232.390187 233.33591,233.128077 232.878984,234.495363 L231.769316,238.108887 C234.423831,235.591344 236.806331,233.65981 238.916889,232.314227 C240.570521,231.315891 242.865989,230.219908 245.803363,229.026245 C247.108862,228.722404 247.881271,228.646445 248.120612,228.798366 C248.468745,229.167316 248.534019,229.514558 248.316436,229.840102 L247.631052,230.881839 C246.456103,232.683184 243.627563,235.265797 239.14535,238.629755 C239.058316,238.673161 238.623156,239.020403 237.839857,239.671492 L232.976896,244.652295 C232.868105,244.739107 232.770194,244.836769 232.683161,244.945283 C233.836352,246.247461 235.163589,247.777497 236.664914,249.535436 C242.496143,256.567193 247.239386,261.450285 250.894784,264.184857 L251.482256,265.389365 C251.656322,265.780019 251.525774,266.181517 251.090608,266.593874 C250.785991,266.767497 249.926551,266.648133 248.51226,266.235777 C244.965653,265.280846 241.984809,263.956986 239.569635,262.264156 C237.154461,260.571325 233.923399,257.80424 229.876351,253.962816 C229.093052,253.116401 228.375038,252.324255 227.722288,251.586355 Z M249.770037,243.995056 C251.573783,235.980635 258.308446,230.80522 269.974229,228.468654 C276.228775,228.375191 279.654669,229.216342 280.252013,230.992132 C280.849357,232.767922 280.849357,234.64883 280.252013,236.634911 C279.654669,238.620992 278.091056,240.829013 275.561127,243.259042 C273.031198,245.689071 268.123678,247.511565 260.838421,248.726579 C260.932122,252.091234 263.784105,252.955751 269.394456,251.320154 C275.004808,249.684558 278.705944,248.67985 280.497977,248.305999 C282.29001,247.932148 283.033751,248.475392 282.729223,249.935746 C282.424694,251.3961 279.549286,253.522343 274.102912,256.314539 C268.656537,259.106735 262.788596,259.749281 256.498912,258.242196 C250.209228,256.735111 247.966292,251.986112 249.770037,243.995056 Z M266.952384,235.232978 C263.743123,236.751746 261.552894,239.345295 260.38163,243.013704 L260.838421,244.170298 C270.091401,240.805643 274.231754,238.089426 273.259606,236.021565 C272.287457,233.953704 270.185072,233.690844 266.952384,235.232978 Z M222.538552,214.624569 L223.592683,214.624569 C224.014338,214.858226 224.225162,215.173658 224.225162,215.570874 L224.225162,215.676019 C224.154886,216.634011 221.718695,220.267316 216.916516,226.576045 C215.815528,227.954618 214.913669,228.643895 214.210911,228.643895 C214.210911,228.784089 213.695563,228.854185 212.664851,228.854185 C211.142209,228.597163 210.380899,227.942934 210.380899,226.891479 L210.380899,225.20916 C210.380899,223.900683 211.634132,221.821171 214.140635,218.97056 C216.389461,217.428427 218.67339,216.190065 220.992491,215.255439 C221.484422,215.208708 221.99977,214.99842 222.538552,214.624569 Z M271.80166,222.055684 L272.609172,222.731542 C272.781604,223.180878 272.739832,223.557683 272.483855,223.861968 L272.416097,223.942514 C271.744906,224.631321 267.537274,225.852626 259.793073,227.606465 C258.061277,227.956613 256.926224,227.906401 256.38788,227.455826 C256.297536,227.563221 255.857584,227.286501 255.068013,226.625658 C254.067234,225.452523 253.90564,224.463239 254.583226,223.657778 L255.667358,222.369047 C256.510577,221.366695 258.810704,220.577209 262.567808,220.000565 C265.284302,220.261061 267.831927,220.776767 270.210761,221.547698 C270.617716,221.827302 271.148011,221.996629 271.80166,222.055684 Z M212.58646,179.184892 C212.539543,178.464149 212.620439,177.640788 212.829147,176.714809 C213.594844,173.317613 216.453736,171.123108 221.405908,170.131226 L221.480489,170.131226 C222.783169,169.922931 224.150465,169.962606 225.582418,170.250251 C228.267331,170.815624 229.276644,172.806797 228.610388,176.223829 C228.186964,178.395447 226.904053,180.107343 224.761631,181.359537 C230.272203,182.737585 235.463555,184.586438 239.869818,186.733626 C262.230633,197.705567 264.775327,211.268453 264.775327,211.268453 C264.775327,211.268453 265.267193,212.534252 264.473884,213.401428 C263.910364,214.012268 263.161067,214.012047 262.253196,213.886306 C250.888562,211.798999 232.900787,209.005997 210.53732,207.002741 C194.840785,205.585175 169.425061,204.852131 160.843752,204.658669 C159.831936,204.631094 159.110063,204.369022 158.847764,203.594277 C158.585465,202.819533 159.291414,201.444978 159.586887,201.008633 C159.586887,201.008633 169.819829,183.046993 195.701761,179.328563 C200.991608,178.55064 206.781412,178.562565 212.58646,179.184892 Z M217.593193,179.870011 C218.600359,180.037296 219.603743,180.221583 220.60077,180.421919 C222.803641,179.766133 224.056471,178.485807 224.359297,176.580905 C224.667565,174.641776 224.200199,173.513528 222.957183,173.196126 C222.300871,173.027506 221.669429,173.002709 221.062838,173.121735 L221.033006,173.121735 C218.735914,173.687107 217.410879,174.93438 217.057863,176.86359 C216.79432,178.303835 216.972761,179.30597 217.593193,179.870011 Z M193.922168,181.631335 C181.441518,182.451011 170.075603,191.088339 167.956796,195.669822 C167.126325,197.486311 169.535019,198.695192 170.518051,196.766879 C175.948582,188.92878 185.837682,183.266702 193.922168,181.631335 Z M149.26302,275.087887 C149.902357,274.483689 150.401236,274.455728 151.606386,274.405405 C179.75104,272.845184 226.547578,275.268734 254.123376,278.519827 C255.322802,278.676504 256.185827,278.989819 256.516071,279.806634 C256.924693,280.791287 256.374744,281.915782 255.920341,282.58712 C253.732427,285.904646 236.617883,308.892318 196.913086,304.443702 C170.884127,301.545103 151.751331,285.678461 149.087792,277.672573 C149.087792,277.672573 148.343204,276.078104 149.26302,275.087887 Z M211.773579,298.986636 C221.696965,298.743446 232.424337,295.225001 240.61839,287.163979 C242.974293,284.842296 239.664381,281.968557 237.357638,284.921189 C232.111594,290.875489 223.622033,296.989924 211.773579,298.986636 Z M248.692834,207.67679 C253.915361,208.231569 256.636284,209.034387 257.467041,206.884779 C258.860316,203.320665 250.14451,195.43902 240.444412,192.796193 C249.786709,196.927846 254.177578,202.684357 253.253645,205.216382 C252.698502,206.864811 250.743912,207.773932 248.692834,207.67679 Z M266.419289,273.921399 C267.393394,273.921399 268.286311,274.158633 269.098065,274.633109 C269.909819,275.107585 270.551358,275.751507 271.022699,276.564894 C271.49404,277.378281 271.729707,278.264651 271.729707,279.224031 C271.729707,280.172983 271.49404,281.056746 271.022699,281.875347 C270.551358,282.693948 269.907201,283.345691 269.090209,283.830595 C268.273218,284.315498 267.372446,284.557947 266.387866,284.557947 C265.413761,284.557947 264.520845,284.318105 263.70909,283.838416 C262.897336,283.358726 262.258416,282.712197 261.792312,281.89881 C261.326208,281.085423 261.093159,280.204267 261.093159,279.255315 C261.093159,278.306363 261.328827,277.4226 261.800168,276.603999 C262.271509,275.785398 262.913047,275.133655 263.724802,274.648751 C264.536556,274.163847 265.434709,273.921399 266.419289,273.921399 Z M266.387866,283.384798 C267.162961,283.384798 267.872581,283.197096 268.516747,282.821687 C269.160913,282.446277 269.668907,281.940525 270.040743,281.304414 C270.412579,280.668304 270.598494,279.97485 270.598494,279.224031 C270.598494,278.473212 270.415197,277.782365 270.048598,277.151468 C269.682,276.520572 269.179243,276.020033 268.540314,275.649838 C267.901385,275.279643 267.194383,275.094548 266.419289,275.094548 C265.644194,275.094548 264.937193,275.28225 264.298264,275.657659 C263.659335,276.033069 263.15396,276.538821 262.782124,277.174931 C262.410288,277.811042 262.224373,278.504496 262.224373,279.255315 C262.224373,280.006134 262.407669,280.696981 262.774268,281.327877 C263.140867,281.958774 263.641005,282.459312 264.274697,282.829508 C264.908389,283.199703 265.612772,283.384798 266.387866,283.384798 Z M268.666004,278.285512 C268.666004,278.681778 268.582212,279.018077 268.414624,279.29442 C268.247036,279.570763 268.006131,279.781928 267.691904,279.92792 L268.807406,281.617254 L267.503368,281.617254 L266.686381,280.146908 L265.523745,280.146908 L265.523745,281.617254 L264.392532,281.617254 L264.392532,276.53361 L266.560691,276.53361 C267.231043,276.53361 267.74951,276.687421 268.116109,276.995049 C268.482708,277.302676 268.666004,277.732826 268.666004,278.285512 Z M265.523745,279.239673 L266.560691,279.239673 C266.885392,279.239673 267.136771,279.161464 267.314833,279.005043 C267.492895,278.848623 267.581925,278.624423 267.581925,278.332438 C267.581925,278.040453 267.492895,277.81886 267.314833,277.667654 C267.136771,277.516447 266.885392,277.440845 266.560691,277.440845 L265.523745,277.440845 L265.523745,279.239673 Z" id="Combined-Shape"></path>
        </g>
    </g>
</svg>