
<svg width="293px" height="400px" viewBox="0 0 293 400" version="1.1" xmlns="http://www.w3.org/2000/svg" xmlns:xlink="http://www.w3.org/1999/xlink">
    <!-- Generator: Sketch 54.1 (76490) - https://sketchapp.com -->
    <title>Combined Shape</title>
    <desc>Created with Sketch.</desc>
    <g id="Onboarding" stroke="none" stroke-width="1" fill="none" fill-rule="evenodd" opacity="0.04">
        <g id="iPhone-8-Plus" transform="translate(-121.000000, -266.000000)" fill="#000000">
            <path d="M361.972671,293.197581 C361.834099,291.063372 362.073031,288.625301 362.689467,285.883363 C364.95102,275.823856 373.395006,269.325659 388.021676,266.388577 L388.241956,266.388577 C392.089533,265.771789 396.127962,265.889271 400.35736,266.741025 C408.287482,268.415161 411.268575,274.311266 409.300731,284.429514 C408.050111,290.859936 404.260921,295.929069 397.933094,299.636967 C414.209045,303.717534 429.542153,309.192213 442.55643,315.550298 C508.601034,348.039546 516.117009,388.200896 516.117009,388.200896 C516.117009,388.200896 517.569776,391.949079 515.226671,394.516892 C513.562265,396.325663 511.34915,396.32501 508.667676,395.952675 C475.101245,389.771906 421.972794,381.501488 355.920361,375.569605 C309.559285,371.372019 234.491745,369.201389 209.146105,368.628522 C206.157617,368.54687 204.025503,367.770844 203.250782,365.476731 C202.47606,363.182618 204.561141,359.112396 205.433845,357.820323 C205.433845,357.820323 235.657724,304.63373 312.10225,293.623007 C327.726274,291.319482 344.826961,291.354794 361.972671,293.197581 Z M376.76049,295.226301 C379.735244,295.721651 382.698824,296.267347 385.64363,296.860567 C392.150001,294.918705 395.850341,291.127505 396.744766,285.486859 C397.655261,279.744863 396.274854,276.403981 392.603501,275.464116 C390.665027,274.964812 388.800007,274.891386 387.008387,275.243836 L386.920276,275.243836 C380.135615,276.917973 376.222011,280.611298 375.179348,286.323923 C374.400951,290.588662 374.927993,293.556107 376.76049,295.226301 Z M306.84607,300.441793 C269.98339,302.868955 236.413175,328.445129 230.155096,342.011455 C227.702229,347.390301 234.816514,350.969944 237.719984,345.259977 C253.759529,322.050414 282.967841,305.284314 306.84607,300.441793 Z M468.615972,377.565545 C484.04116,379.208315 492.07764,381.585556 494.531353,375.220304 C498.64651,364.666531 472.903625,341.328024 444.253545,333.502292 C471.846827,345.736618 484.815638,362.782346 482.086722,370.279979 C480.447061,375.161176 474.67401,377.853195 468.615972,377.565545 Z M167.093465,529.423385 C159.205969,530.046082 151.076437,529.319613 142.704622,527.243956 C124.092901,522.815889 117.4509,508.753527 122.778418,485.056447 C128.105938,461.359368 147.997347,446.051631 182.453247,439.132776 L182.972158,439.132776 C192.035858,437.679816 201.549142,437.956566 211.512293,439.963033 C230.193203,443.906782 237.215734,457.796175 232.580102,481.631632 C227.944469,505.467087 208.502777,521.362919 174.254444,529.319602 C171.694468,529.45798 169.307498,529.492573 167.093465,529.423385 Z M172.697709,511.26148 C173.735537,511.26148 174.842537,511.226887 176.018743,511.157698 C191.862921,506.660442 200.857298,497.648769 203.002143,484.122407 C205.146989,470.596044 201.895176,462.725965 193.246606,460.511931 C188.680162,459.335725 184.286756,459.162758 180.066254,459.99302 L179.858689,459.99302 C163.876133,463.936767 154.656897,472.637098 152.200703,486.09427 C149.744509,499.551444 152.806057,507.525306 161.385438,510.016093 C165.329185,511.192298 169.099905,511.607423 172.697709,511.26148 Z M270.644692,501.252268 C267.00889,512.462658 264.312377,519.91594 262.555074,523.612338 C259.404046,527.126946 255.889489,529.399289 252.011301,530.429433 C250.253997,530.974803 249.011783,531.247484 248.284623,531.247484 C243.92166,531.247484 241.134254,528.217694 239.92232,522.158024 C239.316353,518.219239 239.013375,515.946897 239.013375,515.34093 C239.073971,509.281262 242.861208,496.556145 250.375198,477.165203 C257.889188,457.774259 265.039491,441.261907 271.826322,427.62765 C275.401526,421.02261 281.006637,412.660392 288.641821,402.540743 C292.580606,398.844345 295.155927,396.996173 296.367861,396.996173 C298.428148,397.42035 299.458277,398.389883 299.458277,399.9048 L299.458277,404.631319 C299.397681,412.87247 295.307465,427.11248 287.187508,447.351776 C287.005717,447.654761 286.278568,449.715016 285.006038,453.532609 L281.915622,463.621909 C289.308418,456.592692 295.943657,451.199666 301.821536,447.442671 C306.426885,444.655223 312.819741,441.595136 321.000296,438.262318 C324.636098,437.413964 326.787248,437.201879 327.453811,437.626055 C328.423358,438.6562 328.605146,439.625732 327.999179,440.534682 L326.090392,443.443309 C322.818171,448.472835 314.940719,455.683733 302.457799,465.076221 C302.215412,465.197415 301.003497,466.166947 298.822016,467.984848 L285.278721,481.891721 C284.975738,482.134107 284.703057,482.406789 284.46067,482.709773 C287.672294,486.345575 291.368638,490.617577 295.54981,495.52591 C311.789724,515.15924 324.999607,528.793291 335.179851,536.428475 L336.815954,539.791576 C337.300727,540.882316 336.937153,542.003338 335.725219,543.154675 C334.876865,543.639448 332.483332,543.306173 328.544546,542.154835 C318.667285,539.48858 310.365661,535.792237 303.639428,531.065695 C296.913195,526.339152 287.91472,518.61319 276.643736,507.887575 C274.462254,505.524302 272.462593,503.312556 270.644692,501.252268 Z M364.694982,454.388775 L365.317676,454.388775 C367.739275,454.388775 369.2614,456.948713 369.884098,462.068666 C370.299228,464.351888 370.506792,466.081575 370.506792,467.257781 C370.506792,477.774441 364.556664,493.998913 352.656233,515.931685 L347.155771,529.112037 C347.363338,530.495808 347.467119,531.602808 347.467119,532.433072 L347.467119,532.744418 C347.467119,535.235207 345.426087,536.480581 341.343963,536.480581 C335.324558,536.480581 331.519245,530.01155 329.927908,517.07329 C329.927908,507.456081 334.944002,494.863953 344.976343,479.296529 C355.493003,465.943138 361.131785,457.951981 361.89286,455.322816 C362.653934,454.700118 363.587965,454.388775 364.694982,454.388775 Z M406.677651,507.587093 C402.821747,519.476134 399.961993,527.38062 398.098305,531.300791 C394.756521,535.028165 391.029202,537.43807 386.916236,538.530576 C385.052549,539.108963 383.735134,539.398151 382.963954,539.398151 C378.336867,539.398151 375.380718,536.184945 374.095417,529.758436 C373.452765,525.581205 373.131445,523.171302 373.131445,522.528651 C373.195709,516.102142 377.212217,502.606678 385.181087,482.041851 C393.149958,461.477024 400.733125,443.965051 407.930814,429.505408 C411.722454,422.500514 417.666885,413.632064 425.764285,402.899796 C429.941515,398.979625 432.672741,397.019569 433.958042,397.019569 C436.143055,397.469425 437.235545,398.497652 437.235545,400.104278 L437.235545,405.116929 C437.17128,413.856981 432.833452,428.95905 424.221932,450.423587 C424.029136,450.744912 423.257967,452.929893 421.908399,456.978593 L418.630896,467.678675 C426.471237,460.223926 433.508159,454.504419 439.741872,450.519984 C444.626017,447.56379 451.405882,444.318453 460.081669,440.783872 C463.937573,439.884162 466.21895,439.659237 466.925866,440.109093 C467.954107,441.201599 468.1469,442.229825 467.504248,443.193802 L465.479909,446.278511 C462.009594,451.612512 453.655258,459.259942 440.416651,469.22103 C440.159591,469.349561 438.874308,470.377786 436.560766,472.305739 L422.197591,487.054502 C421.876266,487.311562 421.587077,487.600751 421.330017,487.922076 C424.736067,491.777981 428.656178,496.308602 433.090469,501.514074 C450.31351,522.33596 464.323089,536.795388 475.119623,544.892788 L476.854772,548.459482 C477.368892,549.616254 476.983307,550.805141 475.698006,552.026177 C474.798294,552.540298 472.259861,552.186845 468.082632,550.965808 C457.607422,548.138144 448.803239,544.218033 441.669814,539.205357 C434.53639,534.192681 424.993168,525.999005 413.039863,514.624085 C410.72632,512.117746 408.605604,509.772106 406.677651,507.587093 Z M471.797586,485.108338 C477.125106,461.376665 497.016515,446.051631 531.472415,439.132776 C549.945757,438.856021 560.064432,441.346772 561.82874,446.605102 C563.593048,451.863432 563.593048,457.433027 561.82874,463.314054 C560.064432,469.195081 555.446166,475.7333 547.973802,482.92891 C540.501439,490.12452 526.006653,495.521146 504.489015,499.118951 C504.765768,509.082102 513.189349,511.642041 529.760006,506.798841 C546.330665,501.955642 557.262291,498.980579 562.555216,497.873563 C567.848141,496.766545 570.044844,498.375155 569.145393,502.699439 C568.245942,507.023725 559.753175,513.319789 543.666837,521.58782 C527.580497,529.855852 510.249026,531.758509 491.671899,527.295848 C473.094773,522.833186 466.470068,508.770823 471.797586,485.108338 Z M522.547136,459.162761 C513.068304,463.660017 506.599272,471.339831 503.139845,482.202434 L504.489015,485.627251 C531.818493,475.664098 544.047385,467.62105 541.176061,461.497863 C538.304735,455.374676 532.095157,454.596317 522.547136,459.162761 Z M391.367036,398.138763 L394.480505,398.138763 C395.725898,398.830649 396.348586,399.764681 396.348586,400.940886 L396.348586,401.252232 C396.14102,404.088963 388.945519,414.847622 374.761866,433.528531 C371.510004,437.610655 368.846284,439.651687 366.770629,439.651687 C366.770629,440.066819 365.248502,440.274381 362.204206,440.274381 C357.70695,439.513307 355.458356,437.576056 355.458356,434.462571 L355.458356,429.48102 C355.458356,425.606462 359.159889,419.448773 366.563063,411.007769 C373.205164,406.441325 379.950947,402.774386 386.800613,400.006845 C388.253573,399.868468 389.775698,399.245779 391.367036,398.138763 Z M536.869892,420.143194 L539.254948,422.144492 C539.76424,423.475031 539.640862,424.590798 538.884812,425.491822 L538.684683,425.730328 C536.702262,427.769969 524.274657,431.3864 501.40149,436.579731 C496.286481,437.616562 492.934004,437.467878 491.343959,436.133672 C491.077118,436.45168 489.777683,435.632279 487.445616,433.675443 C484.489728,430.201646 484.012446,427.272258 486.013754,424.887191 L489.215834,421.071101 C491.706353,418.103016 498.499976,415.765252 509.596909,414.057738 C517.620309,414.829099 525.14494,416.356166 532.171032,418.638988 C533.37301,419.466929 534.939282,419.968326 536.869892,420.143194 Z M174.94141,577.177982 C176.829747,575.388878 178.303231,575.306082 181.862744,575.15707 C264.990415,570.537066 403.208042,577.713491 484.655548,587.340373 C488.198158,587.80431 490.747176,588.732077 491.722581,591.150764 C492.929481,594.066442 491.30516,597.396208 489.963042,599.384119 C483.500846,609.207717 432.95156,677.277003 315.680006,664.10411 C238.801223,655.521008 182.290852,608.537954 174.423859,584.831549 C174.423859,584.831549 172.224653,580.110134 174.94141,577.177982 Z M359.571756,647.945077 C388.881337,647.22496 420.56556,636.80642 444.767402,612.936754 C451.725768,606.06197 441.949654,597.55248 435.136489,606.295582 C419.641846,623.926985 394.567191,642.032571 359.571756,647.945077 Z M522.139421,575.283327 C524.963059,575.283327 527.551355,575.974046 529.904387,577.355503 C532.257418,578.73696 534.117045,580.611767 535.483321,582.97998 C536.849597,585.348192 537.532725,587.928898 537.532725,590.722174 C537.532725,593.485089 536.849597,596.058204 535.483321,598.441598 C534.117045,600.824991 532.249828,602.722569 529.881615,604.134388 C527.513403,605.546207 524.902336,606.252106 522.048336,606.252106 C519.224698,606.252106 516.636402,605.553797 514.283371,604.157159 C511.930339,602.760521 510.078303,600.878124 508.727207,598.509911 C507.376112,596.141698 506.700574,593.576173 506.700574,590.813259 C506.700574,588.050344 507.383702,585.477229 508.749979,583.093835 C510.116255,580.710442 511.975881,578.812864 514.328913,577.401045 C516.681945,575.989226 519.285421,575.283327 522.139421,575.283327 Z M522.048336,602.836432 C524.295102,602.836432 526.352076,602.289929 528.219321,601.196908 C530.086565,600.103887 531.559086,598.631366 532.636926,596.779303 C533.714766,594.927239 534.253678,592.908216 534.253678,590.722174 C534.253678,588.536132 533.722357,586.524699 532.659697,584.687817 C531.597038,582.850934 530.139698,581.393594 528.287634,580.315754 C526.435571,579.237913 524.386187,578.699001 522.139421,578.699001 C519.892655,578.699001 517.843271,579.245504 515.991208,580.338525 C514.139144,581.431546 512.674214,582.904066 511.596374,584.75613 C510.518533,586.608194 509.979621,588.627216 509.979621,590.813259 C509.979621,592.999301 510.510943,595.010734 511.573602,596.847616 C512.636262,598.684499 514.086011,600.141839 515.922894,601.219679 C517.759777,602.297519 519.801571,602.836432 522.048336,602.836432 Z M528.651973,587.989635 C528.651973,589.143379 528.409083,590.12253 527.923296,590.927115 C527.437509,591.7317 526.7392,592.346515 525.828349,592.771579 L529.061854,597.690149 L525.281841,597.690149 L522.91364,593.409171 L519.543509,593.409171 L519.543509,597.690149 L516.264462,597.690149 L516.264462,582.888895 L522.549302,582.888895 C524.492451,582.888895 525.995332,583.336723 527.057992,584.232393 C528.120651,585.128064 528.651973,586.380465 528.651973,587.989635 Z M519.543509,590.767716 L522.549302,590.767716 C523.490514,590.767716 524.219184,590.540007 524.735333,590.084582 C525.251482,589.629156 525.509553,588.976389 525.509553,588.126262 C525.509553,587.276134 525.251482,586.630958 524.735333,586.190713 C524.219184,585.750469 523.490514,585.53035 522.549302,585.53035 L519.543509,585.53035 L519.543509,590.767716 Z" id="Combined-Shape"></path>
        </g>
    </g>
</svg>
