
<svg width="302px" height="400px" viewBox="0 0 302 400" version="1.1" xmlns="http://www.w3.org/2000/svg" xmlns:xlink="http://www.w3.org/1999/xlink">
    <!-- Generator: Sketch 54.1 (76490) - https://sketchapp.com -->
    <title>Combined Shape</title>
    <desc>Created with Sketch.</desc>
    <g id="Landing-Page" stroke="none" stroke-width="1" fill="none" fill-rule="evenodd" opacity="0.06">
        <g id="iPhone-8-Plus-Copy-5" transform="translate(-112.000000, -191.000000)" fill="#000000">
            <path d="M352.972671,218.197581 C352.834099,216.063372 353.073031,213.625301 353.689467,210.883363 C355.95102,200.823856 364.395006,194.325659 379.021676,191.388577 L379.241956,191.388577 C383.089533,190.771789 387.127962,190.889271 391.35736,191.741025 C399.287482,193.415161 402.268575,199.311266 400.300731,209.429514 C399.050111,215.859936 395.260921,220.929069 388.933094,224.636967 C405.209045,228.717534 420.542153,234.192213 433.55643,240.550298 C499.601034,273.039546 507.117009,313.200896 507.117009,313.200896 C507.117009,313.200896 508.569776,316.949079 506.226671,319.516892 C504.562265,321.325663 502.34915,321.32501 499.667676,320.952675 C466.101245,314.771906 412.972794,306.501488 346.920361,300.569605 C300.559285,296.372019 225.491745,294.201389 200.146105,293.628522 C197.157617,293.54687 195.025503,292.770844 194.250782,290.476731 C193.47606,288.182618 195.561141,284.112396 196.433845,282.820323 C196.433845,282.820323 226.657724,229.63373 303.10225,218.623007 C318.726274,216.319482 335.826961,216.354794 352.972671,218.197581 Z M367.76049,220.226301 C370.735244,220.721651 373.698824,221.267347 376.64363,221.860567 C383.150001,219.918705 386.850341,216.127505 387.744766,210.486859 C388.655261,204.744863 387.274854,201.403981 383.603501,200.464116 C381.665027,199.964812 379.800007,199.891386 378.008387,200.243836 L377.920276,200.243836 C371.135615,201.917973 367.222011,205.611298 366.179348,211.323923 C365.400951,215.588662 365.927993,218.556107 367.76049,220.226301 Z M297.84607,225.441793 C260.98339,227.868955 227.413175,253.445129 221.155096,267.011455 C218.702229,272.390301 225.816514,275.969944 228.719984,270.259977 C244.759529,247.050414 273.967841,230.284314 297.84607,225.441793 Z M459.615972,302.565545 C475.04116,304.208315 483.07764,306.585556 485.531353,300.220304 C489.64651,289.666531 463.903625,266.328024 435.253545,258.502292 C462.846827,270.736618 475.815638,287.782346 473.086722,295.279979 C471.447061,300.161176 465.67401,302.853195 459.615972,302.565545 Z M158.093465,454.423385 C150.205969,455.046082 142.076437,454.319613 133.704622,452.243956 C115.092901,447.815889 108.4509,433.753527 113.778418,410.056447 C119.105938,386.359368 138.997347,371.051631 173.453247,364.132776 L173.972158,364.132776 C183.035858,362.679816 192.549142,362.956566 202.512293,364.963033 C221.193203,368.906782 228.215734,382.796175 223.580102,406.631632 C218.944469,430.467087 199.502777,446.362919 165.254444,454.319602 C162.694468,454.45798 160.307498,454.492573 158.093465,454.423385 Z M163.697709,436.26148 C164.735537,436.26148 165.842537,436.226887 167.018743,436.157698 C182.862921,431.660442 191.857298,422.648769 194.002143,409.122407 C196.146989,395.596044 192.895176,387.725965 184.246606,385.511931 C179.680162,384.335725 175.286756,384.162758 171.066254,384.99302 L170.858689,384.99302 C154.876133,388.936767 145.656897,397.637098 143.200703,411.09427 C140.744509,424.551444 143.806057,432.525306 152.385438,435.016093 C156.329185,436.192298 160.099905,436.607423 163.697709,436.26148 Z M261.644692,426.252268 C258.00889,437.462658 255.312377,444.91594 253.555074,448.612338 C250.404046,452.126946 246.889489,454.399289 243.011301,455.429433 C241.253997,455.974803 240.011783,456.247484 239.284623,456.247484 C234.92166,456.247484 232.134254,453.217694 230.92232,447.158024 C230.316353,443.219239 230.013375,440.946897 230.013375,440.34093 C230.073971,434.281262 233.861208,421.556145 241.375198,402.165203 C248.889188,382.774259 256.039491,366.261907 262.826322,352.62765 C266.401526,346.02261 272.006637,337.660392 279.641821,327.540743 C283.580606,323.844345 286.155927,321.996173 287.367861,321.996173 C289.428148,322.42035 290.458277,323.389883 290.458277,324.9048 L290.458277,329.631319 C290.397681,337.87247 286.307465,352.11248 278.187508,372.351776 C278.005717,372.654761 277.278568,374.715016 276.006038,378.532609 L272.915622,388.621909 C280.308418,381.592692 286.943657,376.199666 292.821536,372.442671 C297.426885,369.655223 303.819741,366.595136 312.000296,363.262318 C315.636098,362.413964 317.787248,362.201879 318.453811,362.626055 C319.423358,363.6562 319.605146,364.625732 318.999179,365.534682 L317.090392,368.443309 C313.818171,373.472835 305.940719,380.683733 293.457799,390.076221 C293.215412,390.197415 292.003497,391.166947 289.822016,392.984848 L276.278721,406.891721 C275.975738,407.134107 275.703057,407.406789 275.46067,407.709773 C278.672294,411.345575 282.368638,415.617577 286.54981,420.52591 C302.789724,440.15924 315.999607,453.793291 326.179851,461.428475 L327.815954,464.791576 C328.300727,465.882316 327.937153,467.003338 326.725219,468.154675 C325.876865,468.639448 323.483332,468.306173 319.544546,467.154835 C309.667285,464.48858 301.365661,460.792237 294.639428,456.065695 C287.913195,451.339152 278.91472,443.61319 267.643736,432.887575 C265.462254,430.524302 263.462593,428.312556 261.644692,426.252268 Z M355.694982,379.388775 L356.317676,379.388775 C358.739275,379.388775 360.2614,381.948713 360.884098,387.068666 C361.299228,389.351888 361.506792,391.081575 361.506792,392.257781 C361.506792,402.774441 355.556664,418.998913 343.656233,440.931685 L338.155771,454.112037 C338.363338,455.495808 338.467119,456.602808 338.467119,457.433072 L338.467119,457.744418 C338.467119,460.235207 336.426087,461.480581 332.343963,461.480581 C326.324558,461.480581 322.519245,455.01155 320.927908,442.07329 C320.927908,432.456081 325.944002,419.863953 335.976343,404.296529 C346.493003,390.943138 352.131785,382.951981 352.89286,380.322816 C353.653934,379.700118 354.587965,379.388775 355.694982,379.388775 Z M397.677651,432.587093 C393.821747,444.476134 390.961993,452.38062 389.098305,456.300791 C385.756521,460.028165 382.029202,462.43807 377.916236,463.530576 C376.052549,464.108963 374.735134,464.398151 373.963954,464.398151 C369.336867,464.398151 366.380718,461.184945 365.095417,454.758436 C364.452765,450.581205 364.131445,448.171302 364.131445,447.528651 C364.195709,441.102142 368.212217,427.606678 376.181087,407.041851 C384.149958,386.477024 391.733125,368.965051 398.930814,354.505408 C402.722454,347.500514 408.666885,338.632064 416.764285,327.899796 C420.941515,323.979625 423.672741,322.019569 424.958042,322.019569 C427.143055,322.469425 428.235545,323.497652 428.235545,325.104278 L428.235545,330.116929 C428.17128,338.856981 423.833452,353.95905 415.221932,375.423587 C415.029136,375.744912 414.257967,377.929893 412.908399,381.978593 L409.630896,392.678675 C417.471237,385.223926 424.508159,379.504419 430.741872,375.519984 C435.626017,372.56379 442.405882,369.318453 451.081669,365.783872 C454.937573,364.884162 457.21895,364.659237 457.925866,365.109093 C458.954107,366.201599 459.1469,367.229825 458.504248,368.193802 L456.479909,371.278511 C453.009594,376.612512 444.655258,384.259942 431.416651,394.22103 C431.159591,394.349561 429.874308,395.377786 427.560766,397.305739 L413.197591,412.054502 C412.876266,412.311562 412.587077,412.600751 412.330017,412.922076 C415.736067,416.777981 419.656178,421.308602 424.090469,426.514074 C441.31351,447.33596 455.323089,461.795388 466.119623,469.892788 L467.854772,473.459482 C468.368892,474.616254 467.983307,475.805141 466.698006,477.026177 C465.798294,477.540298 463.259861,477.186845 459.082632,475.965808 C448.607422,473.138144 439.803239,469.218033 432.669814,464.205357 C425.53639,459.192681 415.993168,450.999005 404.039863,439.624085 C401.72632,437.117746 399.605604,434.772106 397.677651,432.587093 Z M462.797586,410.108338 C468.125106,386.376665 488.016515,371.051631 522.472415,364.132776 C540.945757,363.856021 551.064432,366.346772 552.82874,371.605102 C554.593048,376.863432 554.593048,382.433027 552.82874,388.314054 C551.064432,394.195081 546.446166,400.7333 538.973802,407.92891 C531.501439,415.12452 517.006653,420.521146 495.489015,424.118951 C495.765768,434.082102 504.189349,436.642041 520.760006,431.798841 C537.330665,426.955642 548.262291,423.980579 553.555216,422.873563 C558.848141,421.766545 561.044844,423.375155 560.145393,427.699439 C559.245942,432.023725 550.753175,438.319789 534.666837,446.58782 C518.580497,454.855852 501.249026,456.758509 482.671899,452.295848 C464.094773,447.833186 457.470068,433.770823 462.797586,410.108338 Z M513.547136,384.162761 C504.068304,388.660017 497.599272,396.339831 494.139845,407.202434 L495.489015,410.627251 C522.818493,400.664098 535.047385,392.62105 532.176061,386.497863 C529.304735,380.374676 523.095157,379.596317 513.547136,384.162761 Z M382.367036,323.138763 L385.480505,323.138763 C386.725898,323.830649 387.348586,324.764681 387.348586,325.940886 L387.348586,326.252232 C387.14102,329.088963 379.945519,339.847622 365.761866,358.528531 C362.510004,362.610655 359.846284,364.651687 357.770629,364.651687 C357.770629,365.066819 356.248502,365.274381 353.204206,365.274381 C348.70695,364.513307 346.458356,362.576056 346.458356,359.462571 L346.458356,354.48102 C346.458356,350.606462 350.159889,344.448773 357.563063,336.007769 C364.205164,331.441325 370.950947,327.774386 377.800613,325.006845 C379.253573,324.868468 380.775698,324.245779 382.367036,323.138763 Z M527.869892,345.143194 L530.254948,347.144492 C530.76424,348.475031 530.640862,349.590798 529.884812,350.491822 L529.684683,350.730328 C527.702262,352.769969 515.274657,356.3864 492.40149,361.579731 C487.286481,362.616562 483.934004,362.467878 482.343959,361.133672 C482.077118,361.45168 480.777683,360.632279 478.445616,358.675443 C475.489728,355.201646 475.012446,352.272258 477.013754,349.887191 L480.215834,346.071101 C482.706353,343.103016 489.499976,340.765252 500.596909,339.057738 C508.620309,339.829099 516.14494,341.356166 523.171032,343.638988 C524.37301,344.466929 525.939282,344.968326 527.869892,345.143194 Z M165.94141,502.177982 C167.829747,500.388878 169.303231,500.306082 172.862744,500.15707 C255.990415,495.537066 394.208042,502.713491 475.655548,512.340373 C479.198158,512.80431 481.747176,513.732077 482.722581,516.150764 C483.929481,519.066442 482.30516,522.396208 480.963042,524.384119 C474.500846,534.207717 423.95156,602.277003 306.680006,589.10411 C229.801223,580.521008 173.290852,533.537954 165.423859,509.831549 C165.423859,509.831549 163.224653,505.110134 165.94141,502.177982 Z M350.571756,572.945077 C379.881337,572.22496 411.56556,561.80642 435.767402,537.936754 C442.725768,531.06197 432.949654,522.55248 426.136489,531.295582 C410.641846,548.926985 385.567191,567.032571 350.571756,572.945077 Z M513.139421,500.283327 C515.963059,500.283327 518.551355,500.974046 520.904387,502.355503 C523.257418,503.73696 525.117045,505.611767 526.483321,507.97998 C527.849597,510.348192 528.532725,512.928898 528.532725,515.722174 C528.532725,518.485089 527.849597,521.058204 526.483321,523.441598 C525.117045,525.824991 523.249828,527.722569 520.881615,529.134388 C518.513403,530.546207 515.902336,531.252106 513.048336,531.252106 C510.224698,531.252106 507.636402,530.553797 505.283371,529.157159 C502.930339,527.760521 501.078303,525.878124 499.727207,523.509911 C498.376112,521.141698 497.700574,518.576173 497.700574,515.813259 C497.700574,513.050344 498.383702,510.477229 499.749979,508.093835 C501.116255,505.710442 502.975881,503.812864 505.328913,502.401045 C507.681945,500.989226 510.285421,500.283327 513.139421,500.283327 Z M513.048336,527.836432 C515.295102,527.836432 517.352076,527.289929 519.219321,526.196908 C521.086565,525.103887 522.559086,523.631366 523.636926,521.779303 C524.714766,519.927239 525.253678,517.908216 525.253678,515.722174 C525.253678,513.536132 524.722357,511.524699 523.659697,509.687817 C522.597038,507.850934 521.139698,506.393594 519.287634,505.315754 C517.435571,504.237913 515.386187,503.699001 513.139421,503.699001 C510.892655,503.699001 508.843271,504.245504 506.991208,505.338525 C505.139144,506.431546 503.674214,507.904066 502.596374,509.75613 C501.518533,511.608194 500.979621,513.627216 500.979621,515.813259 C500.979621,517.999301 501.510943,520.010734 502.573602,521.847616 C503.636262,523.684499 505.086011,525.141839 506.922894,526.219679 C508.759777,527.297519 510.801571,527.836432 513.048336,527.836432 Z M519.651973,512.989635 C519.651973,514.143379 519.409083,515.12253 518.923296,515.927115 C518.437509,516.7317 517.7392,517.346515 516.828349,517.771579 L520.061854,522.690149 L516.281841,522.690149 L513.91364,518.409171 L510.543509,518.409171 L510.543509,522.690149 L507.264462,522.690149 L507.264462,507.888895 L513.549302,507.888895 C515.492451,507.888895 516.995332,508.336723 518.057992,509.232393 C519.120651,510.128064 519.651973,511.380465 519.651973,512.989635 Z M510.543509,515.767716 L513.549302,515.767716 C514.490514,515.767716 515.219184,515.540007 515.735333,515.084582 C516.251482,514.629156 516.509553,513.976389 516.509553,513.126262 C516.509553,512.276134 516.251482,511.630958 515.735333,511.190713 C515.219184,510.750469 514.490514,510.53035 513.549302,510.53035 L510.543509,510.53035 L510.543509,515.767716 Z" id="Combined-Shape"></path>
        </g>
    </g>
</svg>
