
<svg width="307px" height="69px" viewBox="0 0 307 69" version="1.1" xmlns="http://www.w3.org/2000/svg" xmlns:xlink="http://www.w3.org/1999/xlink">
    <!-- Generator: Sketch 54.1 (76490) - https://sketchapp.com -->
    <title>Group 2</title>
    <desc>Created with Sketch.</desc>
    <g id="Onboarding" stroke="none" stroke-width="1" fill="none" fill-rule="evenodd">
        <g id="iPhone-8-Plus-Copy-2" transform="translate(-54.000000, -137.000000)">
            <g id="Group-2" transform="translate(54.000000, 137.000000)">
                <circle id="Oval" fill="#5CBCA9" cx="34.5" cy="34.5" r="34.5"></circle>
                <path d="M33.934345,42.3411208 C34.9255559,42.3411208 35.7316707,43.1472356 35.7316707,44.1379207 L35.7316707,45.0244892 C35.7316707,46.0157002 34.9255559,46.8218149 33.934345,46.8218149 L33.0477764,46.8218149 C32.0570913,46.8218149 31.2509765,46.0157002 31.2509765,45.0244892 L31.2509765,44.1379207 C31.2509765,43.1472356 32.0570913,42.3411208 33.0477764,42.3411208 L33.934345,42.3411208 Z M34.1162861,45.0244892 L34.1162861,44.1379206 C34.1162861,44.0380108 34.0347807,43.9565054 33.934345,43.9565054 L33.0477765,43.9565054 C32.9478666,43.9565054 32.8663612,44.0380108 32.8663612,44.1379206 L32.8663612,45.0244892 C32.8663612,45.1249248 32.9478666,45.2064303 33.0477765,45.2064303 L33.934345,45.2064303 C34.0347807,45.2064303 34.1162861,45.1249248 34.1162861,45.0244892 Z M31.8704177,19.1720253 C31.4245042,19.1720253 31.0627254,18.8102464 31.0627254,18.3643329 C31.0627254,17.9184195 31.4245042,17.5566406 31.8704177,17.5566406 L35.1122296,17.5566406 C35.558143,17.5566406 35.9199219,17.9184195 35.9199219,18.3643329 C35.9199219,18.8102464 35.558143,19.1720253 35.1122296,19.1720253 L31.8704177,19.1720253 Z M44.0141977,32.7371545 C44.216318,33.1173378 44.411208,33.480957 44.5952525,33.8240686 C46.9100061,38.1385968 47.868089,39.924354 47.868089,46.298077 C47.868089,48.2164776 47.0315083,50.7434082 45.6463765,51.9688815 L46.9447116,55.9414814 C47.0251653,56.1875752 46.9825722,56.4568059 46.830604,56.6666166 C46.6786359,56.8759014 46.4356972,57 46.1769832,57 L33.6377705,57 C33.2823017,57 32.9683744,56.7675781 32.8653095,56.4273589 L31.9048274,53.271785 L30.9880559,53.271785 C30.0185359,53.271785 28.3420551,52.8447361 27.5219727,50.1388222 L26.5452224,50.1388222 C24.5727915,50.1388222 22.9679237,48.5313253 22.9679237,46.5552135 L22.9679237,40.9463925 C22.1948055,40.4440168 21.7148438,39.5933041 21.7148438,38.6413012 C21.7148438,37.9040716 22.0014274,37.2115386 22.5214844,36.6914815 C22.5216816,36.6912843 22.5218788,36.6911528 22.522076,36.6909556 C22.0157237,36.1855235 21.7148438,35.4963756 21.7148438,34.7437651 C21.7148438,34.0070614 22.0009015,33.3150542 22.5209586,32.7944713 C22.5213201,32.7941097 22.5217802,32.7938468 22.5221417,32.7934853 C22.0157565,32.2880531 21.7148438,31.5988723 21.7148438,30.8462291 C21.7148438,30.1095253 22.0009015,29.4175181 22.5209586,28.8969352 C22.5213201,28.8965737 22.5218459,28.8962779 22.5222074,28.8959164 C22.0157894,28.3903528 21.7148438,27.7013691 21.7148438,26.948693 C21.7148438,26.2119892 22.0009015,25.519982 22.5209586,24.9993991 C22.6504142,24.865934 22.8019222,24.7444317 22.9679237,24.6370944 L22.9679237,18.5772987 C22.9679237,16.6048678 24.5727915,15 26.5452224,15 L40.4374249,15 C42.4098558,15 44.0141977,16.6048678 44.0141977,18.5772987 L44.0141977,32.7371545 Z M28.1127554,38.6413011 C28.1127554,38.011869 27.6011118,37.5002254 26.9716797,37.5002253 L24.4713041,37.5002253 C24.3277494,37.5002253 24.186824,37.5249399 24.0643029,37.5722656 C23.9118089,37.6316857 23.7740385,37.720027 23.6720253,37.8251953 C23.4485427,38.0486779 23.3302284,38.3352614 23.3302284,38.6413011 C23.3302284,39.1189622 23.6185867,39.5381564 24.064533,39.7098764 C24.1881057,39.7571036 24.3288997,39.7823768 24.4713041,39.7823768 L26.9716797,39.7823768 C27.2729868,39.7823768 27.5616737,39.6619591 27.7835788,39.443735 C27.9939153,39.2328726 28.1127554,38.9462891 28.1127554,38.6413011 Z M28.1127554,34.743765 C28.1127554,34.1143329 27.6011118,33.6026893 26.9716797,33.6026893 L24.4713041,33.6026893 C24.3277494,33.6026893 24.1868239,33.6274038 24.0643029,33.6747296 C23.9118089,33.7341496 23.7740384,33.822491 23.6720252,33.9276593 C23.4485427,34.1511419 23.3302284,34.4382512 23.3302284,34.743765 C23.3302284,35.2217548 23.6189153,35.6413762 24.0653546,35.8128005 C24.1878756,35.8596004 24.3288011,35.8848408 24.4713041,35.8848408 L26.9716797,35.8848408 C27.2729868,35.8848408 27.5616737,35.7644231 27.7835788,35.5461989 C27.9939153,35.3353365 28.1127554,35.048753 28.1127554,34.743765 Z M28.1127554,30.8462289 C28.1127554,30.2167969 27.6011118,29.7051532 26.9716797,29.7051532 L24.4713041,29.7051532 C24.3277494,29.7051532 24.1868239,29.7298678 24.0643029,29.7771935 C23.9118089,29.8366136 23.7740384,29.9249549 23.6720252,30.0301232 C23.4485427,30.2536058 23.3302284,30.5407151 23.3302284,30.8462289 C23.3302284,31.3242187 23.6189153,31.7438401 24.0653546,31.9152644 C24.1878756,31.9620643 24.3288011,31.9873047 24.4713041,31.9873047 L26.9716797,31.9873047 C27.2729868,31.9873047 27.5616737,31.866887 27.7835788,31.6486629 C27.9939153,31.4378005 28.1127554,31.151217 28.1127554,30.8462289 Z M27.7841046,27.7511268 C27.9939153,27.5407903 28.1127554,27.2536809 28.1127554,26.9486929 C28.1127554,26.3192608 27.6011118,25.8076172 26.9716797,25.8076172 L24.4713041,25.8076172 C24.3277494,25.8076172 24.1868239,25.8323318 24.0643029,25.8796575 C23.9118089,25.9390776 23.7740384,26.0274189 23.6720252,26.1325872 C23.4485427,26.3560698 23.3302284,26.6431792 23.3302284,26.948693 C23.3302284,27.4266827 23.6189153,27.8463042 24.0658804,28.0187801 C24.1868239,28.0650542 24.3277494,28.0897687 24.4713041,28.0897687 L26.9716797,28.0897687 C27.2729868,28.0897687 27.5616737,27.969351 27.7841046,27.7511268 Z M24.5833083,46.5552134 C24.5833083,47.6405499 25.4635667,48.5234375 26.5452224,48.5234375 L28.1432542,48.5234375 L40.4374249,48.5234375 C40.4689754,48.5234375 40.5005259,48.5255408 40.5310247,48.5213341 C40.5425932,48.5202824 40.5872897,48.5144982 40.5983324,48.5134465 C41.6079477,48.4329928 42.3988131,47.5758714 42.3988131,46.5615234 L42.3988131,44.7641977 L38.4050481,36.414363 C38.1305589,35.8317308 38.0353816,35.1602314 38.1352915,34.5192308 L38.2373047,33.9429088 C38.2394081,33.9303872 38.2438449,33.9188515 38.2460797,33.9063956 C38.4603272,32.6905189 39.3340784,31.7266518 40.5362831,31.3967849 C40.6917021,31.3539617 40.8477784,31.3237587 41.0036246,31.3043683 C41.0462835,31.299077 41.0885151,31.300786 41.1311083,31.2972366 C41.2445586,31.2877057 41.3579102,31.2787993 41.4703417,31.2813627 C41.5187519,31.2824801 41.5659462,31.2905978 41.6140607,31.2939172 C41.7195904,31.3011475 41.8249888,31.3083449 41.9285795,31.3260263 C41.9789946,31.3346698 42.0276021,31.3498207 42.0774584,31.3608962 C42.1766452,31.3828501 42.2756019,31.4047711 42.372061,31.436223 C42.380803,31.4390822 42.3901039,31.4401339 42.3988131,31.4430589 L42.3988131,18.5772987 C42.3988131,17.495643 41.5190806,16.6153846 40.4374249,16.6153846 L26.5452224,16.6153846 C25.4635667,16.6153846 24.5833083,17.495643 24.5833084,18.5772987 L24.5833084,24.1922325 L26.9716798,24.1922325 C28.4913613,24.1922325 29.7281401,25.4290113 29.7281401,26.9486928 C29.7281401,27.6848707 29.4415566,28.3774037 28.9214995,28.8979867 C28.9209736,28.8985125 28.9209736,28.8985125 28.9209736,28.8990384 C29.1658185,29.1441462 29.3633705,29.4359224 29.5025213,29.7584932 C29.5049204,29.7640803 29.5087656,29.7688129 29.5111648,29.7744328 C29.5744958,29.923936 29.6207699,30.0818856 29.6570857,30.2434175 C29.6608324,30.2599815 29.6686214,30.2748695 29.6720394,30.291532 C29.7088154,30.4707782 29.7281401,30.6563016 29.7281401,30.8462289 C29.7281401,31.5829327 29.4415566,32.2749399 28.9209736,32.7955228 L28.9204477,32.7960487 C29.4194712,33.2950721 29.7281401,33.9839243 29.7281401,34.743765 C29.7281401,35.4804688 29.4415566,36.172476 28.9209736,36.6930589 L28.9204477,36.6935848 C29.4194712,37.1926082 29.7281401,37.8814604 29.7281401,38.6413011 C29.7281401,39.3780049 29.4415566,40.070012 28.9209736,40.590595 C28.3903997,41.1127554 27.69997,41.3977614 26.9716797,41.3977614 L24.5833083,41.3977614 L24.5833083,46.5552134 Z M34.2361779,55.3846154 L45.0632512,55.3846154 L44.2155949,52.7911659 C43.9827129,52.8810848 43.7404644,52.9553599 43.4934176,53.0204327 C43.4221661,53.0392316 43.3489427,53.0530349 43.2766066,53.0697304 C43.0689979,53.1175819 42.8578726,53.1568885 42.6424748,53.1872559 C42.5605751,53.1987587 42.4795298,53.2109187 42.3966111,53.2198581 C42.1113751,53.2507512 41.8225896,53.2717849 41.527494,53.2717849 L33.5935998,53.2717849 L34.2361779,55.3846154 Z M44.2923678,50.9696515 C45.398738,50.3386419 46.2527044,47.9413311 46.2527043,46.298077 C46.2527043,40.3303035 45.4139873,38.7664514 43.1717998,34.5875902 C42.9727689,34.2171349 42.7632211,33.8266978 42.543025,33.4124005 C42.5219585,33.3892306 42.5003333,33.3670138 42.4783137,33.3453229 C42.4530404,33.3204111 42.4279644,33.2951707 42.401508,33.2722309 C42.3715021,33.2462346 42.3400502,33.2229332 42.3085984,33.1995333 C42.2810903,33.1790255 42.2539109,33.1578275 42.225384,33.1393573 C42.1927818,33.1182579 42.158865,33.1002478 42.1250797,33.0818105 C42.095534,33.0657067 42.0663828,33.0485511 42.0359497,33.0344848 C42.0012112,33.0184138 41.9651911,33.0058265 41.9294668,32.9924833 C41.8980806,32.9807833 41.8671546,32.9677688 41.8350783,32.9582379 C41.7984666,32.9473267 41.7607703,32.9402606 41.723337,32.9321759 C41.6907349,32.9251098 41.6585599,32.9164334 41.6254319,32.9115366 C41.5861253,32.9057523 41.5459313,32.9042734 41.5059345,32.9015784 C41.4735952,32.8994093 41.4416833,32.8951369 41.4089825,32.8949725 C41.364516,32.8947753 41.3193923,32.8995408 41.2743671,32.903156 C41.245413,32.9054894 41.2167546,32.9052593 41.1876361,32.9092031 C41.1133611,32.9192598 41.0386587,32.9341806 40.9637921,32.9548527 C40.3569711,33.1215444 39.933143,33.5911207 39.8300781,34.2116136 C39.8295522,34.2147686 39.8290264,34.2173978 39.8285006,34.2205529 L39.7285907,34.7842548 C39.6807391,35.0934495 39.7280648,35.4320913 39.8642578,35.7213041 L43.9353215,44.2325721 C43.9873798,44.3414213 44.0141977,44.4607872 44.0141977,44.5812049 L44.0141977,46.5615234 C44.0141977,46.7916448 43.9918494,47.0172964 43.9492234,47.2364408 C43.6745042,48.6479962 42.5559739,49.7842736 41.1317326,50.0658617 C41.1191453,50.0683594 41.1071495,50.0723032 41.0944965,50.0746695 C41.0576548,50.0815055 41.0195312,50.0843319 40.9822951,50.0900504 C40.9074285,50.1015531 40.8329233,50.114239 40.7566106,50.1209435 C40.6498649,50.1361929 40.5441707,50.1388221 40.4374249,50.1388221 L29.2270133,50.1388221 C29.6266527,51.14686 30.2166467,51.6564003 30.9880559,51.6564003 L32.5035307,51.6564003 L41.5274941,51.6564003 C42.5628756,51.6564003 43.519381,51.41872 44.2923678,50.9696515 Z" id="Combined-Shape" fill="#FFFFFF" fill-rule="nonzero"></path>
                <circle id="Oval-Copy-3" fill="#5CBCA9" cx="193.462025" cy="34.5" r="34.5"></circle>
                <path d="M192.999658,55.0002405 C184.910121,55.0002793 177.617112,50.1272846 174.521362,42.6535345 C171.425613,35.1797844 173.13678,26.5771127 178.856946,20.8569463 C184.577113,15.1367799 193.179784,13.4256128 200.653535,16.5213625 C208.127285,19.6171122 213.000279,26.9101209 213.00024,34.9996578 C212.987592,46.0404311 204.040431,54.9875919 192.999658,55.0002405 Z M192.999658,16.5989297 C182.837269,16.5988767 174.598983,24.8370773 174.59893,34.9994658 C174.598877,45.1618543 182.837077,53.4001409 192.999466,53.4001939 C203.161854,53.4002469 211.400141,45.1620463 211.400194,34.9996578 C211.388707,24.8420531 203.157262,16.6105228 192.999658,16.5989297 Z M184.458573,28.244337 C184.367012,28.5966454 184.050094,28.8434278 183.68609,28.8458665 C183.434581,28.8445553 183.198125,28.7258221 183.046856,28.5248839 C182.895587,28.3239456 182.846875,28.0638758 182.915168,27.8218127 C183.377117,26.1259536 184.917197,24.9492736 186.674848,24.9492736 C188.432498,24.9492736 189.972578,26.1259536 190.434527,27.8218127 C190.515334,28.0992629 190.440269,28.3987272 190.238146,28.6052571 C190.036023,28.811787 189.738247,28.8932921 189.459119,28.8184868 C189.17999,28.7436815 188.962881,28.5241891 188.891126,28.244261 C188.619602,27.2438017 187.711471,26.5492987 186.67482,26.5493165 C185.63817,26.5493343 184.730063,27.2438684 184.458573,28.244337 Z M199.324146,24.949269 C201.080901,24.9516527 202.619583,26.1273947 203.083416,27.8218127 C203.164275,28.0992806 203.089233,28.3987894 202.887098,28.6053525 C202.684963,28.8119156 202.387151,28.8934304 202.107996,28.818602 C201.828841,28.7437735 201.611728,28.5242312 201.540011,28.244261 C201.268476,27.2438183 200.360354,26.5493317 199.323717,26.5493494 C198.28708,26.5493672 197.378982,27.2438849 197.107481,28.244337 C197.015919,28.5966446 196.699002,28.8434264 196.334999,28.8458665 C196.083489,28.8445569 195.847032,28.7258241 195.695762,28.5248854 C195.544493,28.3239467 195.495781,28.0638759 195.564077,27.8218127 C196.028082,26.1271717 197.56713,24.9513998 199.324146,24.949269 Z M192.999466,32.7692768 C205.740461,32.7692768 205.740461,34.3394426 205.740461,35.0101421 C205.740461,42.0469077 200.036035,47.7513333 192.99927,47.7513333 C185.962504,47.7513333 180.258079,42.0469077 180.258079,35.0101421 C180.258079,34.3394426 180.258079,32.7692768 192.999466,32.7692768 Z M204.136898,35.2828261 C201.770421,34.080059 184.228106,34.080255 181.861637,35.2828341 C181.882722,36.1328062 182.001407,36.9775405 182.215356,37.8004154 C185.78925,37.3084848 189.39172,37.052998 192.99927,37.0356211 C196.606816,37.0530132 200.209282,37.3084973 203.783176,37.8004074 C203.997029,36.9775132 204.115713,36.1327902 204.136898,35.2828261 Z M192.999466,46.1511147 C197.474709,46.1457783 201.513609,43.4665847 203.258769,39.3456324 C199.856569,38.9024531 196.43016,38.6706869 192.99927,38.6516682 C189.568386,38.670666 186.141983,38.9024269 182.739791,39.3456164 C184.484991,43.4667057 188.52408,46.1459343 192.999466,46.1511147 Z" id="Combined-Shape" stroke="#FFFFFF" stroke-width="0.5" fill="#FFFFFF" fill-rule="nonzero" transform="translate(192.999269, 34.999269) rotate(-20.000000) translate(-192.999269, -34.999269) "></path>
                <circle id="Oval-Copy-5" fill="#5CBCA9" cx="272.06962" cy="34.5" r="34.5"></circle>
                <path d="M263.291559,33.6475665 L259.693917,33.6475665 L258.726027,37.348854 L262.321823,37.348854 L263.291559,33.6475665 Z M269.542258,30.5217746 C270.404656,30.5217746 271.106051,31.2231634 271.106051,32.0855614 C271.106051,32.9479593 270.404656,33.6493543 269.542258,33.6493543 L266.524629,33.6475665 L265.554893,37.348854 L267.754541,37.3506417 C268.616939,37.3506417 269.318334,38.0520326 269.318334,38.9144305 C269.318334,39.7768285 268.616939,40.4782235 267.754541,40.4782235 L264.735059,40.4764378 L263.724612,44.3322411 C263.545092,45.0197568 262.923286,45.5000004 262.212637,45.5000004 C262.079391,45.5000004 261.946142,45.4824198 261.816602,45.4491061 C261.411305,45.3426945 261.072636,45.085452 260.861667,44.7245816 C260.652544,44.3646309 260.595178,43.943612 260.700657,43.5401696 L261.503835,40.4764377 L257.906193,40.4764377 L256.895746,44.332241 C256.682916,45.1483759 255.805716,45.6582257 254.987736,45.4491061 C254.582439,45.3426945 254.243777,45.085452 254.032801,44.7245816 C253.823679,44.3646309 253.766313,43.943612 253.871797,43.5401696 L254.674976,40.4764377 L252.478101,40.4782234 C251.615703,40.4782234 250.914308,39.7768284 250.914308,38.9144304 C250.914308,38.0520325 251.615703,37.3506416 252.478101,37.3506416 L255.492957,37.3488539 L256.462693,33.6475685 L254.265818,33.6493542 C253.40342,33.6493542 252.702032,32.9479612 252.702032,32.0855633 C252.702032,31.2231633 253.40342,30.5217765 254.265818,30.5217765 L257.28068,30.5199929 L258.28928,26.6688064 C258.50765,25.835093 259.371895,25.3372657 260.197283,25.5519435 C260.602573,25.658355 260.94125,25.9155955 261.152218,26.27647 C261.36134,26.6364186 261.418714,27.0574355 261.313221,27.4608778 L260.511896,30.5199909 L264.111393,30.5199909 L265.119993,26.6688065 C265.336515,25.8369427 266.18596,25.330788 267.028004,25.5519435 C267.433292,25.658355 267.771954,25.9155955 267.98293,26.27647 C268.192051,26.6364187 268.249426,27.0574355 268.143933,27.4608779 L267.342609,30.519991 L269.542258,30.5217746 Z M283.508505,28.8486896 C290.960394,19.4515094 303.214469,31.3923669 283.887987,45.3759505 C283.659398,45.5413476 283.341363,45.5413517 283.11277,45.3759629 C263.786297,31.3931298 276.040369,19.4515083 283.49226,28.8486896 L283.508505,28.8486896 Z" id="Combined-Shape" fill="#FFFFFF" fill-rule="nonzero"></path>
                <circle id="Oval-Copy-4" fill="#5CBCA9" cx="114.85443" cy="34.5" r="34.5"></circle>
                <path d="M128.65585,17.2344342 C128.655598,17.2339311 128.655598,17.2339311 128.655347,17.233428 C128.655347,17.233428 128.654592,17.2329249 128.654844,17.2329249 C128.625414,17.188151 128.589443,17.1484079 128.548946,17.1152048 C128.548694,17.1152048 128.548694,17.1152048 128.548694,17.1152048 C128.548443,17.1152048 128.548191,17.1147017 128.548191,17.1147017 C128.54794,17.1147017 128.54794,17.1147017 128.54794,17.1147017 C128.547436,17.1136955 128.547436,17.1147017 128.546933,17.1136955 L128.546682,17.1136955 C128.531338,17.1011186 128.514988,17.0895478 128.498135,17.0789832 C128.497632,17.0789832 128.497129,17.0784801 128.497129,17.0784801 C128.496877,17.077977 128.496626,17.077977 128.496374,17.077977 C128.496374,17.077977 128.496374,17.077977 128.496123,17.077977 C128.495619,17.0769708 128.495368,17.0774739 128.495368,17.0774739 C128.495116,17.0769708 128.494865,17.0769708 128.494865,17.0769708 C128.494613,17.0769708 128.494613,17.0769708 128.494362,17.0764677 C128.494362,17.0764677 128.49411,17.0764677 128.493859,17.0764677 C128.493859,17.0764677 128.493607,17.0764677 128.493607,17.0759646 L128.493356,17.0759646 C128.492601,17.0754615 128.492098,17.0754615 128.491343,17.0749585 C128.491092,17.0749585 128.491092,17.0744554 128.490337,17.0744554 C128.490086,17.0739523 128.489834,17.0739523 128.489583,17.0739523 C128.489331,17.0734492 128.489079,17.0734492 128.488828,17.0734492 C128.488576,17.0729461 128.488325,17.0729461 128.488073,17.0729461 L128.487822,17.0729461 C128.4843,17.0704309 128.480779,17.0684186 128.477257,17.0664062 L128.477006,17.0664062 C128.476754,17.0664062 128.476503,17.0664062 128.476251,17.0659031 L128.475496,17.0654 C128.475245,17.0654 128.475245,17.0654 128.474993,17.0654 C128.474993,17.0654 128.47449,17.0648969 128.473987,17.0648969 C128.473987,17.0648969 128.473736,17.0643938 128.473484,17.0643938 C128.473484,17.0643938 128.473233,17.0643938 128.472981,17.0643938 L128.472729,17.0638908 C128.472478,17.0638908 128.472226,17.0638908 128.472226,17.0638908 C128.471723,17.0638908 128.47122,17.0633877 128.47122,17.0633877 C128.470969,17.0628847 128.470969,17.0628847 128.470969,17.0628847 C128.470717,17.0628847 128.470466,17.0628847 128.470214,17.0623816 L128.469963,17.0623816 C128.469711,17.0623816 128.469459,17.0623816 128.469208,17.0618785 C128.468705,17.0618785 128.468453,17.0618785 128.468202,17.0613754 C128.449839,17.0518169 128.431226,17.0432646 128.412109,17.0357184 C128.411857,17.0357184 128.411606,17.0352153 128.411354,17.0352153 L128.411102,17.0352153 C128.409342,17.0352153 128.410599,17.0347122 128.410096,17.0347122 L128.409845,17.0347122 C128.356267,17.0140862 128.298916,17.0020123 128.239805,17 C128.239553,17 128.239301,17 128.238798,17 L128.238547,17 C128.238295,17 128.238044,17 128.237792,17 C128.237289,17 128.237289,17 128.236786,17 C128.23251,17 128.231252,17.0040246 128.223203,17 L103.850348,17 C103.796519,17 103.743193,17.0085523 103.692131,17.0246508 C100.227686,18.1424893 98.2196518,24.522017 98.1356379,24.7931759 C98.0873424,24.94913 98.1162693,25.1191702 98.2133633,25.2509766 C98.3104574,25.3827829 98.4643991,25.4602569 98.6278993,25.4602569 L102.325111,25.4602569 C101.607408,26.5311834 100.983529,27.85978 100.433948,29.496952 C99.510046,32.2482836 99.0416807,35.2456203 99.0416807,38.4064572 L99.0416807,49.1018881 C99.0416807,50.1467804 99.8916304,50.9969816 100.936523,50.9969816 L125.540133,50.9969816 C125.54488,50.9971073 125.549377,51 125.554124,51 C125.620311,51 125.684705,50.9836185 125.746394,50.9585275 C125.760261,50.9529937 125.771454,50.9441269 125.784691,50.9374297 C125.815285,50.9218657 125.847356,50.9096975 125.874836,50.8878137 L129.953287,47.6449751 C131.102316,46.7253492 131.801091,45.3479225 131.870767,43.8643465 C132.741595,24.6910511 128.855823,17.5850793 128.672703,17.2621034 C128.667421,17.252545 128.661887,17.2434896 128.65585,17.2344342 Z M113.176622,18.030303 L117.769155,18.030303 C116.281649,19.7795983 113.242211,24.0590599 112.71181,30.3511778 L107.575638,30.3511778 C107.878114,28.3811572 109.165741,21.7822247 113.176622,18.030303 Z M119.158876,18.030303 L126.614864,18.030303 C124.823153,19.863518 123.830077,23.2562736 123.528231,24.4299539 L115.170948,24.4299539 C116.615567,20.8179821 118.638819,18.5701054 119.158876,18.030303 Z M103.934865,18.030303 L111.722696,18.030303 C109.997706,19.9239502 108.821919,22.2674431 108.028,24.4299539 L99.3510735,24.4299539 C99.9384166,22.83067 101.607377,18.8523319 103.934865,18.030303 Z M100.071984,49.101888 L100.071984,38.4064571 C100.071984,35.3573035 100.522238,32.4701408 101.410673,29.8249586 C102.037036,27.9582575 102.755085,26.5307118 103.597992,25.4602569 L107.672858,25.4602569 C106.752635,28.3068589 106.492292,30.6262984 106.472641,30.811997 C106.457297,30.9573864 106.504335,31.1022727 106.602183,31.2109375 C106.69978,31.3196023 106.838881,31.3814808 106.985025,31.3814808 L113.190488,31.3814808 C113.462402,31.3814808 113.687529,31.1701882 113.704633,30.8985263 C113.832195,28.8605587 114.248806,27.0275953 114.800054,25.4228719 C114.857813,25.4452589 114.919535,25.4602569 114.985218,25.4602569 L123.932957,25.4602569 C124.174434,25.4602569 124.383463,25.292732 124.435783,25.0567886 C124.770581,23.5525864 125.97344,19.727687 127.798102,18.3502604 C128.145226,22.0071319 127.839103,26.7013495 127.446703,28.4138258 C127.204974,29.4360795 126.771321,30.4125533 126.383196,31.2486683 C124.538002,35.2492676 124.90528,47.2316025 125.015737,49.9666785 L100.936523,49.9666785 C100.459857,49.9666785 100.071984,49.5788056 100.071984,49.101888 Z M130.841471,43.8170573 C130.78588,45.0038174 130.227464,46.1055575 129.310605,46.8395478 L126.028778,49.4490116 C125.91307,46.076379 125.681403,35.2300249 127.318418,31.6813151 C127.727168,30.8004261 128.185472,29.7666015 128.450091,28.6477568 C128.771054,27.2471887 129.033158,24.1165364 128.974046,21.0175781 C130.04862,24.7634943 131.379261,31.9776279 130.841471,43.8170573 Z" id="Shape" stroke="#FFFFFF" stroke-width="0.5" fill="#FFFFFF" fill-rule="nonzero"></path>
            </g>
        </g>
    </g>
</svg>
