
<svg width="242px" height="220px" viewBox="0 0 242 220" version="1.1" xmlns="http://www.w3.org/2000/svg" xmlns:xlink="http://www.w3.org/1999/xlink">
    <!-- Generator: Sketch 54.1 (76490) - https://sketchapp.com -->
    <title>Combined Shape</title>
    <desc>Created with Sketch.</desc>
    <g id="Landing-Page" stroke="none" stroke-width="1" fill="none" fill-rule="evenodd" opacity="0.100000001">
        <g id="iPhone-8-Plus-Copy" transform="translate(-172.000000, -516.000000)" fill="#000000">
            <path d="M326.37224,533.553706 C326.283831,532.176258 326.436269,530.602691 326.829554,528.833006 C328.272419,522.340456 333.659662,518.146428 342.991443,516.250793 L343.131981,516.250793 C345.586727,515.852709 348.163235,515.928534 350.86158,516.478268 C355.92098,517.558779 357.82291,521.364209 356.56743,527.894671 C355.769538,532.044957 353.352043,535.316648 349.314905,537.709777 C359.698923,540.343434 369.48141,543.87687 377.784488,547.980468 C419.920789,568.949492 424.715964,594.870199 424.715964,594.870199 C424.715964,594.870199 425.642826,597.28933 424.14793,598.946633 C423.086043,600.114039 421.674081,600.113618 419.963307,599.873307 C398.548003,595.884151 364.652176,590.546305 322.51088,586.717784 C292.932623,584.008602 245.039709,582.607646 228.869251,582.23791 C226.962602,582.18521 225.602319,581.684352 225.108048,580.203699 C224.613778,578.723046 225.944055,576.096067 226.500837,575.262144 C226.500837,575.262144 245.783601,540.934759 294.555029,533.828282 C304.523119,532.341555 315.433317,532.364346 326.37224,533.553706 Z M335.806833,534.863071 C337.704719,535.182777 339.595476,535.534977 341.474256,535.91785 C345.625305,534.664544 347.986113,532.217649 348.556754,528.577096 C349.137648,524.87113 348.256951,522.714878 345.914637,522.108275 C344.677895,521.786017 343.488017,521.738627 342.344967,521.966104 L342.288753,521.966104 C337.960155,523.046615 335.463285,525.43034 334.798068,529.117349 C334.301453,531.869873 334.637704,533.785104 335.806833,534.863071 Z M291.201598,538.229224 C267.683295,539.795749 246.265577,556.302976 242.272938,565.058876 C240.708014,568.53046 245.246911,570.840812 247.099318,567.155518 C257.33251,552.175736 275.967344,541.354656 291.201598,538.229224 Z M394.410414,588.005992 C404.251648,589.066259 409.378903,590.600564 410.944366,586.49234 C413.569827,579.680785 397.145926,564.61778 378.867243,559.566941 C396.471692,567.463149 404.745763,578.464705 403.004721,583.303784 C401.958621,586.454178 398.275428,588.191645 394.410414,588.005992 Z M201.403334,683.29466 C196.371847,683.695731 191.185964,683.227821 185.845526,681.890917 C173.972982,679.038857 169.736005,669.981471 173.134465,654.718487 C176.532926,639.455504 189.221791,629.595988 211.201443,625.139643 L211.53246,625.139643 C217.314256,624.20381 223.382845,624.382061 229.738406,625.674401 C241.655085,628.214518 246.134806,637.160497 243.177705,652.512608 C240.220603,667.864717 227.818615,678.103017 205.971371,683.227815 C204.338345,683.316942 202.815681,683.339223 201.403334,683.29466 Z M204.978319,671.596811 C205.640357,671.596811 206.34652,671.57453 207.09683,671.529966 C217.203939,668.633341 222.941513,662.829039 224.309724,654.116884 C225.677936,645.404728 223.603582,640.335712 218.086601,638.909681 C215.173635,638.152102 212.371051,638.040696 209.678764,638.575457 L209.546357,638.575457 C199.350977,641.115573 193.469963,646.719344 191.90314,655.386935 C190.336318,664.054527 192.2893,669.190389 197.762145,670.794673 C200.277888,671.552252 202.683256,671.819628 204.978319,671.596811 Z M267.459365,665.150007 C265.140062,672.370474 263.419938,677.171037 262.298943,679.551839 C260.28888,681.815553 258.046921,683.279139 255.572998,683.942642 C254.452002,684.293908 253.659585,684.469538 253.195725,684.469538 C250.412562,684.469538 248.634456,682.51809 247.861355,678.615134 C247.474805,676.078214 247.281533,674.614627 247.281533,674.224332 C247.320188,670.321378 249.736092,662.125294 254.529317,649.635838 C259.322543,637.146381 263.883769,626.510988 268.213134,617.729339 C270.493782,613.475119 274.06932,608.089122 278.939856,601.571186 C281.452433,599.190384 283.095248,598 283.868349,598 C285.18262,598.273207 285.839746,598.897671 285.839746,599.873409 L285.839746,602.917699 C285.801092,608.225718 283.191915,617.397525 278.012139,630.433395 C277.896174,630.628543 277.43232,631.955527 276.620565,634.41439 L274.649167,640.912778 C279.365082,636.385349 283.597746,632.911771 287.347285,630.491939 C290.285069,628.69658 294.363115,626.725617 299.581546,624.578992 C301.900849,624.032578 303.273083,623.895977 303.698288,624.169183 C304.316768,624.832686 304.432732,625.45715 304.046182,626.042592 L302.828553,627.916002 C300.741181,631.155454 295.716101,635.799901 287.753162,641.849481 C287.598541,641.92754 286.825453,642.552004 285.433871,643.72289 L276.794511,652.680127 C276.601236,652.836246 276.427291,653.011876 276.272671,653.207024 C278.321388,655.548798 280.679311,658.300339 283.346509,661.461733 C293.70606,674.107307 302.132734,682.888824 308.626781,687.806548 L309.670462,689.972678 C309.979702,690.675209 309.747776,691.397245 308.974675,692.138806 C308.433504,692.451043 306.906653,692.236384 304.394075,691.494822 C298.093303,689.777522 292.797641,687.396755 288.506931,684.35245 C284.216221,681.308145 278.476033,676.331952 271.286196,669.423722 C269.894614,667.901569 268.619016,666.477011 267.459365,665.150007 Z M327.454683,634.965835 L327.851904,634.965835 C329.396658,634.965835 330.367632,636.614658 330.764855,639.912354 C331.02967,641.382948 331.162076,642.497017 331.162076,643.254596 C331.162076,650.028241 327.366449,660.478214 319.775084,674.60483 L316.266301,683.094125 C316.39871,683.985394 316.464912,684.698398 316.464912,685.23316 L316.464912,685.433694 C316.464912,687.037979 315.162924,687.840109 312.558909,687.840109 C308.719091,687.840109 306.291656,683.673489 305.276531,675.340123 C305.276531,669.145803 308.476331,661.035375 314.87603,651.008598 C321.584679,642.407851 325.181696,637.26085 325.667191,635.567439 C326.152685,635.166367 326.74851,634.965835 327.454683,634.965835 Z M354.235713,669.230186 C351.776005,676.887763 349.951749,681.978941 348.76289,684.503872 C346.631143,686.904626 344.253461,688.456815 341.629772,689.160484 C340.440914,689.533015 339.600526,689.719278 339.108584,689.719278 C336.156934,689.719278 334.271187,687.649693 333.451284,683.510462 C333.041333,680.819961 332.83636,679.267774 332.83636,678.85385 C332.877355,674.714619 335.439513,666.022364 340.522909,652.776824 C345.606305,639.531284 350.443659,628.252049 355.035114,618.938779 C357.453827,614.427017 361.24582,608.714963 366.411206,601.802447 C369.07589,599.277516 370.818157,598.015069 371.63806,598.015069 C373.031894,598.304816 373.728801,598.967083 373.728801,600.00189 L373.728801,603.230475 C373.687806,608.859829 370.920676,618.586877 365.427329,632.411909 C365.304343,632.61887 364.812409,634.026188 363.951511,636.633903 L361.860769,643.525688 C366.862176,638.72418 371.351076,635.04032 375.327604,632.473997 C378.443233,630.56995 382.768155,628.47967 388.302498,626.203093 C390.762206,625.623601 392.217511,625.47873 392.668458,625.768476 C393.32438,626.472145 393.447364,627.134412 393.037412,627.755297 L391.746072,629.742118 C389.532335,633.17768 384.203047,638.103291 375.75805,644.519099 C375.594069,644.601884 374.774179,645.264151 373.298355,646.50592 L364.135988,656.005408 C363.931012,656.170978 363.746537,656.35724 363.582557,656.564201 C365.755299,659.047741 368.255964,661.965855 371.084628,665.318632 C382.071324,678.729741 391.008129,688.042872 397.895312,693.258302 L399.002175,695.555564 C399.330136,696.300626 399.084168,697.066373 398.264266,697.852827 C397.690333,698.183965 396.07105,697.956311 393.406367,697.169857 C386.72416,695.348594 381.107911,692.823702 376.557451,689.595101 C372.006991,686.366501 365.919305,681.08906 358.294211,673.762621 C356.818386,672.148321 355.465567,670.637525 354.235713,669.230186 Z M395.776161,654.751909 C399.174622,639.466645 411.863488,629.595988 433.84314,625.139643 C445.62741,624.961389 452.082182,626.565649 453.207646,629.952472 C454.333109,633.339294 454.333109,636.926599 453.207646,640.714492 C452.082182,644.502386 449.136158,648.713568 444.369486,653.348168 C439.602815,657.982767 430.356494,661.458665 416.630246,663.775964 C416.806788,670.193102 422.180248,671.841925 432.750783,668.722482 C443.321319,665.603041 450.294677,663.686841 453.67107,662.973826 C457.047462,662.26081 458.448754,663.296895 457.874988,666.082111 C457.301222,668.867327 451.883628,672.922541 441.622044,678.247873 C431.360459,683.573206 420.304596,684.798683 408.454121,681.92434 C396.603646,679.049998 392.377702,669.992611 395.776161,654.751909 Z M428.149644,638.040698 C422.103032,640.937322 417.976393,645.883792 415.769601,652.880254 L416.630246,655.086134 C434.063905,648.668996 441.864799,643.488572 440.033162,639.544707 C438.201523,635.600841 434.240391,635.09951 428.149644,638.040698 Z M344.468967,598.735928 L346.45507,598.735928 C347.249515,599.181563 347.646732,599.78316 347.646732,600.540739 L347.646732,600.741273 C347.514324,602.568375 342.924266,609.497888 333.876417,621.530021 C331.802032,624.159265 330.102827,625.473867 328.778752,625.473867 C328.778752,625.741248 327.807778,625.874936 325.865801,625.874936 C322.99697,625.384738 321.562577,624.13698 321.562577,622.131624 L321.562577,618.923071 C321.562577,616.427519 323.92381,612.46143 328.646345,607.024689 C332.883386,604.083501 337.186567,601.721673 341.556016,599.939135 C342.482869,599.850008 343.453842,599.448943 344.468967,598.735928 Z M437.286227,612.908698 L438.80767,614.197708 C439.132551,615.054691 439.053848,615.773342 438.571558,616.35368 L438.443895,616.507299 C437.179295,617.821006 429.251641,620.150302 414.660693,623.495259 C411.397794,624.163069 409.259226,624.067303 408.244925,623.207958 C408.074705,623.412784 407.245787,622.885018 405.758146,621.624645 C403.872565,619.387217 403.568103,617.500436 404.844752,615.964245 L406.88738,613.506351 C408.476099,611.594646 412.809798,610.088922 419.888606,608.989134 C425.006787,609.485958 429.806801,610.469522 434.288792,611.939858 C435.055542,612.473124 436.054678,612.796067 437.286227,612.908698 Z M205.869603,715.178315 C207.078851,714.051251 208.022437,713.999092 210.301868,713.90522 C263.534947,710.994802 352.046387,715.515664 404.203526,721.580218 C406.472133,721.87248 408.104467,722.456936 408.729094,723.980613 C409.501966,725.817374 408.461787,727.914995 407.602325,729.1673 C403.464081,735.355777 371.093463,778.236724 295.995414,769.938325 C246.763981,764.531311 210.576019,734.933853 205.538175,719.999759 C205.538175,719.999759 204.129853,717.025454 205.869603,715.178315 Z M324.102697,759.758775 C342.87189,759.30513 363.161748,752.741864 378.660061,737.704922 C383.116041,733.374081 376.855638,728.01344 372.492642,733.521247 C362.570223,744.628331 346.512982,756.034131 324.102697,759.758775 Z M428.014771,713 C429.84639,713 431.525349,713.446074 433.051699,714.338235 C434.578048,715.230397 435.784338,716.441169 436.670606,717.970588 C437.556873,719.500008 438,721.166658 438,722.970588 C438,724.754911 437.556873,726.416659 436.670606,727.955882 C435.784338,729.495106 434.573124,730.720584 433.036928,731.632353 C431.500731,732.544122 429.807001,733 427.955687,733 C426.124068,733 424.445109,732.549024 422.918759,731.647059 C421.39241,730.745094 420.191043,729.529419 419.314623,728 C418.438203,726.470581 418,724.813734 418,723.029412 C418,721.245089 418.443127,719.583341 419.329394,718.044118 C420.215662,716.504894 421.421952,715.279416 422.948301,714.367647 C424.474651,713.455878 426.163457,713 428.014771,713 Z M427.955687,730.794118 C429.413104,730.794118 430.747409,730.44118 431.958641,729.735294 C433.169873,729.029408 434.125058,728.078437 434.824225,726.882353 C435.523391,725.686269 435.872969,724.38236 435.872969,722.970588 C435.872969,721.558816 435.528315,720.25981 434.838996,719.073529 C434.149677,717.887249 433.204339,716.946082 432.002954,716.25 C430.80157,715.553918 429.472188,715.205882 428.014771,715.205882 C426.557354,715.205882 425.227973,715.55882 424.026588,716.264706 C422.825203,716.970592 421.874942,717.921563 421.175775,719.117647 C420.476609,720.313731 420.127031,721.61764 420.127031,723.029412 C420.127031,724.441184 420.471685,725.74019 421.161004,726.926471 C421.850323,728.112751 422.790738,729.053918 423.982275,729.75 C425.173812,730.446082 426.498269,730.794118 427.955687,730.794118 Z M432.239291,721.205882 C432.239291,721.950984 432.081735,722.583331 431.766617,723.102941 C431.4515,723.622552 430.998526,724.019606 430.407681,724.294118 L432.50517,727.470588 L430.053176,727.470588 L428.516987,724.705882 L426.330871,724.705882 L426.330871,727.470588 L424.20384,727.470588 L424.20384,717.911765 L428.28065,717.911765 C429.541119,717.911765 430.515999,718.200978 431.205318,718.779412 C431.894637,719.357846 432.239291,720.166661 432.239291,721.205882 Z M426.330871,723 L428.28065,723 C428.89119,723 429.363858,722.852943 429.698671,722.558824 C430.033483,722.264704 430.200886,721.84314 430.200886,721.294118 C430.200886,720.745095 430.033483,720.328433 429.698671,720.044118 C429.363858,719.759802 428.89119,719.617647 428.28065,719.617647 L426.330871,719.617647 L426.330871,723 Z" id="Combined-Shape"></path>
        </g>
    </g>
</svg>
