
<svg width="175px" height="155px" viewBox="0 0 175 155" version="1.1" xmlns="http://www.w3.org/2000/svg" xmlns:xlink="http://www.w3.org/1999/xlink">
    <!-- Generator: Sketch 54.1 (76490) - https://sketchapp.com -->
    <title>Combined Shape</title>
    <desc>Created with Sketch.</desc>
    <g id="Onboarding" stroke="none" stroke-width="1" fill="none" fill-rule="evenodd">
        <g id="iPhone-8-Plus-Copy" transform="translate(-120.000000, -110.000000)" fill="#FFFFFF" fill-rule="nonzero">
            <path d="M137.9177,212.138794 C134.85163,212.380236 131.691474,212.098557 128.437137,211.29375 C121.202289,209.576828 118.620375,204.124341 120.691316,194.936124 C122.762258,185.747907 130.494554,179.812543 143.888437,177.129852 L144.090151,177.129852 C147.613441,176.566487 151.311496,176.673793 155.184426,177.451773 C162.446169,178.980907 165.176005,184.366328 163.374017,193.608199 C161.572029,202.850069 154.01455,209.013459 140.701354,212.098554 C139.706226,212.152207 138.77835,212.16562 137.9177,212.138794 Z M140.096211,205.096765 C140.499642,205.096765 140.929961,205.083352 141.387182,205.056525 C147.546216,203.312776 151.042558,199.818623 151.876314,194.573963 C152.71007,189.329302 151.446008,186.277787 148.084089,185.419325 C146.308997,184.963268 144.601168,184.896202 142.960552,185.218125 L142.879866,185.218125 C136.667041,186.747258 133.08329,190.120692 132.128505,195.338525 C131.17372,200.556359 132.363822,203.648115 135.698845,204.613883 C137.231879,205.069941 138.697654,205.230899 140.096211,205.096765 Z M178.17069,201.215831 C176.757361,205.562505 175.709158,208.452413 175.02605,209.88564 C173.801165,211.248381 172.434968,212.129451 170.927417,212.528875 C170.244309,212.740335 169.761429,212.846063 169.478763,212.846063 C167.782769,212.846063 166.699233,211.671304 166.228124,209.32175 C165.992569,207.79454 165.874794,206.913471 165.874794,206.678516 C165.898349,204.328962 167.370544,199.394974 170.291423,191.876402 C173.212302,184.357831 175.991806,177.955393 178.630019,172.668898 C180.019792,170.107885 182.19864,166.86555 185.16663,162.941795 C186.697736,161.508567 187.698828,160.791964 188.169938,160.791964 C188.970824,160.956433 189.371261,161.332356 189.371261,161.919744 L189.371261,163.752387 C189.347706,166.94778 187.757735,172.469148 184.601302,180.316657 C184.530635,180.434134 184.247974,181.23297 183.753309,182.713189 L182.551986,186.625177 C185.425753,183.899694 188.005039,181.808623 190.28992,180.3519 C192.080136,179.271105 194.565201,178.084598 197.745191,176.792344 C199.158519,176.463407 199.994726,176.381173 200.253836,176.545642 C200.630723,176.945066 200.701389,177.320989 200.465834,177.673422 L199.72384,178.801202 C198.451845,180.751331 195.389679,183.547258 190.537251,187.189066 C190.44303,187.236057 189.971927,187.61198 189.12393,188.316846 L183.859308,193.709045 C183.741531,193.803027 183.635533,193.908755 183.541311,194.026233 C184.789751,195.435965 186.226613,197.092376 187.851941,198.995514 C194.164808,206.608068 199.299824,211.894484 203.257143,214.854921 L203.893138,216.158917 C204.081582,216.581837 203.940251,217.016498 203.469142,217.462912 C203.139365,217.650877 202.208938,217.521654 200.677832,217.075238 C196.83829,216.041435 193.611238,214.608229 190.996581,212.775577 C188.381923,210.942925 184.883988,207.947289 180.50267,203.78858 C179.654673,202.872253 178.877354,202.014679 178.17069,201.215831 Z M214.730424,183.045156 L214.972481,183.045156 C215.913818,183.045156 216.505506,184.037737 216.747565,186.022928 C216.908937,186.908216 216.989622,187.578878 216.989622,188.034936 C216.989622,192.112626 214.676656,198.403442 210.050657,206.907573 L207.912488,212.018073 C207.993174,212.554611 208.033516,212.983835 208.033516,213.305758 L208.033516,213.426479 C208.033516,214.392248 207.240116,214.875125 205.65329,214.875125 C203.313395,214.875125 201.834173,212.366847 201.21558,207.350214 C201.21558,203.621274 203.165463,198.73885 207.065289,192.702795 C211.153381,187.525201 213.345319,184.42674 213.641168,183.407318 C213.937017,183.165875 214.300099,183.045156 214.730424,183.045156 Z M231.050153,203.672072 C229.551265,208.281884 228.439606,211.34674 227.715143,212.866732 C226.416107,214.31197 224.967204,215.246378 223.368389,215.669982 C222.643927,215.894243 222.131814,216.006372 221.832037,216.006372 C220.033371,216.006372 218.884241,214.760496 218.384612,212.268705 C218.134797,210.649042 218.009891,209.714635 218.009891,209.465455 C218.034872,206.973665 219.596191,201.740984 222.693893,193.767256 C225.791595,185.793527 228.739365,179.0035 231.537289,173.396973 C233.011196,170.680921 235.321947,167.242302 238.469612,163.081013 C240.093407,161.56102 241.155104,160.801036 241.654733,160.801036 C242.504103,160.975461 242.928782,161.374142 242.928782,161.997089 L242.928782,163.940676 C242.903801,167.32951 241.217577,173.18513 237.87006,181.507709 C237.795116,181.632298 237.495342,182.479495 236.970731,184.049322 L235.696683,188.198132 C238.744422,185.307655 241.479852,183.089995 243.903055,181.545086 C245.801646,180.398862 248.437152,179.140527 251.80965,177.770042 C253.308538,177.421192 254.195367,177.33398 254.470163,177.508406 C254.869866,177.93201 254.94481,178.33069 254.694995,178.704459 L253.908083,179.900513 C252.559083,181.968698 249.311541,184.933884 244.165358,188.796159 C244.065433,188.845995 243.565811,189.244675 242.666478,189.992212 L237.083147,195.710842 C236.95824,195.810514 236.845825,195.922643 236.745899,196.047232 C238.069917,197.542306 239.593764,199.298992 241.317485,201.317342 C248.012519,209.390742 253.458397,214.997187 257.655284,218.136842 L258.329781,219.519778 C258.529632,219.968301 258.379746,220.429275 257.880116,220.902716 C257.530376,221.102059 256.543622,220.965012 254.919827,220.491572 C250.847847,219.395184 247.425438,217.875215 244.652495,215.931619 C241.879552,213.988023 238.169859,210.811037 233.523306,206.400569 C232.623973,205.42877 231.799597,204.519281 231.050153,203.672072 Z M256.363924,194.956244 C258.434866,185.754614 266.167162,179.812543 279.561045,177.129852 C286.742102,177.022544 290.675487,177.988299 291.361319,180.027144 C292.04715,182.065989 292.04715,184.225523 291.361319,186.50581 C290.675487,188.786097 288.88025,191.321202 285.975552,194.111201 C283.070855,196.901199 277.436364,198.993667 269.071912,200.388666 C269.179493,204.251741 272.453953,205.244322 278.895388,203.366438 C285.336824,201.488554 289.586224,200.335015 291.643718,199.905784 C293.701213,199.476553 294.555127,200.10027 294.205487,201.776951 C293.855848,203.453634 290.554494,205.894846 284.301326,209.100661 C278.048157,212.306477 271.310975,213.044206 264.089574,211.31387 C256.868174,209.583535 254.292983,204.131047 256.363924,194.956244 Z M276.091562,184.896203 C272.4069,186.639952 269.892223,189.617695 268.547456,193.82952 L269.071912,195.157445 C279.695574,191.29437 284.449255,188.175788 283.333098,185.801607 C282.216941,183.427426 279.80312,183.125627 276.091562,184.896203 Z M225.098528,161.234988 L226.308813,161.234988 C226.792929,161.503257 227.034983,161.865415 227.034983,162.321472 L227.034983,162.442193 C226.954297,163.542096 224.157223,167.713618 218.643677,174.956883 C217.379596,176.539671 216.34414,177.331053 215.53728,177.331053 C215.53728,177.492014 214.945591,177.572494 213.762196,177.572494 C212.013999,177.277398 211.139913,176.526256 211.139913,175.319044 L211.139913,173.387517 C211.139913,171.88521 212.578793,169.497651 215.456595,166.224768 C218.038548,164.454192 220.660805,163.032387 223.323444,161.959311 C223.888246,161.905657 224.479935,161.664218 225.098528,161.234988 Z M281.659181,169.766903 L282.586313,170.542879 C282.784287,171.058777 282.736327,171.4914 282.442431,171.84076 L282.364636,171.933237 C281.594019,172.72408 276.763094,174.126302 267.871713,176.139944 C265.883379,176.541961 264.580186,176.484311 263.962095,175.966991 C263.858367,176.090294 263.353244,175.772583 262.446711,175.013847 C261.297682,173.66693 261.11215,172.5311 261.89011,171.606323 L263.134839,170.126686 C264.102967,168.975852 266.743821,168.069416 271.057481,167.407351 C274.176379,167.706436 277.101395,168.298535 279.832615,169.183668 C280.299854,169.50469 280.908704,169.6991 281.659181,169.766903 Z M213.672193,120.545488 C213.618326,119.717978 213.711205,118.772649 213.95083,117.709501 C214.829953,113.809065 218.112344,111.289479 223.798102,110.150665 L223.88373,110.150665 C225.379381,109.911514 226.949221,109.957066 228.593295,110.287322 C231.675935,110.936445 232.834762,113.222579 232.069811,117.145791 C231.583663,119.639098 230.110709,121.604585 227.650922,123.042271 C233.977797,124.624455 239.938165,126.747187 244.997145,129.212446 C270.670358,141.809705 273.592009,157.381716 273.592009,157.381716 C273.592009,157.381716 274.156736,158.835023 273.245912,159.830657 C272.598915,160.531983 271.738621,160.53173 270.696264,160.387362 C257.64814,157.990854 236.995763,154.784113 211.319506,152.484107 C193.297779,150.856551 164.117121,150.014919 154.264628,149.792798 C153.102927,149.761138 152.27412,149.460245 151.972966,148.570734 C151.671812,147.681223 152.482336,146.103051 152.821578,145.602067 C152.821578,145.602067 164.570367,124.979697 194.286295,120.710441 C200.359749,119.817281 207.00722,119.830973 213.672193,120.545488 Z M219.420593,121.332096 C220.576956,121.524161 221.728974,121.735747 222.873695,121.96576 C225.402887,121.21283 226.841303,119.742844 227.188988,117.555762 C227.542921,115.329382 227.006322,114.034001 225.579174,113.669581 C224.825639,113.475982 224.100659,113.447513 223.404211,113.58417 L223.36996,113.58417 C220.73259,114.233294 219.211273,115.66533 218.805963,117.880322 C218.50338,119.533915 218.708255,120.684501 219.420593,121.332096 Z M192.243084,123.354332 C177.913625,124.29543 164.86403,134.21224 162.431356,139.472396 C161.477864,141.55797 164.243368,142.945927 165.37202,140.731966 C171.606998,131.732777 182.96101,125.231952 192.243084,123.354332 Z M140.968395,230.654982 C141.70244,229.961281 142.27522,229.929178 143.658893,229.871401 C175.972729,228.080058 229.701428,230.862618 261.36214,234.595309 C262.739243,234.775194 263.730111,235.134923 264.109275,236.072736 C264.578428,237.20325 263.947013,238.494321 263.425298,239.265106 C260.913278,243.074071 241.263488,269.467 195.677059,264.359392 C165.792325,261.031413 143.82531,242.81438 140.76721,233.622547 C140.76721,233.622547 139.912323,231.791883 140.968395,230.654982 Z M212.738896,258.093949 C224.132274,257.814734 236.448735,253.775088 245.856606,244.519954 C248.561499,241.854351 244.761276,238.554913 242.112825,241.944931 C236.089665,248.781265 226.34251,255.801457 212.738896,258.093949 Z M255.12715,153.258005 C261.123312,153.894967 264.247296,154.816709 265.201116,152.34867 C266.800783,148.25659 256.793869,139.207405 245.656857,136.173085 C256.383065,140.916777 261.424371,147.526023 260.363573,150.433127 C259.726195,152.325744 257.482063,153.369538 255.12715,153.258005 Z M275.479497,229.315697 C276.5979,229.315697 277.623088,229.588074 278.555091,230.132836 C279.487094,230.677598 280.223666,231.416906 280.764829,232.350784 C281.305992,233.284661 281.576569,234.302333 281.576569,235.403829 C281.576569,236.493353 281.305992,237.508031 280.764829,238.447895 C280.223666,239.387759 279.484087,240.136047 278.546072,240.692782 C277.608056,241.249516 276.573849,241.52788 275.44342,241.52788 C274.325016,241.52788 273.299829,241.25251 272.367826,240.701761 C271.435823,240.151013 270.702257,239.408711 270.167107,238.474834 C269.631957,237.540957 269.364386,236.529271 269.364386,235.439747 C269.364386,234.350224 269.634964,233.335545 270.176127,232.395681 C270.71729,231.455817 271.453862,230.707529 272.385864,230.150795 C273.317867,229.59406 274.349068,229.315697 275.479497,229.315697 Z M275.44342,240.180948 C276.333332,240.180948 277.148071,239.965441 277.88766,239.53442 C278.627249,239.1034 279.210494,238.522729 279.637411,237.792388 C280.064329,237.062048 280.277784,236.26587 280.277784,235.403829 C280.277784,234.541789 280.067335,233.748603 279.646431,233.02425 C279.225526,232.299896 278.648294,231.725211 277.914718,231.300177 C277.181142,230.875143 276.369409,230.662629 275.479497,230.662629 C274.589585,230.662629 273.777852,230.878136 273.044276,231.309156 C272.3107,231.740177 271.730461,232.320848 271.303544,233.051188 C270.876626,233.781528 270.663171,234.577707 270.663171,235.439747 C270.663171,236.301788 270.87362,237.094973 271.294525,237.819327 C271.715429,238.543681 272.289654,239.118366 273.017218,239.5434 C273.744781,239.968434 274.553507,240.180948 275.44342,240.180948 Z M278.059027,234.326284 C278.059027,234.78125 277.962822,235.167366 277.770409,235.484645 C277.577995,235.801924 277.301405,236.044369 276.94063,236.211988 L278.221375,238.15157 L276.724166,238.15157 L275.786154,236.463416 L274.451293,236.463416 L274.451293,238.15157 L273.152508,238.15157 L273.152508,232.314865 L275.641845,232.314865 C276.411499,232.314865 277.006769,232.491461 277.427674,232.844659 C277.848578,233.197856 278.059027,233.691726 278.059027,234.326284 Z M274.451293,235.421788 L275.641845,235.421788 C276.014646,235.421788 276.303262,235.331994 276.507701,235.152402 C276.712141,234.97281 276.814359,234.715399 276.814359,234.380161 C276.814359,234.044923 276.712141,233.790505 276.507701,233.6169 C276.303262,233.443294 276.014646,233.356493 275.641845,233.356493 L274.451293,233.356493 L274.451293,235.421788 Z" id="Combined-Shape"></path>
        </g>
    </g>
</svg>
